<svg xmlns="http://www.w3.org/2000/svg" width="480" height="192" viewBox="0 0 480 192">
<defs><pattern id="dh" width="4" height="4" patternUnits="userSpaceOnUse"><rect width="4" height="4" fill="#000"/><rect x="1" y="1" width="2" height="2" fill="#d6d6d6"/></pattern></defs>
<rect width="480" height="192" fill="#000"/><line x1="250" y1="136" x2="260" y2="79" stroke="#8a8a8a" stroke-width="0.7" stroke-dasharray="2 3"/><line x1="250" y1="136" x2="244" y2="141" stroke="#8a8a8a" stroke-width="0.7" stroke-dasharray="2 3"/><line x1="250" y1="136" x2="276" y2="147" stroke="#8a8a8a" stroke-width="0.7" stroke-dasharray="2 3"/><line x1="260" y1="79" x2="244" y2="141" stroke="#8a8a8a" stroke-width="0.7" stroke-dasharray="2 3"/><line x1="260" y1="79" x2="354" y2="88" stroke="#8a8a8a" stroke-width="0.7" stroke-dasharray="2 3"/><line x1="260" y1="79" x2="224" y2="146" stroke="#8a8a8a" stroke-width="0.7" stroke-dasharray="2 3"/><line x1="260" y1="79" x2="276" y2="147" stroke="#8a8a8a" stroke-width="0.7" stroke-dasharray="2 3"/><line x1="48" y1="50" x2="125" y2="72" stroke="#8a8a8a" stroke-width="0.7" stroke-dasharray="2 3"/><line x1="433" y1="88" x2="396" y2="134" stroke="#8a8a8a" stroke-width="0.7" stroke-dasharray="2 3"/><line x1="433" y1="88" x2="345" y2="48" stroke="#8a8a8a" stroke-width="0.7" stroke-dasharray="2 3"/><line x1="87" y1="128" x2="80" y2="111" stroke="#8a8a8a" stroke-width="0.7" stroke-dasharray="2 3"/><line x1="87" y1="128" x2="125" y2="72" stroke="#8a8a8a" stroke-width="0.7" stroke-dasharray="2 3"/><line x1="87" y1="128" x2="122" y2="119" stroke="#8a8a8a" stroke-width="0.7" stroke-dasharray="2 3"/><line x1="244" y1="141" x2="224" y2="146" stroke="#8a8a8a" stroke-width="0.7" stroke-dasharray="2 3"/><line x1="125" y1="72" x2="122" y2="119" stroke="#8a8a8a" stroke-width="0.7" stroke-dasharray="2 3"/><line x1="122" y1="119" x2="224" y2="146" stroke="#8a8a8a" stroke-width="0.7" stroke-dasharray="2 3"/><line x1="396" y1="134" x2="294" y2="154" stroke="#8a8a8a" stroke-width="0.7" stroke-dasharray="2 3"/><line x1="396" y1="134" x2="345" y2="48" stroke="#8a8a8a" stroke-width="0.7" stroke-dasharray="2 3"/><line x1="294" y1="154" x2="276" y2="147" stroke="#8a8a8a" stroke-width="0.7" stroke-dasharray="2 3"/><circle cx="204" cy="146" r="6.3" fill="url(#dh)" stroke="#cfcfcf" stroke-width="0.7"/><circle cx="250" cy="136" r="4.7" fill="url(#dh)" stroke="#cfcfcf" stroke-width="0.7"/><circle cx="260" cy="79" r="6.7" fill="url(#dh)" stroke="#cfcfcf" stroke-width="0.7"/><circle cx="48" cy="50" r="3.6" fill="url(#dh)" stroke="#cfcfcf" stroke-width="0.7"/><circle cx="433" cy="88" r="8.9" fill="url(#dh)" stroke="#cfcfcf" stroke-width="0.7"/><circle cx="87" cy="128" r="4.2" fill="url(#dh)" stroke="#cfcfcf" stroke-width="0.7"/><circle cx="244" cy="141" r="7.8" fill="url(#dh)" stroke="#cfcfcf" stroke-width="0.7"/><circle cx="80" cy="111" r="5.0" fill="url(#dh)" stroke="#cfcfcf" stroke-width="0.7"/><circle cx="354" cy="88" r="6.3" fill="url(#dh)" stroke="#cfcfcf" stroke-width="0.7"/><circle cx="125" cy="72" r="3.6" fill="url(#dh)" stroke="#cfcfcf" stroke-width="0.7"/><circle cx="122" cy="119" r="7.3" fill="url(#dh)" stroke="#cfcfcf" stroke-width="0.7"/><circle cx="396" cy="134" r="3.5" fill="url(#dh)" stroke="#cfcfcf" stroke-width="0.7"/><circle cx="224" cy="146" r="5.3" fill="url(#dh)" stroke="#cfcfcf" stroke-width="0.7"/><circle cx="294" cy="154" r="6.5" fill="url(#dh)" stroke="#cfcfcf" stroke-width="0.7"/><circle cx="345" cy="48" r="4.4" fill="url(#dh)" stroke="#cfcfcf" stroke-width="0.7"/><circle cx="276" cy="147" r="3.6" fill="url(#dh)" stroke="#cfcfcf" stroke-width="0.7"/></svg>