<?xml version="1.0" encoding="UTF-8"?>
<svg version="1.1" xmlns="http://www.w3.org/2000/svg" width="360" height="451">
<path d="M0 0 C118.8 0 237.6 0 360 0 C360 148.83 360 297.66 360 451 C241.2 451 122.4 451 0 451 C0 302.17 0 153.34 0 0 Z " fill="#FDFDFD" transform="translate(0,0)"/>
<path d="M0 0 C0.87870707 -0.00297112 1.75741414 -0.00594224 2.66274869 -0.0090034 C5.60113377 -0.01766069 8.53947795 -0.01919614 11.47787476 -0.02069092 C13.58734219 -0.02532123 15.69680879 -0.03034618 17.80627441 -0.03573608 C23.5338146 -0.04884243 29.26134306 -0.05530172 34.98889589 -0.05974674 C38.57004611 -0.06268061 42.15119315 -0.06678604 45.73234177 -0.07125092 C56.94500133 -0.08492185 68.1576536 -0.09459021 79.37032092 -0.09845281 C92.29844272 -0.10293122 105.22645867 -0.12047086 118.15454829 -0.1494534 C128.157324 -0.17109671 138.16006999 -0.18115852 148.16286886 -0.18249393 C154.13240022 -0.18354014 160.10183202 -0.18940897 166.07133865 -0.20731354 C171.69053964 -0.22383975 177.30956672 -0.22592761 182.92878342 -0.21717453 C184.984601 -0.21640656 187.04042812 -0.22071494 189.09622192 -0.23063278 C207.21543056 -0.31287911 222.16007498 1.3125395 235.9715271 14.26544189 C244.56532635 23.27665425 249.30595807 33.72477497 249.1590271 46.14044189 C248.23801712 46.14125905 248.23801712 46.14125905 247.29840088 46.1420927 C232.28793947 46.15712643 217.27782596 46.19983717 202.26754761 46.27253246 C195.00835888 46.30703662 187.74935718 46.33251868 180.49008179 46.33599854 C174.15538797 46.33905891 167.82102847 46.35982422 161.48646355 46.40096647 C158.13892889 46.4221134 154.79227022 46.43235042 151.4446106 46.42659569 C127.02424809 46.39441691 107.47044674 49.87271455 89.02230835 67.14044189 C82.01123041 74.39067689 77.02419113 82.95398459 71.78451538 91.50469971 C69.03997125 95.95499987 66.22238953 100.35844936 63.4090271 104.76544189 C62.8315271 105.6722168 62.2540271 106.5789917 61.6590271 107.51324463 C52.23341796 122.31294628 42.79243955 137.10291119 33.24032593 151.8213501 C28.90148534 158.51711174 24.62751284 165.25382609 20.34994507 171.98883057 C16.81148636 177.55597333 13.25129454 183.10788394 9.6590271 188.64044189 C3.69485133 197.82938884 -2.17799296 207.07593729 -8.05142212 216.32305908 C-10.93792138 220.8674249 -13.82647437 225.41048265 -16.7159729 229.95294189 C-17.28154907 230.84215332 -17.84712524 231.73136475 -18.42984009 232.64752197 C-21.64722979 237.70296946 -24.87133965 242.75406432 -28.10269165 247.80059814 C-28.46163513 248.36118423 -28.82057861 248.92177032 -29.19039917 249.49934387 C-30.93427536 252.22243618 -32.67894237 254.94501853 -34.42446899 257.66705322 C-35.05820435 258.65600586 -35.6919397 259.6449585 -36.34487915 260.66387939 C-36.94445435 261.59683838 -37.54402954 262.52979736 -38.16177368 263.49102783 C-39.70665132 265.92851143 -41.19530615 268.39314366 -42.68081665 270.86700439 C-43.39366821 271.94723877 -44.10651978 273.02747314 -44.8409729 274.14044189 C-45.5009729 274.14044189 -46.1609729 274.14044189 -46.8409729 274.14044189 C-51.27452292 262.2385237 -51.41196553 251.02988496 -51.35855103 238.45440674 C-51.36398087 236.29449494 -51.37110835 234.13458684 -51.37979126 231.97468567 C-51.39792261 226.1462889 -51.39099988 220.31817746 -51.37827492 214.48977613 C-51.36809685 208.37085206 -51.37755364 202.25195123 -51.38381958 196.13302612 C-51.39108092 185.86266729 -51.38154687 175.59242381 -51.36245728 165.32208252 C-51.34067995 153.46927035 -51.34775242 141.61673335 -51.3697629 129.76392782 C-51.38794617 119.56139543 -51.39046124 109.3589456 -51.38000822 99.15640223 C-51.3737909 93.07408492 -51.37288935 86.99189674 -51.38615417 80.90958786 C-51.39775507 75.19171015 -51.38960945 69.47418554 -51.36657715 63.75634575 C-51.36131319 61.66505582 -51.3627639 59.57373589 -51.37162781 57.48245811 C-51.42980466 42.35590402 -50.22022515 30.58598814 -40.8409729 18.14044189 C-39.9747229 16.84106689 -39.9747229 16.84106689 -39.0909729 15.51544189 C-28.60535055 4.44728497 -14.85700231 -0.01579972 0 0 Z " fill="#010101" transform="translate(80.84097290039063,32.85955810546875)"/>
<path d="M0 0 C2.20666779 0.02800364 4.41342932 0.04934299 6.620224 0.0643158 C12.40795816 0.12138971 18.18997705 0.26852251 23.97546387 0.43487549 C30.92776095 0.61586889 37.881978 0.68427191 44.83596039 0.77167511 C55.38288703 0.91678417 65.91729526 1.20419593 76.46484375 1.46484375 C76.46484375 22.25484375 76.46484375 43.04484375 76.46484375 64.46484375 C31.58484375 64.46484375 -13.29515625 64.46484375 -59.53515625 64.46484375 C-57.95273855 60.50879951 -56.34768121 57.26089081 -54.19140625 53.6328125 C-53.5269751 52.51229492 -52.86254395 51.39177734 -52.17797852 50.23730469 C-51.46390943 49.0421952 -50.74963122 47.84721064 -50.03515625 46.65234375 C-49.30450667 45.42486388 -48.57395706 44.19732449 -47.84350586 42.96972656 C-43.32578696 35.39133752 -38.8014011 27.81538105 -33.94393921 20.44848633 C-32.30757861 17.87041634 -31.02642707 15.36790408 -29.9131012 12.52708435 C-23.89192049 -1.71039916 -13.98756051 -0.52135863 0 0 Z " fill="#000000" transform="translate(134.53515625,268.53515625)"/>
<path d="M0 0 C24.09 0 48.18 0 73 0 C73.020625 10.9725 73.04125 21.945 73.0625 33.25 C73.071604 36.71145508 73.08070801 40.17291016 73.09008789 43.73925781 C73.093008 46.47721315 73.09555633 49.21516891 73.09765625 51.953125 C73.10026962 52.66329773 73.102883 53.37347046 73.10557556 54.10516357 C73.11290426 56.20196854 73.11390568 58.29869194 73.11352539 60.39550781 C73.115746 61.57687317 73.11796661 62.75823853 73.12025452 63.97540283 C73 67 73 67 72 71 C48.24 71 24.48 71 0 71 C0 47.57 0 24.14 0 0 Z " fill="#020202" transform="translate(257,226)"/>
<path d="M0 0 C24.09 0 48.18 0 73 0 C73 21.12 73 42.24 73 64 C48.91 64 24.82 64 0 64 C0 42.88 0 21.76 0 0 Z " fill="#010101" transform="translate(257,120)"/>
<path d="M0 0 C0.0233302 14.32494426 0.04091336 28.64988559 0.05181217 42.97484493 C0.05704174 49.6257353 0.06414072 56.27660786 0.07543945 62.92749023 C0.08626571 69.34002877 0.09227628 75.75255504 0.09487724 82.16510201 C0.09673197 84.61764278 0.10035347 87.07018285 0.10573006 89.52271843 C0.11293702 92.94476677 0.11399109 96.36676371 0.11352539 99.78881836 C0.11712067 100.81380432 0.12071594 101.83879028 0.12442017 102.89483643 C0.1230455 103.82176804 0.12167084 104.74869965 0.12025452 105.70372009 C0.12117631 106.51397613 0.1220981 107.32423216 0.12304783 108.1590414 C0 110 0 110 -1 111 C-3.30053835 111.09443335 -5.60402173 111.11742128 -7.90649414 111.11352539 C-8.62840439 111.11367142 -9.35031464 111.11381744 -10.09410095 111.1139679 C-12.49114947 111.11326869 -14.88812123 111.10547595 -17.28515625 111.09765625 C-18.94282489 111.0957921 -20.60049407 111.09436818 -22.25816345 111.09336853 C-26.62954214 111.08954312 -31.00088781 111.07971265 -35.37225342 111.06866455 C-39.82954461 111.05845092 -44.28684111 111.05387101 -48.74414062 111.04882812 C-57.49610893 111.0380904 -66.24805036 111.02101371 -75 111 C-73.65841717 107.55375018 -72.21111382 104.54455207 -70.19921875 101.4375 C-69.64089355 100.56907471 -69.08256836 99.70064941 -68.50732422 98.8059082 C-67.90678223 97.8799585 -67.30624023 96.95400879 -66.6875 96 C-65.41165138 94.01503532 -64.13693848 92.02934025 -62.86328125 90.04296875 C-62.21697754 89.03540527 -61.57067383 88.0278418 -60.90478516 86.98974609 C-58.01742182 82.4577477 -55.19297767 77.88785699 -52.375 73.3125 C-48.35207935 66.78673763 -44.2958584 60.28480851 -40.1875 53.8125 C-35.68292068 46.71341033 -31.25990879 39.56666437 -26.86358643 32.40005493 C-24.50732844 28.56095937 -22.14444322 24.7259422 -19.78125 20.89111328 C-18.68337442 19.10917214 -17.58674876 17.32645936 -16.4921875 15.54248047 C-15.27492475 13.5639836 -14.04655432 11.59305025 -12.8125 9.625 C-12.17957031 8.60664063 -11.54664063 7.58828125 -10.89453125 6.5390625 C-7.64566193 2.18490774 -5.54522116 0 0 0 Z " fill="#060606" transform="translate(212,120)"/>
<path d="M0 0 C1.58723113 0.00094586 3.17466791 0.03461824 4.76074219 0.09521484 C6.01742706 0.10794937 6.01742706 0.10794937 7.29949951 0.12094116 C9.97019149 0.15447661 12.6378413 0.22974947 15.30761719 0.30615234 C17.12007351 0.33625206 18.93257727 0.36362787 20.74511719 0.38818359 C25.18378579 0.4542676 29.62018614 0.55778493 34.05761719 0.68115234 C34.05761719 3.65115234 34.05761719 6.62115234 34.05761719 9.68115234 C26.79761719 9.68115234 19.53761719 9.68115234 12.05761719 9.68115234 C12.05761719 13.97115234 12.05761719 18.26115234 12.05761719 22.68115234 C18.98761719 22.68115234 25.91761719 22.68115234 33.05761719 22.68115234 C33.05761719 25.65115234 33.05761719 28.62115234 33.05761719 31.68115234 C26.45761719 31.68115234 19.85761719 31.68115234 13.05761719 31.68115234 C13.05761719 36.30115234 13.05761719 40.92115234 13.05761719 45.68115234 C20.31761719 45.68115234 27.57761719 45.68115234 35.05761719 45.68115234 C35.05761719 48.65115234 35.05761719 51.62115234 35.05761719 54.68115234 C24.49761719 54.68115234 13.93761719 54.68115234 3.05761719 54.68115234 C3.05761719 50.06115234 3.05761719 45.44115234 3.05761719 40.68115234 C-8.81297068 39.39664145 -8.81297068 39.39664145 -19.52880859 43.00439453 C-21.50193897 45.7722236 -22.71632431 48.71719857 -24.10253906 51.82177734 C-25.94238281 54.68115234 -25.94238281 54.68115234 -29.06347656 55.54052734 C-32.12052467 55.49811743 -34.94438275 55.26576236 -37.94238281 54.68115234 C-34.50455571 48.16113542 -30.62478986 42.00871684 -26.60107422 35.84228516 C-21.91213491 28.65558694 -17.30838881 21.41619739 -12.71411133 14.16870117 C-12.15135498 13.28206787 -11.58859863 12.39543457 -11.00878906 11.48193359 C-10.26544312 10.30884644 -10.26544312 10.30884644 -9.50708008 9.11206055 C-8.99072998 8.30986084 -8.47437988 7.50766113 -7.94238281 6.68115234 C-7.39864014 5.60422119 -6.85489746 4.52729004 -6.29467773 3.41772461 C-3.77680289 0.48852284 -3.57016682 0.27526813 0 0 Z " fill="#060606" transform="translate(103.9423828125,361.31884765625)"/>
<path d="M0 0 C4.77568316 2.52769347 7.70653973 6.22545658 9.86328125 11.078125 C11.42537941 17.71704216 11.18596491 22.51431872 7.87890625 28.44140625 C4.56642675 33.21587516 0.32041667 36.03467422 -5.38671875 37.265625 C-11.90552467 38.05467972 -17.01309561 37.14908374 -22.38671875 33.265625 C-27.23802583 28.62524431 -29.51155722 24.89983753 -29.76171875 18.078125 C-29.69183561 12.20017674 -28.24645298 8.65123562 -24.38671875 4.265625 C-23.93683594 3.73710937 -23.48695313 3.20859375 -23.0234375 2.6640625 C-17.16104929 -2.7590253 -7.22526448 -2.2231583 0 0 Z " fill="#090909" transform="translate(248.38671875,379.734375)"/>
<path d="M0 0 C3.3 0 6.6 0 10 0 C10.33 7.92 10.66 15.84 11 24 C11.99 23.01 12.98 22.02 14 21 C17.61930698 19.79356434 20.19231005 19.67731441 24 20 C28.53897416 22.31398683 32.18029883 25.15734427 34 30 C34.4924552 34.8009672 34.37568582 39.55543232 34.25 44.375 C34.23195312 45.68339844 34.21390625 46.99179687 34.1953125 48.33984375 C34.14829348 51.56064689 34.08258181 54.77994474 34 58 C30.7 58 27.4 58 24 58 C23.98018066 57.25838623 23.96036133 56.51677246 23.93994141 55.75268555 C23.84477072 52.39726166 23.73505906 49.04246714 23.625 45.6875 C23.5940625 44.52025391 23.563125 43.35300781 23.53125 42.15039062 C23.49257812 41.03212891 23.45390625 39.91386719 23.4140625 38.76171875 C23.3826416 37.73006592 23.3512207 36.69841309 23.31884766 35.63549805 C23.17325371 32.77156764 23.17325371 32.77156764 21 30 C16.41659013 29.42529981 16.41659013 29.42529981 12.30932617 31.16333008 C10.48333492 33.72475692 10.56766442 35.63402174 10.48828125 38.76171875 C10.45283203 39.87998047 10.41738281 40.99824219 10.38085938 42.15039062 C10.34702148 43.90125977 10.34702148 43.90125977 10.3125 45.6875 C10.27833984 46.86634766 10.24417969 48.04519531 10.20898438 49.25976562 C10.12642075 52.17308225 10.05729678 55.08609466 10 58 C6.7 58 3.4 58 0 58 C0 38.86 0 19.72 0 0 Z " fill="#0F0F0F" transform="translate(177,358)"/>
<path d="M0 0 C-0.56371414 3.26954202 -1.49962266 4.82575883 -4 7 C-5.0209375 6.505 -5.0209375 6.505 -6.0625 6 C-9.50840238 4.82692685 -12.38397422 4.85819507 -16 5 C-16.33 6.32 -16.66 7.64 -17 9 C-15.96359375 9.30292969 -14.9271875 9.60585938 -13.859375 9.91796875 C-12.4893069 10.34025001 -11.11953013 10.76347727 -9.75 11.1875 C-9.06808594 11.38408203 -8.38617188 11.58066406 -7.68359375 11.78320312 C-3.03034007 13.25146278 -0.5229222 14.80150068 2 19 C3.03281247 23.00974255 2.4280072 26.19748649 0.5 29.8125 C-4.80697892 34.45610655 -10.64195423 35.55365035 -17.58984375 35.37109375 C-21.39812024 34.78473027 -23.8577228 33.18593197 -27 31 C-27 27 -27 27 -25.125 24.75 C-23 23 -23 23 -21 23 C-20.608125 23.474375 -20.21625 23.94875 -19.8125 24.4375 C-17.10097215 26.775024 -14.49311288 26.74595543 -11 27 C-10.34 26.67 -9.68 26.34 -9 26 C-8.34444881 23.47266765 -8.34444881 23.47266765 -8 21 C-8.88042969 20.82984375 -9.76085937 20.6596875 -10.66796875 20.484375 C-11.82941406 20.24203125 -12.99085938 19.9996875 -14.1875 19.75 C-15.33605469 19.51796875 -16.48460937 19.2859375 -17.66796875 19.046875 C-21.25127647 17.92105265 -23.28419067 16.56189692 -26 14 C-27.61847231 10.76305537 -27.57231315 7.49891451 -27 4 C-24.71541013 0.37153374 -22.99557368 -1.52385607 -19.125 -3.375 C-11.37627787 -4.92474443 -6.84127948 -3.42063974 0 0 Z " fill="#0B0B0B" transform="translate(292,382)"/>
<path d="M0 0 C2.97 0 5.94 0 9 0 C9 3.3 9 6.6 9 10 C12.3 10 15.6 10 19 10 C19 12.64 19 15.28 19 18 C15.7 18 12.4 18 9 18 C9.33 24.93 9.66 31.86 10 39 C12.97 39 15.94 39 19 39 C19 41.64 19 44.28 19 47 C15.06237991 48.96881005 10.29233883 48.45834498 6 48 C2.38308725 45.90219061 1.31708591 44.95125774 0 41 C-0.08209792 39.22686149 -0.10746294 37.45079225 -0.09765625 35.67578125 C-0.09282227 34.13374023 -0.09282227 34.13374023 -0.08789062 32.56054688 C-0.07951172 31.48869141 -0.07113281 30.41683594 -0.0625 29.3125 C-0.05798828 28.22904297 -0.05347656 27.14558594 -0.04882812 26.02929688 C-0.03703743 23.35280915 -0.02058063 20.67643223 0 18 C-2.64 18 -5.28 18 -8 18 C-8 15.36 -8 12.72 -8 10 C-5.36 10 -2.72 10 0 10 C0 6.7 0 3.4 0 0 Z " fill="#060606" transform="translate(151,369)"/>
<path d="M0 0 C2.8100346 1.79363911 4.50940468 3.01880935 6 6 C6.55512815 10.63213493 6.6364242 13.98172127 4.125 18 C0.89571928 21.03932303 -1.44480358 21.3917956 -5.89453125 21.359375 C-9.61593453 20.72418186 -11.40312849 18.66020984 -14 16 C-15.43304064 13.13391871 -15.30644155 11.18699217 -15 8 C-11.32291476 1.40660579 -7.6558913 -1.25359624 0 0 Z " fill="#F8F8F8" transform="translate(243,387)"/>
<path d="M0 0 C0.66 0 1.32 0 2 0 C2 7.59 2 15.18 2 23 C-2.95 23 -7.9 23 -13 23 C-10.93174236 17.82935589 -8.39035032 13.41886157 -5.5 8.6875 C-5.00113281 7.85154297 -4.50226563 7.01558594 -3.98828125 6.15429688 C-3.50746094 5.36474609 -3.02664062 4.57519531 -2.53125 3.76171875 C-2.09361328 3.03944092 -1.65597656 2.31716309 -1.20507812 1.57299805 C-0.80740234 1.05390869 -0.40972656 0.53481934 0 0 Z " fill="#E7E7E7" transform="translate(105,371)"/>
<path d="M0 0 C6.54989207 -0.4010138 10.26225644 1.13112822 16 4 C15.43628586 7.26954202 14.50037734 8.82575883 12 11 C8.22699642 9.9802693 7.19793856 9.34127338 5.1875 5.875 C4.5996875 4.451875 4.5996875 4.451875 4 3 C4.33 2.67 4.66 2.34 5 2 C3.35 1.67 1.7 1.34 0 1 C0 0.67 0 0.34 0 0 Z " fill="#111111" transform="translate(276,378)"/>
</svg>
