<svg xmlns="http://www.w3.org/2000/svg" viewBox="0 0 563 740" fill="none" aria-hidden="true">
	<path d="M 417.355 1.022 C 398.176 3.448, 371.039 11.494, 353.500 19.954 C 330.393 31.099, 308.768 49.093, 293.296 70.046 C 280.153 87.846, 272.229 92.892, 246.500 99.846 C 129.166 131.560, 53.001 208.660, 15.009 334.176 C 5.130 366.816, 0.687 397.570, 0.590 434 C 0.478 476.127, 5.960 508.663, 20.052 549.500 C 57.506 658.043, 132.926 718.774, 252.500 736.675 C 271.658 739.543, 321.186 739.269, 342 736.179 C 397.651 727.918, 438.080 713.560, 476 688.592 C 523.509 657.309, 550.646 620.517, 546.138 593.500 C 540.931 562.298, 507.186 544.394, 478.750 557.746 C 470.728 561.513, 467.738 564.100, 457.185 576.405 C 423.659 615.500, 393.118 632.530, 343.262 639.930 C 284.684 648.626, 237.673 643.444, 199.077 624.039 C 147.877 598.296, 111.202 542.170, 100.384 473 C 97.893 457.073, 97.879 421.334, 100.358 404.500 C 109.958 339.315, 133.094 289.679, 171.928 250.960 C 194.471 228.483, 216.060 213.866, 243 202.840 L 254.500 198.133 255.212 201.317 C 255.604 203.068, 256.868 211.250, 258.023 219.500 C 264.922 268.808, 276.604 297.873, 304.043 334 C 340.781 382.368, 388.531 405.909, 445.465 403.722 C 488.280 402.077, 520.431 385.208, 541.713 353.223 C 559.658 326.254, 567.292 283.886, 560.490 249.019 C 555.755 224.750, 541.593 195.299, 524.175 173.500 C 501.430 145.034, 476.497 127.666, 431.500 108.942 C 420.500 104.365, 411.305 100.473, 411.067 100.294 C 410.828 100.114, 411.175 99.425, 411.837 98.763 C 412.729 97.871, 422.187 97.552, 448.316 97.530 L 483.592 97.500 491.248 93.719 C 500.559 89.121, 506.882 83.016, 511.004 74.644 C 520.818 54.708, 513.797 26.420, 496.238 15.153 C 480.949 5.342, 440.492 -1.906, 417.355 1.022 M 472.242 17.750 C 470.467 18.712, 425.732 52.800, 372.831 93.500 C 319.929 134.200, 275.190 168.502, 273.411 169.726 C 267.784 173.598, 262.484 174.170, 248.796 172.381 C 222.980 169.006, 205.099 171.784, 183.500 182.527 C 168.287 190.094, 157.185 198.687, 138.406 217.434 C 120.470 235.338, 109.646 248.432, 97.431 267 C 62.812 319.625, 46.005 375.674, 46.001 438.506 C 45.998 499.176, 60.212 548.186, 94.627 606.168 C 113.864 638.578, 122.190 656.928, 125.652 674.548 C 128.241 687.724, 128.954 688.333, 159.556 703.499 C 178.368 712.821, 186.295 716.248, 190.095 716.698 L 195.227 717.306 194.502 712.903 C 194.103 710.481, 193.214 707.150, 192.527 705.500 C 191.840 703.850, 177.253 687.270, 160.110 668.656 C 120.501 625.646, 112.142 615.642, 97.314 593.500 C 61.891 540.602, 47.853 484.915, 51.896 413.323 C 52.604 400.770, 53.357 390.323, 53.568 390.107 C 53.779 389.892, 54.572 390.230, 55.330 390.859 C 56.432 391.774, 56.833 399.172, 57.329 427.751 C 58.138 474.357, 59.495 485.597, 67.060 508.354 C 71.275 521.033, 84.087 547.223, 88.975 553.154 C 94.450 559.796, 98.322 558.527, 103.735 548.314 C 109.181 538.040, 109.428 535.650, 106.429 522.269 C 104.978 515.796, 101.573 503.649, 98.863 495.276 C 93.374 478.317, 91.690 476.064, 83.060 474.125 C 69.992 471.189, 66.236 460.150, 65.325 422 C 64.700 395.810, 66.064 379.275, 70.647 357.500 C 80.725 309.609, 107.224 261.983, 144.989 223.888 C 162.104 206.622, 178.088 197.039, 189.816 197.012 C 196.406 196.997, 197.947 197.790, 205.735 205.202 C 209.651 208.930, 212.440 210.868, 213.235 210.414 C 219.347 206.920, 226.928 200.588, 227.948 198.125 C 230.989 190.785, 224.977 187.269, 207.148 185.962 C 200.742 185.493, 195.275 185.050, 195 184.978 C 193.814 184.668, 208.164 180.759, 215.240 179.464 C 222.645 178.109, 228.885 178.465, 234.280 180.549 C 239.345 182.506, 291.025 225.333, 294.229 230.230 C 301.536 241.394, 345.905 328.718, 348.500 337.041 C 349.643 340.708, 350.277 346.604, 350.429 355 C 350.771 373.847, 352.681 376.623, 371.799 386.054 C 388.572 394.328, 393.030 393.992, 395.041 384.300 C 395.944 379.952, 395.952 376.934, 395.074 371.619 C 393.214 360.354, 388.879 353.518, 372.682 336.304 C 356.246 318.836, 356.561 319.329, 311.428 240.481 C 284.782 193.931, 283.856 191.913, 285.383 183.773 C 286.679 176.866, 295.707 168.303, 338.667 133.232 C 361.675 114.449, 386.575 94.070, 394 87.944 C 422.224 64.662, 447.938 46.604, 468.005 35.972 C 473.686 32.962, 480.378 28.635, 482.877 26.355 C 486.996 22.597, 487.283 22.046, 485.960 20.450 C 484.444 18.622, 479.027 16, 476.767 16 C 476.053 16, 474.017 16.788, 472.242 17.750 M 495 34.444 C 488.782 36.726, 462.786 50.090, 452.500 56.293 C 409.808 82.037, 358.151 122.588, 312.349 166.311 C 295.844 182.068, 295.638 184.515, 308.292 214.500 C 325.994 256.448, 327.314 258.996, 335.398 266.835 C 342.890 274.100, 346.066 275.702, 350.679 274.544 C 354.396 273.611, 360.671 268.964, 361.942 266.203 C 364.543 260.555, 361.952 251.650, 356.927 248.961 C 355.501 248.198, 352.578 248.026, 348.482 248.465 C 341.352 249.229, 335.543 248.001, 331.597 244.898 C 327.840 241.942, 324.718 235.270, 318.889 217.740 C 311.272 194.830, 311.948 186.236, 322.532 171.403 C 329.706 161.349, 340.394 152.734, 359 142.006 C 363.125 139.628, 374.974 132.122, 385.331 125.327 L 404.162 112.971 399.866 107.840 L 395.570 102.709 400.035 98.732 C 407.397 92.174, 427.394 79.446, 441.898 72.087 C 461.414 62.184, 477.289 56.069, 496.809 50.935 C 506.745 48.321, 508.876 46.184, 507.052 40.659 C 505.028 34.524, 500.768 32.328, 495 34.444 M 428.109 121.796 C 426.900 124.055, 426.605 134.725, 427.545 142.161 C 429.015 153.780, 426.707 155.492, 408.500 156.281 C 394.706 156.879, 389.531 158.492, 385.055 163.590 C 378.388 171.184, 378.978 179.170, 386.711 185.976 C 393.432 191.893, 397.285 191.667, 403.611 184.986 C 409.278 179.001, 414.955 176.086, 429 171.952 C 434.775 170.252, 441.411 167.749, 443.747 166.390 C 449.700 162.927, 457.039 153.694, 462.480 142.827 L 467.111 133.575 457.306 128.650 C 440.361 120.139, 430.264 117.769, 428.109 121.796 M 490.500 171.866 C 488.300 172.868, 484.745 175.634, 482.600 178.013 L 478.700 182.338 480.930 184.144 C 488.343 190.147, 499.345 188.630, 507 180.550 L 510.500 176.855 507.748 174.474 C 505.138 172.216, 499.263 169.992, 496 170.028 C 495.175 170.037, 492.700 170.864, 490.500 171.866 M 342.361 183.853 C 329.441 193.213, 330.543 211.110, 344.250 214.531 L 347 215.217 347 198.108 C 347 188.699, 346.843 181, 346.650 181 C 346.458 181, 344.528 182.284, 342.361 183.853 M 436.324 183.379 C 425.062 187.064, 419.101 194.875, 421.911 202.265 C 423.110 205.419, 425.440 206.769, 431.707 207.940 C 435.807 208.706, 436.984 208.513, 440.472 206.508 C 450.478 200.755, 457.817 202.661, 468.892 213.891 C 482.027 227.209, 491.401 244.152, 494.049 259.361 C 495.780 269.301, 494.798 288.854, 492.159 297 C 486.468 314.563, 472.728 329.255, 456.461 335.171 C 448.449 338.085, 433.312 338.752, 422.310 336.677 C 402.364 332.915, 392.286 323.478, 388.421 304.943 C 387.262 299.386, 385.888 296.240, 382.698 291.844 C 380.389 288.662, 378.187 286.045, 377.805 286.029 C 376.526 285.976, 369.134 297.112, 368.484 300.071 C 366.408 309.523, 382.988 333.647, 396.081 340.224 C 405.719 345.066, 412.746 346.266, 428.439 345.752 C 440.138 345.368, 444.012 344.823, 451.500 342.508 C 465.986 338.029, 467.897 337.564, 468.663 338.330 C 470.165 339.832, 465.121 343.054, 453.504 348.014 C 427.884 358.951, 424.020 362.983, 424.006 378.790 C 423.991 394.806, 437.551 403.415, 455.623 398.865 C 462.681 397.087, 463.592 394.810, 460.513 386.632 C 458.670 381.735, 458.003 378.027, 458.010 372.727 C 458.024 362.253, 460.471 357.769, 473.996 343.432 C 497.625 318.384, 509.067 301.554, 516.441 281 C 519.415 272.710, 521.497 269.988, 527.622 266.385 C 531.183 264.290, 532.829 263.992, 539.724 264.192 C 548.706 264.452, 552.490 262.881, 553.608 258.426 C 555.013 252.828, 548.405 229.599, 544.013 224.699 L 541.146 221.500 528.323 221.615 C 505.110 221.824, 503.059 223.561, 505.065 241.320 C 505.697 246.919, 506.205 258.025, 506.193 266 C 506.175 278.596, 505.787 282.076, 503.240 292.500 C 500.771 302.604, 500.007 304.500, 498.404 304.500 C 497.357 304.500, 496.617 303.923, 496.761 303.217 C 498.287 295.718, 500.147 276.358, 500.145 268 C 500.140 246.488, 491.354 227.104, 467.313 195.561 C 462.935 189.818, 459.146 185.933, 456.711 184.693 C 451.883 182.234, 441.808 181.585, 436.324 183.379 M 355.406 192.250 C 352.537 204.642, 358.479 233.774, 367.920 253.593 C 374.865 268.175, 381.914 278.125, 393.450 289.632 C 402.313 298.473, 404.811 300.343, 413.054 304.305 C 432.300 313.556, 448.421 313.935, 456.212 305.320 C 464.701 295.932, 464.932 270.781, 456.685 253.650 C 441.258 221.601, 410.269 199.206, 369.991 190.998 C 356.740 188.298, 356.313 188.335, 355.406 192.250 M 167.500 217.207 C 163.783 219.339, 145.549 235.339, 138.170 242.945 C 118.456 263.264, 105.434 286.339, 92.709 323.500 C 87.407 338.985, 86.510 343.573, 88.008 347.545 C 89.242 350.816, 94.795 357.018, 96.446 356.968 C 98.398 356.909, 106.724 343.573, 110.473 334.500 C 124.139 301.426, 143.918 271.116, 169.500 244.047 C 181.341 231.518, 182.512 228.885, 179.167 222.327 C 176.379 216.862, 171.691 214.805, 167.500 217.207 M 523.437 306.817 C 519.642 309.203, 513.840 316.018, 502.541 331.361 C 490.124 348.220, 489.531 349.998, 493.119 359.590 C 496.096 367.546, 503.364 375, 508.145 375 C 517.801 375, 533.353 357.976, 544.088 335.654 C 550.163 323.023, 550.499 318.777, 545.845 313.476 C 539.608 306.373, 529.106 303.252, 523.437 306.817 M 519.831 572.525 C 516.615 574.199, 511.490 579.086, 503.362 588.228 C 462.539 634.144, 439.299 652.305, 403.500 666.265 C 355.851 684.845, 288.033 687.424, 242.121 672.403 C 221.006 665.495, 196.431 651.840, 188.121 642.401 C 184.160 637.900, 182.089 633.535, 180.014 625.315 C 179.114 621.750, 176.580 618.841, 162.903 605.682 C 154.072 597.186, 144.689 589.060, 142.052 587.625 L 137.256 585.014 135.925 589.757 C 134.186 595.954, 134.341 606.571, 136.237 611.061 C 140.364 620.838, 166.655 647.590, 180.607 656.210 C 217.671 679.108, 254.158 689.400, 298.500 689.464 C 326.890 689.504, 348.802 686.485, 380.975 678.101 C 389.566 675.863, 392.644 675.411, 393.219 676.305 C 395.322 679.571, 380.765 684.926, 356 689.996 C 332.379 694.833, 318.199 696.192, 288.500 696.468 C 273.650 696.606, 258.449 697.061, 254.721 697.479 C 248.422 698.185, 247.985 698.390, 248.565 700.370 C 251.210 709.400, 264.345 723.460, 275.009 728.674 C 284.397 733.264, 291.897 734.345, 308.813 733.548 C 322.807 732.889, 374.605 726.728, 375.745 725.588 C 376.062 725.271, 374.674 721.502, 372.661 717.212 C 370.647 712.921, 369 708.259, 369 706.852 C 369 702.005, 371.534 700.197, 404.500 681.533 C 411.100 677.797, 434.921 662.535, 457.436 647.620 C 492.122 624.640, 501.433 618.973, 518.428 610.500 C 540.329 599.581, 541.914 598.240, 539.614 592.573 C 538.198 589.085, 534.599 588.077, 530.799 590.103 C 529.535 590.777, 519.545 597.105, 508.601 604.164 C 497.656 611.224, 488.206 616.979, 487.601 616.954 C 486.995 616.929, 494.844 608.716, 505.042 598.704 C 522.985 581.087, 528.670 574.189, 527.583 571.355 C 526.859 569.468, 525.227 569.714, 519.831 572.525 M 498.500 631.817 C 484.370 636.009, 472.532 644.772, 467.014 655.125 C 461.359 665.735, 462.782 673.090, 471.310 677.330 C 478.190 680.751, 481.819 678.420, 508.891 653.197 C 522.362 640.646, 528.608 633.208, 527.013 631.613 C 525.072 629.672, 505.253 629.813, 498.500 631.817" stroke="none" fill="#000000" fill-rule="evenodd"/>
</svg>