<?xml version="1.0" encoding="UTF-8"?>
<svg version="1.1" xmlns="http://www.w3.org/2000/svg" width="2892" height="174">
<path d="M0 0 C17.551875 -0.020625 35.10375 -0.04125 53.1875 -0.0625 C58.68688232 -0.071604 64.18626465 -0.08070801 69.85229492 -0.09008789 C76.6763916 -0.09460449 76.6763916 -0.09460449 79.89204407 -0.09544373 C82.09195662 -0.09695842 84.29186845 -0.1004308 86.49177551 -0.10557556 C97.86816723 -0.13080218 109.22486159 -0.08791233 120.59106445 0.43579102 C121.42254848 0.473599 122.2540325 0.51140699 123.11071301 0.55036068 C139.5890501 1.41138218 154.89826306 5.02996293 167.1015625 16.84765625 C176.1211719 27.07359201 178.68253358 38.85178623 178.33984375 52.2578125 C177.37009554 62.93618938 173.8389424 71.56582227 166 79 C160.20665351 83.31935495 153.65986335 86.26527351 147 89 C147.85271484 89.34611328 147.85271484 89.34611328 148.72265625 89.69921875 C159.19140462 94.12091047 165.78753787 99.1215683 170.19140625 109.921875 C176.14550881 128.28951241 175.35730413 148.93335582 176 168 C166.1 168 156.2 168 146 168 C145.72736328 164.31070313 145.72736328 164.31070313 145.44921875 160.546875 C145.26296505 158.12382305 145.07317338 155.70107187 144.88305664 153.27832031 C144.75436903 151.61453893 144.62927065 149.95047538 144.50805664 148.28613281 C143.05134948 126.194484 143.05134948 126.194484 131.1875 108.125 C123.20697221 102.80464814 114.20259691 101.86736426 104.79150391 101.79467773 C103.59050049 101.77982834 103.59050049 101.77982834 102.36523438 101.76467896 C99.7357065 101.73325391 97.1061606 101.70838216 94.4765625 101.68359375 C92.64667305 101.66300779 90.81678818 101.6420109 88.98690796 101.62062073 C84.18328574 101.56556958 79.37962182 101.51608588 74.57592773 101.46777344 C68.80553145 101.4085752 63.03521097 101.34244098 57.26487732 101.27747345 C48.50996472 101.17967744 39.75500229 101.09067543 31 101 C31 123.11 31 145.22 31 168 C15.655 168.495 15.655 168.495 0 169 C0 113.23 0 57.46 0 0 Z M31 23 C31 40.82 31 58.64 31 77 C42.82421643 77.02918985 42.82421643 77.02918985 54.6484375 77.04882812 C59.48633958 77.05475602 64.32422237 77.06169018 69.16210938 77.07543945 C107.72760741 79.84443877 107.72760741 79.84443877 141.609375 66.47265625 C147.61529957 59.04752348 147.69707708 52.29793581 147 43 C146.33716882 40.15998613 145.52590892 38.56134711 144 36 C143.2265625 34.700625 143.2265625 34.700625 142.4375 33.375 C129.10993196 20.38916448 106.2787581 22.84563811 89.10546875 22.90234375 C87.4201105 22.90421368 85.73475169 22.90563486 84.0493927 22.90663147 C79.65846195 22.91041143 75.26756539 22.92020194 70.87664795 22.93133545 C65.58420264 22.94346775 60.29174576 22.94797338 54.99929047 22.95378876 C46.99950336 22.96341705 38.99979094 22.98260495 31 23 Z " fill="#000000" transform="translate(2332,2)"/>
<path d="M0 0 C35.64966916 0 35.64966916 0 43.72372437 7.74227905 C44.76144704 8.89313326 45.79749818 10.04549648 46.83203125 11.19921875 C48.03180586 12.40806207 49.23875453 13.60981912 50.45205688 14.80508423 C53.67033407 18.01432511 56.78145113 21.31088334 59.87995529 24.63534927 C63.15459965 28.11266278 66.52272612 31.4971579 69.88110352 34.89331055 C76.20115309 41.31208187 82.43532156 47.80774598 88.6412859 54.3366766 C97.04930131 63.17232904 105.5872729 71.88055639 114.11800766 80.59746933 C127.51917891 94.29784741 140.74156357 108.1580627 154 122 C154.495 61.61 154.495 61.61 155 0 C164.9 0 174.8 0 185 0 C185 54.45 185 108.9 185 165 C156 165 156 165 147.28149414 158.58789062 C145.03811836 156.27998352 145.03811836 156.27998352 143.34182739 154.13208008 C140.19349004 150.33435725 136.88573069 146.78739268 133.36251831 143.33862305 C132.85847196 142.84517159 132.35442561 142.35172013 131.83510512 141.8433156 C130.78389978 140.81576405 129.73221207 139.78870577 128.68007076 138.76211262 C125.91672846 136.05261142 123.18691576 133.30979021 120.45518494 130.56848145 C119.3089095 129.41960049 118.16259182 128.2707617 117.01623344 127.1219635 C116.43866696 126.5429661 115.86110048 125.9639687 115.26603198 125.36742592 C112.25838144 122.35342393 109.2478023 119.34234976 106.23756409 116.33093262 C100.56601285 110.65630219 94.89701008 104.9791332 89.22897345 99.30099249 C81.54959231 91.60822606 73.86616882 83.91949918 66.18299961 76.23051643 C54.11874499 64.15692499 42.05980307 52.07804172 30 40 C29.67 81.25 29.34 122.5 29 165 C19.43 165 9.86 165 0 165 C0 110.55 0 56.1 0 0 Z " fill="#000000" transform="translate(1394,6)"/>
<path d="M0 0 C0.71897461 0.16628906 1.43794922 0.33257812 2.17871094 0.50390625 C17.69367931 4.24245285 31.56724925 10.95052415 44 21 C44.76570312 21.59039063 45.53140625 22.18078125 46.3203125 22.7890625 C61.39015365 35.12847947 69.45636739 53.00000652 72 72 C73.97499527 93.23015968 69.18323274 113.50193417 56 130.5 C54.69055207 132.02089575 53.35794124 133.52224042 52 135 C51.36320313 135.70511719 50.72640625 136.41023437 50.0703125 137.13671875 C31.92447214 156.26636974 3.88179264 166.05339493 -22.04516602 167.12597656 C-50.22984643 167.76328311 -74.18152188 164.67813321 -99 151 C-100.48113281 150.20142578 -100.48113281 150.20142578 -101.9921875 149.38671875 C-113.87346155 142.44736593 -123.43205244 132.01409692 -130 120 C-130.45761719 119.2265625 -130.91523437 118.453125 -131.38671875 117.65625 C-140.52176377 101.19670942 -141.88711561 79.63600214 -137.5 61.5 C-130.94512522 39.46009002 -117.55099394 23.08113382 -97.43847656 11.86474609 C-68.15936168 -3.9497357 -32.36467664 -7.58710463 0 0 Z M-93.44921875 43.06640625 C-102.8430688 54.7791412 -109.63754093 69.65465677 -108 85 C-105.39181329 103.89749827 -96.6070373 117.72159183 -81.8125 129.3125 C-62.4832256 142.5102976 -38.77966097 145.98414524 -15.87890625 142.2734375 C2.42793042 138.74176644 18.86810103 130.70525074 29.9765625 115.25 C39.3597489 100.23690177 41.37691668 83.38017142 38.3046875 66.0859375 C33.5445477 49.32544525 23.80461779 37.46740841 8.79492188 28.96191406 C-22.50531312 12.18784906 -68.64929018 16.42032915 -93.44921875 43.06640625 Z " fill="#000000" transform="translate(934,5)"/>
<path d="M0 0 C0.71897461 0.16628906 1.43794922 0.33257812 2.17871094 0.50390625 C17.69367931 4.24245285 31.56724925 10.95052415 44 21 C44.76570313 21.59039063 45.53140625 22.18078125 46.3203125 22.7890625 C61.15934254 34.93948779 69.68850943 53.16421731 72 72 C73.68449713 93.37348389 69.3085457 113.34035938 56 130.5 C54.69055207 132.02089575 53.35794124 133.52224042 52 135 C51.36320312 135.70511719 50.72640625 136.41023437 50.0703125 137.13671875 C31.92447214 156.26636974 3.88179264 166.05339493 -22.04516602 167.12597656 C-50.22984643 167.76328311 -74.18152188 164.67813321 -99 151 C-100.48113281 150.20142578 -100.48113281 150.20142578 -101.9921875 149.38671875 C-113.87346155 142.44736593 -123.43205244 132.01409692 -130 120 C-130.45761719 119.2265625 -130.91523437 118.453125 -131.38671875 117.65625 C-140.52176377 101.19670942 -141.88711561 79.63600214 -137.5 61.5 C-130.94512522 39.46009002 -117.55099394 23.08113382 -97.43847656 11.86474609 C-68.15936168 -3.9497357 -32.36467664 -7.58710463 0 0 Z M-93.44921875 43.06640625 C-102.8430688 54.7791412 -109.63754093 69.65465677 -108 85 C-105.39181329 103.89749827 -96.6070373 117.72159183 -81.8125 129.3125 C-62.4832256 142.5102976 -38.77966097 145.98414524 -15.87890625 142.2734375 C2.42793042 138.74176644 18.86810103 130.70525074 29.9765625 115.25 C39.3597489 100.23690177 41.37691668 83.38017142 38.3046875 66.0859375 C33.5445477 49.32544525 23.80461779 37.46740841 8.79492188 28.96191406 C-22.50531312 12.18784906 -68.64929018 16.42032915 -93.44921875 43.06640625 Z " fill="#000000" transform="translate(2022,5)"/>
<path d="M0 0 C2.20499679 2.26280569 4.15503511 4.64181014 6.0859375 7.140625 C3.0764717 10.36608117 -0.09718627 12.7357387 -3.7890625 15.140625 C-4.79710937 15.800625 -5.80515625 16.460625 -6.84375 17.140625 C-7.85695313 17.800625 -8.87015625 18.460625 -9.9140625 19.140625 C-11.91724615 20.46925561 -13.91585486 21.80451004 -15.9140625 23.140625 C-19.64905065 21.60569836 -21.80928965 19.32490852 -24.5390625 16.390625 C-39.49487325 1.19429683 -62.55389289 -4.74307744 -83.45849609 -5.10083008 C-100.36687084 -5.16282391 -119.74311995 -3.68369009 -133.32421875 7.54296875 C-136.92451113 11.16095298 -138.69241756 14.56140481 -139.4140625 19.703125 C-138.78214527 24.04755593 -137.88902549 25.8823322 -134.9140625 29.140625 C-120.50974804 39.43358655 -96.99234292 38.68582653 -80.1015625 40.640625 C-51.14024058 44.00638537 -51.14024058 44.00638537 -40.09375 45.71484375 C-39.36717697 45.82505859 -38.64060394 45.93527344 -37.89201355 46.04882812 C-22.00165777 48.61510264 -5.87220988 55.28550748 3.91015625 68.62890625 C10.12457314 78.54488866 11.53380815 88.3803992 9.62109375 99.953125 C7.40562846 108.34305271 2.57148008 115.42717082 -3.9140625 121.140625 C-4.44128906 121.60984375 -4.96851563 122.0790625 -5.51171875 122.5625 C-28.70103588 141.66537695 -67.93291546 141.05733107 -96.1015625 138.390625 C-124.69776164 135.32044601 -152.45992543 127.39809676 -172.9140625 106.140625 C-171.5299731 102.85699525 -170.09532742 101.24693943 -167.17578125 99.23046875 C-166.06879883 98.45799805 -166.06879883 98.45799805 -164.93945312 97.66992188 C-164.16794922 97.14462891 -163.39644531 96.61933594 -162.6015625 96.078125 C-161.84166016 95.54896484 -161.08175781 95.01980469 -160.29882812 94.47460938 C-156.5763214 91.89699178 -152.83869013 89.40453196 -148.9140625 87.140625 C-148.20056641 87.85025391 -148.20056641 87.85025391 -147.47265625 88.57421875 C-125.95322652 108.90472971 -96.41597981 114.57897186 -67.625 114.29296875 C-51.69583559 113.63903463 -36.38389546 111.13696631 -24.4140625 99.765625 C-22.39649725 96.23488582 -21.72988704 93.2004927 -21.9140625 89.140625 C-23.67074784 83.65098332 -27.17429732 80.22190881 -31.9140625 77.140625 C-49.20767729 68.56599463 -71.6201906 68.47490296 -90.43383789 66.26831055 C-147.18188965 59.5803487 -147.18188965 59.5803487 -163.15234375 42.37890625 C-170.18217084 33.44744079 -171.11629669 24.09556271 -169.9140625 13.140625 C-168.25400219 6.10159834 -164.58763138 0.56469399 -159.9140625 -4.859375 C-159.43582031 -5.44332031 -158.95757813 -6.02726562 -158.46484375 -6.62890625 C-143.83401109 -22.95499911 -118.34086417 -27.48517116 -97.46875 -28.734375 C-62.032043 -29.98050096 -27.01760893 -24.89677273 0 0 Z " fill="#000000" transform="translate(1852.9140625,33.859375)"/>
<path d="M0 0 C2.20499679 2.26280569 4.15503511 4.64181014 6.0859375 7.140625 C3.0764717 10.36608117 -0.09718627 12.7357387 -3.7890625 15.140625 C-4.79710937 15.800625 -5.80515625 16.460625 -6.84375 17.140625 C-7.85695313 17.800625 -8.87015625 18.460625 -9.9140625 19.140625 C-11.91724615 20.46925561 -13.91585486 21.80451004 -15.9140625 23.140625 C-19.64905065 21.60569836 -21.80928965 19.32490852 -24.5390625 16.390625 C-39.49487325 1.19429683 -62.55389289 -4.74307744 -83.45849609 -5.10083008 C-100.36687084 -5.16282391 -119.74311995 -3.68369009 -133.32421875 7.54296875 C-136.92451113 11.16095298 -138.69241756 14.56140481 -139.4140625 19.703125 C-138.78214527 24.04755593 -137.88902549 25.8823322 -134.9140625 29.140625 C-120.50974804 39.43358655 -96.99234292 38.68582653 -80.1015625 40.640625 C-51.14024058 44.00638537 -51.14024058 44.00638537 -40.09375 45.71484375 C-39.36717697 45.82505859 -38.64060394 45.93527344 -37.89201355 46.04882812 C-22.00165777 48.61510264 -5.87220988 55.28550748 3.91015625 68.62890625 C10.12457314 78.54488866 11.53380815 88.3803992 9.62109375 99.953125 C7.40562846 108.34305271 2.57148008 115.42717082 -3.9140625 121.140625 C-4.44128906 121.60984375 -4.96851563 122.0790625 -5.51171875 122.5625 C-28.70103588 141.66537695 -67.93291546 141.05733107 -96.1015625 138.390625 C-124.69776164 135.32044601 -152.45992543 127.39809676 -172.9140625 106.140625 C-171.5299731 102.85699525 -170.09532742 101.24693943 -167.17578125 99.23046875 C-166.06879883 98.45799805 -166.06879883 98.45799805 -164.93945312 97.66992188 C-164.16794922 97.14462891 -163.39644531 96.61933594 -162.6015625 96.078125 C-161.84166016 95.54896484 -161.08175781 95.01980469 -160.29882812 94.47460938 C-156.5763214 91.89699178 -152.83869013 89.40453196 -148.9140625 87.140625 C-148.20056641 87.85025391 -148.20056641 87.85025391 -147.47265625 88.57421875 C-125.95322652 108.90472971 -96.41597981 114.57897186 -67.625 114.29296875 C-51.69583559 113.63903463 -36.38389546 111.13696631 -24.4140625 99.765625 C-22.39649725 96.23488582 -21.72988704 93.2004927 -21.9140625 89.140625 C-23.67074784 83.65098332 -27.17429732 80.22190881 -31.9140625 77.140625 C-49.20767729 68.56599463 -71.6201906 68.47490296 -90.43383789 66.26831055 C-147.18188965 59.5803487 -147.18188965 59.5803487 -163.15234375 42.37890625 C-170.18217084 33.44744079 -171.11629669 24.09556271 -169.9140625 13.140625 C-168.25400219 6.10159834 -164.58763138 0.56469399 -159.9140625 -4.859375 C-159.43582031 -5.44332031 -158.95757812 -6.02726562 -158.46484375 -6.62890625 C-143.83401109 -22.95499911 -118.34086417 -27.48517116 -97.46875 -28.734375 C-62.032043 -29.98050096 -27.01760893 -24.89677273 0 0 Z " fill="#000000" transform="translate(526.9140625,33.859375)"/>
<path d="M0 0 C47.85 0 95.7 0 145 0 C145 7.59 145 15.18 145 23 C106.72 23 68.44 23 29 23 C29 38.51 29 54.02 29 70 C63.65 70 98.3 70 134 70 C134 77.59 134 85.18 134 93 C99.35 93 64.7 93 29 93 C29 109.17 29 125.34 29 142 C67.28 142 105.56 142 145 142 C145 149.92 145 157.84 145 166 C97.15 166 49.3 166 0 166 C0 111.22 0 56.44 0 0 Z " fill="#000000" transform="translate(2746,5)"/>
<path d="M0 0 C47.85 0 95.7 0 145 0 C145 7.59 145 15.18 145 23 C106.72 23 68.44 23 29 23 C29 38.51 29 54.02 29 70 C63.65 70 98.3 70 134 70 C134 77.59 134 85.18 134 93 C99.35 93 64.7 93 29 93 C29 109.17 29 125.34 29 142 C67.28 142 105.56 142 145 142 C145 149.92 145 157.84 145 166 C97.15 166 49.3 166 0 166 C0 111.22 0 56.44 0 0 Z " fill="#000000" transform="translate(1221,5)"/>
<path d="M0 0 C16.314375 -0.020625 32.62875 -0.04125 49.4375 -0.0625 C54.55564209 -0.071604 59.67378418 -0.08070801 64.94702148 -0.09008789 C71.28137207 -0.09460449 71.28137207 -0.09460449 74.26307678 -0.09544373 C76.30983194 -0.09696182 78.35658629 -0.1004417 80.40333557 -0.10557556 C137.58418268 -0.24161421 137.58418268 -0.24161421 155.328125 17.03125 C165.09888816 28.53700849 169.14890376 41.98069446 168 57 C165.9466018 70.30666706 160.64891667 81.53486296 149.6484375 89.7578125 C131.64451786 101.13171729 110.99342663 101.16163555 90.42578125 101.09765625 C88.6478835 101.09578756 86.86998524 101.09436579 85.09208679 101.09336853 C80.44795267 101.08957881 75.8038506 101.07977944 71.159729 101.06866455 C65.56864331 101.05655926 59.97754681 101.05203129 54.38645172 101.04621124 C45.92427896 101.03656528 37.46217631 101.01738406 29 101 C29 123.44 29 145.88 29 169 C19.43 169 9.86 169 0 169 C0 113.23 0 57.46 0 0 Z M29 22 C29 40.15 29 58.3 29 77 C42.47262338 77.11664408 42.47262338 77.11664408 55.9453125 77.1953125 C61.45295936 77.21907991 66.96033635 77.24697218 72.46777344 77.30175781 C76.91580124 77.34572009 81.36353902 77.36924147 85.81176758 77.37950897 C87.49557043 77.38681116 89.17936025 77.40106576 90.86303711 77.42292023 C103.71403747 77.58285622 119.28795273 77.56610634 129.51953125 68.64453125 C134.86403029 62.70776583 136.36568984 56.46431639 136.28515625 48.6640625 C135.61716126 42.42334214 132.47187082 36.35419001 128 32 C114.33784016 22.01513178 99.17063065 21.84485502 82.90625 21.90234375 C81.34826707 21.90421158 79.79028354 21.90563376 78.2322998 21.90663147 C74.15529729 21.91042792 70.07833107 21.9202333 66.00134277 21.93133545 C61.09698232 21.94342223 56.19260965 21.9479655 51.28823853 21.95378876 C43.85880053 21.96344689 36.42944199 21.98262345 29 22 Z " fill="#000000" transform="translate(1031,2)"/>
<path d="M0 0 C10.23 0 20.46 0 31 0 C31.1313345 10.18890271 31.26189822 20.37781452 31.39115143 30.56674385 C31.45121584 35.29922212 31.51160166 40.03169581 31.57275391 44.76416016 C31.63189338 49.34181637 31.69014695 53.91948311 31.74781799 58.49715805 C31.76983392 60.23281115 31.79215478 61.96846042 31.81480408 63.70410538 C31.84677569 66.15835875 31.87779876 68.61262127 31.90820312 71.06689453 C31.92273907 72.22198359 31.92273907 72.22198359 31.93756866 73.40040779 C32.00540913 79.25255331 31.99589043 85.10142581 31.94055176 90.9538269 C32.21230521 104.87868039 36.25679914 117.81023577 46 128 C60.87274591 141.57138064 81.04547993 144.59691849 100.44091797 143.9140625 C117.72466241 142.96948173 135.46574608 139.24384404 147.875 126.25 C159.71077248 111.49775727 159.45924324 93.192202 159.51171875 75.29296875 C159.52859182 73.11435451 159.54674554 70.93574984 159.56611633 68.75715637 C159.61333706 63.06422927 159.64332637 57.37134103 159.66955566 51.67828369 C159.69950303 45.85250174 159.74598421 40.02685331 159.79101562 34.20117188 C159.87673065 22.80083628 159.94268553 11.40051379 160 0 C169.9 0 179.8 0 190 0 C191.09893025 49.51073243 191.09893025 49.51073243 191.125 71.6875 C191.12874634 72.7768837 191.12874634 72.7768837 191.13256836 73.88827515 C191.20533119 99.32798071 189.97286187 125.41282689 171.48779297 144.89990234 C154.54149726 161.55828953 130.16159754 168.0493624 106.95703125 168.23828125 C105.99335129 168.246353 105.02967133 168.25442474 104.03678894 168.26274109 C101.99695604 168.27652993 99.95710057 168.28727517 97.91723633 168.29516602 C95.870616 168.30659246 93.8240232 168.32689259 91.77758789 168.35668945 C66.1123209 168.72931357 39.73574978 165.15320813 20.25 146.75 C4.23243288 129.81714333 -0.20994338 106.843833 -0.11352539 84.23583984 C-0.11367142 83.31754395 -0.11381744 82.39924805 -0.1139679 81.453125 C-0.11327821 78.45570407 -0.10553057 75.4583474 -0.09765625 72.4609375 C-0.09578871 70.36772699 -0.09436639 68.27451604 -0.09336853 66.18130493 C-0.08956981 60.70036591 -0.07976238 55.21945384 -0.06866455 49.73852539 C-0.05839329 44.13428105 -0.05385872 38.53003231 -0.04882812 32.92578125 C-0.0381375 21.95050715 -0.0205624 10.97526004 0 0 Z " fill="#000000" transform="translate(2114,6)"/>
<path d="M0 0 C10.23 0 20.46 0 31 0 C31.1313345 10.18890271 31.26189822 20.37781452 31.39115143 30.56674385 C31.45121584 35.29922212 31.51160166 40.03169581 31.57275391 44.76416016 C31.63189338 49.34181637 31.69014695 53.91948311 31.74781799 58.49715805 C31.76983392 60.23281115 31.79215478 61.96846042 31.81480408 63.70410538 C31.84677569 66.15835875 31.87779876 68.61262127 31.90820312 71.06689453 C31.92273907 72.22198359 31.92273907 72.22198359 31.93756866 73.40040779 C32.00540913 79.25255331 31.99589043 85.10142581 31.94055176 90.9538269 C32.21230521 104.87868039 36.25679914 117.81023577 46 128 C60.87274591 141.57138064 81.04547993 144.59691849 100.44091797 143.9140625 C117.72466241 142.96948173 135.46574608 139.24384404 147.875 126.25 C159.71077248 111.49775727 159.45924324 93.192202 159.51171875 75.29296875 C159.52859182 73.11435451 159.54674554 70.93574984 159.56611633 68.75715637 C159.61333706 63.06422927 159.64332637 57.37134103 159.66955566 51.67828369 C159.69950303 45.85250174 159.74598421 40.02685331 159.79101562 34.20117188 C159.87673065 22.80083628 159.94268553 11.40051379 160 0 C169.9 0 179.8 0 190 0 C191.09893025 49.51073243 191.09893025 49.51073243 191.125 71.6875 C191.12874634 72.7768837 191.12874634 72.7768837 191.13256836 73.88827515 C191.20533119 99.32798071 189.97286187 125.41282689 171.48779297 144.89990234 C154.54149726 161.55828953 130.16159754 168.0493624 106.95703125 168.23828125 C105.99335129 168.246353 105.02967133 168.25442474 104.03678894 168.26274109 C101.99695604 168.27652993 99.95710057 168.28727517 97.91723633 168.29516602 C95.870616 168.30659246 93.8240232 168.32689259 91.77758789 168.35668945 C66.1123209 168.72931357 39.73574978 165.15320813 20.25 146.75 C4.23243288 129.81714333 -0.20994338 106.843833 -0.11352539 84.23583984 C-0.11367142 83.31754395 -0.11381744 82.39924805 -0.1139679 81.453125 C-0.11327821 78.45570407 -0.10553057 75.4583474 -0.09765625 72.4609375 C-0.09578871 70.36772699 -0.09436639 68.27451604 -0.09336853 66.18130493 C-0.08956981 60.70036591 -0.07976238 55.21945384 -0.06866455 49.73852539 C-0.05839329 44.13428105 -0.05385872 38.53003231 -0.04882812 32.92578125 C-0.0381375 21.95050715 -0.0205624 10.97526004 0 0 Z " fill="#000000" transform="translate(141,6)"/>
<path d="M0 0 C4.46734845 4.07069471 8.55830917 8.38343992 12.33740234 13.09619141 C12.87494141 13.75876953 13.41248047 14.42134766 13.96630859 15.10400391 C15.39990234 16.97119141 15.39990234 16.97119141 17.33740234 20.09619141 C16.33740234 23.09619141 16.33740234 23.09619141 14.16015625 24.37060547 C12.7512915 24.98500488 12.7512915 24.98500488 11.31396484 25.61181641 C10.29302734 26.05783203 9.27208984 26.50384766 8.22021484 26.96337891 C6.60759766 27.64787109 6.60759766 27.64787109 4.96240234 28.34619141 C3.89505859 28.81798828 2.82771484 29.28978516 1.72802734 29.77587891 C-6.27809388 33.22435933 -6.27809388 33.22435933 -9.66259766 32.09619141 C-10.86682257 30.4712132 -12.0028124 28.79521374 -13.10009766 27.09619141 C-22.76595169 13.52174066 -38.07743281 6.39986054 -54.20947266 3.56494141 C-77.81616472 0.64452589 -102.23200282 3.3975527 -121.66259766 18.09619141 C-131.81256206 26.70682472 -139.6878587 38.72012945 -141.66259766 52.09619141 C-142.41635655 63.2426469 -142.49595886 73.80939964 -137.66259766 84.09619141 C-137.31197266 84.87865234 -136.96134766 85.66111328 -136.60009766 86.46728516 C-129.39744423 100.89760123 -116.28454638 110.4874324 -101.40869141 115.84619141 C-78.44765398 123.50785144 -53.38357399 123.11916197 -31.41259766 112.52978516 C-21.30543276 106.97342282 -13.08684223 99.68032863 -6.66259766 90.09619141 C2.22170495 93.38236553 10.78508804 97.02299425 19.33740234 101.09619141 C15.76363023 108.53107409 11.01393842 114.16208127 5.33740234 120.09619141 C4.52335937 121.02238281 4.52335937 121.02238281 3.69287109 121.96728516 C-13.78535471 141.12696053 -41.66566308 147.06249617 -66.47119141 148.28369141 C-97.69322278 148.82142284 -128.28330461 141.36917997 -151.39697266 119.51025391 C-168.81493146 101.51169647 -173.22938468 80.01213299 -172.93212891 55.67431641 C-172.31309174 34.21842725 -162.26840386 16.01907013 -146.91259766 1.40869141 C-108.18688207 -32.15359543 -38.8607354 -34.09356554 0 0 Z " fill="#000000" transform="translate(2702.66259765625,24.90380859375)"/>
<path d="M0 0 C53.46 0 106.92 0 162 0 C162 7.59 162 15.18 162 23 C139.89 23 117.78 23 95 23 C95 70.85 95 118.7 95 168 C85.1 168 75.2 168 65 168 C65 120.15 65 72.3 65 23 C43.55 23 22.1 23 0 23 C0 15.41 0 7.82 0 0 Z " fill="#000000" transform="translate(544,3)"/>
<path d="M0 0 C9.9 0 19.8 0 30 0 C30.06785579 16.62953974 30.12306231 33.25896037 30.15543652 49.88860035 C30.17087141 57.61092415 30.19189588 65.33315549 30.22631836 73.05541992 C30.25632464 79.79020573 30.27559952 86.52492454 30.28226548 93.25977534 C30.28615884 96.82216644 30.29523723 100.38436595 30.31719017 103.94669533 C30.34156235 107.93435605 30.34196284 111.92168876 30.34057617 115.90942383 C30.351362 117.07612106 30.36214783 118.2428183 30.3732605 119.44487 C30.32440547 132.48254186 27.06848969 144.33978988 18.1015625 154.05078125 C3.07589059 167.98723159 -15.50290239 168.73276531 -34.86669922 168.17919922 C-50.26909719 167.29830783 -63.53716034 160.12121563 -74 149 C-77.49594541 144.5912244 -80.5793129 140.0857705 -83 135 C-59.26213592 123 -59.26213592 123 -56 123 C-54.89922265 124.47861174 -53.86959275 126.0104727 -52.875 127.5625 C-47.88889549 134.8506776 -42.00274843 141.305365 -33 143 C-23.16657913 144.00985067 -15.00753556 142.83555915 -7.0625 136.75 C-2.46365358 130.61820477 -0.89688053 123.38513635 -0.84178162 115.80509949 C-0.8319928 114.78011353 -0.82220398 113.75512756 -0.81211853 112.69908142 C-0.80636307 111.58561844 -0.8006076 110.47215546 -0.79467773 109.32495117 C-0.78477814 108.144039 -0.77487854 106.96312683 -0.76467896 105.74642944 C-0.73854615 102.5175023 -0.71666152 99.28858012 -0.69667697 96.05961013 C-0.67476212 92.68166597 -0.64740041 89.303766 -0.62062073 85.92585754 C-0.57076802 79.53346618 -0.52580176 73.14105018 -0.48259836 66.74861079 C-0.43316243 59.46928135 -0.37826793 52.18999625 -0.32291877 44.91070974 C-0.2092127 29.94051308 -0.10306957 14.97027438 0 0 Z " fill="#000000" transform="translate(83,5)"/>
</svg>
