<?xml version="1.0" encoding="UTF-8"?>
<svg version="1.1" xmlns="http://www.w3.org/2000/svg" width="227" height="80">
<path d="M0 0 C1.32 0 2.64 0 4 0 C4 1.32 4 2.64 4 4 C4.66 4 5.32 4 6 4 C6.33 4.66 6.66 5.32 7 6 C7.66 5.34 8.32 4.68 9 4 C11.9375 3.875 11.9375 3.875 15 4 C17.52232078 4 20.04063256 3.96966092 22.5625 3.9296875 C24.3749962 3.91108417 26.18749642 3.89286975 28 3.875 C28.91523437 3.85824219 29.83046875 3.84148438 30.7734375 3.82421875 C31.65257812 3.81777344 32.53171875 3.81132812 33.4375 3.8046875 C34.24058594 3.79421387 35.04367188 3.78374023 35.87109375 3.77294922 C38 4 38 4 41 6 C41.66 5.34 42.32 4.68 43 4 C45.8203125 3.8046875 45.8203125 3.8046875 49.125 3.875 C50.22070312 3.89304687 51.31640625 3.91109375 52.4453125 3.9296875 C53.70988281 3.96449219 53.70988281 3.96449219 55 4 C55 2.68 55 1.36 55 0 C56.32 0 57.64 0 59 0 C59 1.32 59 2.64 59 4 C61.31 4 63.62 4 66 4 C66.495 4.99 66.495 4.99 67 6 C67.99 5.34 68.98 4.68 70 4 C74.07490752 3.66042437 75.53001271 3.68667514 79 6 C79.4375 9.4375 79.4375 9.4375 79 13 C77.4375 15 77.4375 15 75 16 C71.375 15.6875 71.375 15.6875 68 15 C65.00162265 15 62.06393912 15.48834567 59.09375 15.87890625 C57 16 57 16 55 15 C55 12.69 55 10.38 55 8 C54.34 8 53.68 8 53 8 C53 10.31 53 12.62 53 15 C51.37675914 15.22162329 49.751279 15.42689803 48.125 15.625 C47.22007813 15.74101562 46.31515625 15.85703125 45.3828125 15.9765625 C44.59648438 15.98429687 43.81015625 15.99203125 43 16 C42.34 15.34 41.68 14.68 41 14 C40.67 14.33 40.34 14.66 40 15 C38.33382885 15.04063832 36.66611905 15.042721 35 15 C35 12.69 35 10.38 35 8 C34.34 8 33.68 8 33 8 C32.67 10.31 32.34 12.62 32 15 C30.68 15 29.36 15 28 15 C27.505 12.03 27.505 12.03 27 9 C26.01 9 25.02 9 24 9 C23.67 10.98 23.34 12.96 23 15 C21.7315625 14.9690625 21.7315625 14.9690625 20.4375 14.9375 C16.94486884 14.92489267 16.94486884 14.92489267 13.3125 15.5625 C10 16 10 16 7 15 C6.154375 15.185625 5.30875 15.37125 4.4375 15.5625 C3.633125 15.706875 2.82875 15.85125 2 16 C0 14 0 14 -0.125 10.875 C-0.08375 9.92625 -0.0425 8.9775 0 8 C-0.66 8 -1.32 8 -2 8 C-2 10.31 -2 12.62 -2 15 C-3.32 15 -4.64 15 -6 15 C-6 12.69 -6 10.38 -6 8 C-6.99 8 -7.98 8 -9 8 C-9 10.31 -9 12.62 -9 15 C-10.65 15 -12.3 15 -14 15 C-14 11.37 -14 7.74 -14 4 C-9.38 4 -4.76 4 0 4 C0 2.68 0 1.36 0 0 Z M4 8 C4 8.99 4 9.98 4 11 C4.66 11 5.32 11 6 11 C6 10.01 6 9.02 6 8 C5.34 8 4.68 8 4 8 Z M46 8 C46 9.32 46 10.64 46 12 C46.66 11.67 47.32 11.34 48 11 C48 10.01 48 9.02 48 8 C47.34 8 46.68 8 46 8 Z M59 8 C59.33 9.32 59.66 10.64 60 12 C60.33 10.68 60.66 9.36 61 8 C60.34 8 59.68 8 59 8 Z M72 8 C72 9.32 72 10.64 72 12 C72.99 11.67 73.98 11.34 75 11 C74.67 10.01 74.34 9.02 74 8 C73.34 8 72.68 8 72 8 Z " fill="#000000" transform="translate(31,13)"/>
<path d="M0 0 C1.32 0 2.64 0 4 0 C4 5.61 4 11.22 4 17 C-4.625 18.125 -4.625 18.125 -8 17 C-9.66621616 16.96125079 -11.33394172 16.9549714 -13 17 C-13.33 15.02 -13.66 13.04 -14 11 C-14.33 12.98 -14.66 14.96 -15 17 C-17.27020744 17.19493195 -19.54120289 17.38070418 -21.8125 17.5625 C-23.07707031 17.66691406 -24.34164062 17.77132812 -25.64453125 17.87890625 C-29 18 -29 18 -32 17 C-33.72795352 16.93197033 -35.45835365 16.91504355 -37.1875 16.9375 C-38.775625 16.958125 -40.36375 16.97875 -42 17 C-42 11.72 -42 6.44 -42 1 C-40.35 1 -38.7 1 -37 1 C-37 4.96 -37 8.92 -37 13 C-35.68 13 -34.36 13 -33 13 C-32.690625 12.195625 -32.38125 11.39125 -32.0625 10.5625 C-31 8 -31 8 -30 7 C-28.55823237 6.91321399 -27.11231563 6.8929733 -25.66796875 6.90234375 C-24.34635742 6.90717773 -24.34635742 6.90717773 -22.99804688 6.91210938 C-22.07056641 6.92048828 -21.14308594 6.92886719 -20.1875 6.9375 C-19.27162109 6.94201172 -18.35574219 6.94652344 -17.41210938 6.95117188 C-15.69944991 6.95990357 -13.98679885 6.97068312 -12.27416992 6.98413086 C-10.18282417 6.99872425 -8.09139666 7 -6 7 C-4 7 -2 7 0 7 C0 4.69 0 2.38 0 0 Z M-28 11 C-27.67 11.99 -27.34 12.98 -27 14 C-26.34 14 -25.68 14 -25 14 C-25 13.01 -25 12.02 -25 11 C-25.99 11 -26.98 11 -28 11 Z M-4 11 C-3.67 11.99 -3.34 12.98 -3 14 C-2.01 13.67 -1.02 13.34 0 13 C-0.33 12.34 -0.66 11.68 -1 11 C-1.99 11 -2.98 11 -4 11 Z " fill="#000000" transform="translate(157,52)"/>
<path d="M0 0 C1.65 0 3.3 0 5 0 C5 1.32 5 2.64 5 4 C8.71402974 5.23800991 11.16991798 4.6155489 15 4 C19.33333333 4 23.66666667 4 28 4 C27.67 5.65 27.34 7.3 27 9 C26.01 9 25.02 9 24 9 C23.67 10.98 23.34 12.96 23 15 C21.7315625 14.9690625 21.7315625 14.9690625 20.4375 14.9375 C16.94486884 14.92489267 16.94486884 14.92489267 13.3125 15.5625 C10 16 10 16 7 15 C6.154375 15.185625 5.30875 15.37125 4.4375 15.5625 C3.633125 15.706875 2.82875 15.85125 2 16 C1.34 15.34 0.68 14.68 0 14 C-0.33 14.33 -0.66 14.66 -1 15 C-2.66617115 15.04063832 -4.33388095 15.042721 -6 15 C-6 12.69 -6 10.38 -6 8 C-6.99 8.495 -6.99 8.495 -8 9 C-8.65772428 12.02934491 -8.65772428 12.02934491 -9 15 C-10.32 15 -11.64 15 -13 15 C-13 11.37 -13 7.74 -13 4 C-9 4 -5 4 -1 4 C-0.67 2.68 -0.34 1.36 0 0 Z M5 8 C6 11 6 11 6 11 Z " fill="#000000" transform="translate(187,13)"/>
<path d="M0 0 C1.32 0 2.64 0 4 0 C4 1.32 4 2.64 4 4 C7.3 4 10.6 4 14 4 C13.67 5.32 13.34 6.64 13 8 C13.495 8.495 13.495 8.495 14 9 C14.04063832 10.66617115 14.042721 12.33388095 14 14 C9.02936879 14.91297308 4.97063121 14.91297308 0 14 C0 11.69 0 9.38 0 7 C-0.99 7.495 -0.99 7.495 -2 8 C-1.67 9.65 -1.34 11.3 -1 13 C-4.87165325 15.58110217 -6.54204609 14.72948337 -11 14 C-11.99 14.495 -11.99 14.495 -13 15 C-15.9375 15.3125 -15.9375 15.3125 -19 15 C-20.875 13.1875 -20.875 13.1875 -22 11 C-22 10.01 -22 9.02 -22 8 C-23.32 8 -24.64 8 -26 8 C-26 9.98 -26 11.96 -26 14 C-27.32 14 -28.64 14 -30 14 C-30 10.7 -30 7.4 -30 4 C-25.71 4 -21.42 4 -17 4 C-17 6.31 -17 8.62 -17 11 C-16.34 11 -15.68 11 -15 11 C-14.67 8.69 -14.34 6.38 -14 4 C-13.195625 4.185625 -12.39125 4.37125 -11.5625 4.5625 C-10.716875 4.706875 -9.87125 4.85125 -9 5 C-8.67 4.67 -8.34 4.34 -8 4 C-5.32941149 3.85884839 -2.67567762 3.95752893 0 4 C0 2.68 0 1.36 0 0 Z M4 7 C4 8.32 4 9.64 4 11 C4.99 10.67 5.98 10.34 7 10 C6.67 9.01 6.34 8.02 6 7 C5.34 7 4.68 7 4 7 Z M-10 8 C-9 11 -9 11 -9 11 Z " fill="#000000" transform="translate(207,55)"/>
<path d="M0 0 C0.33 0.99 0.66 1.98 1 3 C0.67 3.66 0.34 4.32 0 5 C-2.32156597 5.40729228 -4.6568787 5.74438677 -7 6 C-7 7.65 -7 9.3 -7 11 C-4.16848027 11.41809201 -4.16848027 11.41809201 -1 11 C-0.360625 10.175 0.27875 9.35 0.9375 8.5 C3 6 3 6 6.625 5.5625 C10 6 10 6 12 8 C12.33 7.34 12.66 6.68 13 6 C15.64590014 5.97315321 18.29153096 5.95323643 20.9375 5.9375 C22.06961914 5.92493164 22.06961914 5.92493164 23.22460938 5.91210938 C25.14994313 5.90347559 27.07535581 5.94775667 29 6 C30 7 30 7 30.09765625 9.06640625 C30.08605469 9.89011719 30.07445312 10.71382812 30.0625 11.5625 C30.05347656 12.38878906 30.04445312 13.21507813 30.03515625 14.06640625 C30.02355469 14.70449219 30.01195312 15.34257813 30 16 C28.68 16 27.36 16 26 16 C25.505 13.03 25.505 13.03 25 10 C24.67 11.98 24.34 13.96 24 16 C22.35 16 20.7 16 19 16 C18.67 14.02 18.34 12.04 18 10 C17.67 11.98 17.34 13.96 17 16 C16.236875 15.79375 15.47375 15.5875 14.6875 15.375 C11.78114056 14.66608797 11.78114056 14.66608797 9 17 C7.05852013 16.76965493 5.11694548 16.53050671 3.1875 16.21484375 C0.90064409 15.99024183 -0.93344979 16.21944172 -3.1875 16.625 C-7.40248969 17.03958915 -8.77554298 16.63819211 -12 14 C-13.56935594 10.86128812 -13.35201103 8.46144178 -13 5 C-9.24710838 -0.51205957 -6.17887554 -0.52363352 0 0 Z M5 10 C5 10.99 5 11.98 5 13 C5.99 12.67 6.98 12.34 8 12 C8 11.34 8 10.68 8 10 C7.01 10 6.02 10 5 10 Z " fill="#000000" transform="translate(15,53)"/>
<path d="M0 0 C7.26 0 14.52 0 22 0 C22 2.31 22 4.62 22 7 C22.66 7 23.32 7 24 7 C24.33 4.69 24.66 2.38 25 0 C31.66666667 0 38.33333333 0 45 0 C45 3.3 45 6.6 45 10 C42.03 10 39.06 10 36 10 C35.505 7.03 35.505 7.03 35 4 C34.67 5.98 34.34 7.96 34 10 C33.05125 9.979375 32.1025 9.95875 31.125 9.9375 C28.09333717 9.77448174 28.09333717 9.77448174 26 11 C23 11.1875 23 11.1875 20 11 C19.34 10.34 18.68 9.68 18 9 C15.39719432 9.32041397 15.39719432 9.32041397 13 10 C12.67 8.02 12.34 6.04 12 4 C11.67 4 11.34 4 11 4 C10.67 5.98 10.34 7.96 10 10 C8.68 10 7.36 10 6 10 C6 8.02 6 6.04 6 4 C5.34 4 4.68 4 4 4 C4 5.98 4 7.96 4 10 C2.68 10 1.36 10 0 10 C0 6.7 0 3.4 0 0 Z " fill="#000000" transform="translate(46,59)"/>
<path d="M0 0 C0.66 0.33 1.32 0.66 2 1 C1.67 2.32 1.34 3.64 1 5 C-1.64 5.33 -4.28 5.66 -7 6 C-7.042721 7.66611905 -7.04063832 9.33382885 -7 11 C-5.89203039 12.31120653 -5.89203039 12.31120653 -3.125 12.375 C-2.09375 12.25125 -1.0625 12.1275 0 12 C0.474375 11.195625 0.94875 10.39125 1.4375 9.5625 C3 7 3 7 6.5 6.0625 C10 6 10 6 13 8 C13.3984375 9.875 13.3984375 9.875 13.375 12 C13.38273437 12.70125 13.39046875 13.4025 13.3984375 14.125 C13 16 13 16 10 18 C7.80859375 17.94140625 7.80859375 17.94140625 5.4375 17.5625 C2.10195137 16.93835341 2.10195137 16.93835341 -1 18 C-5.19654609 18.57225628 -6.71932174 18.18535357 -10.3125 15.8125 C-13 13 -13 13 -14.0625 10.5625 C-13.97712577 7.06215654 -12.83603175 4.95076532 -11 2 C-6.94641576 -0.70238949 -4.81689896 -0.22937614 0 0 Z " fill="#000000" transform="translate(160,11)"/>
<path d="M0 0 C8.75 -0.125 8.75 -0.125 11 1 C11 1.66 11 2.32 11 3 C11.66 3 12.32 3 13 3 C13 2.34 13 1.68 13 1 C15.52475462 -0.26237731 17.31200466 -0.09856404 20.125 -0.0625 C21.73375 -0.041875 23.3425 -0.02125 25 0 C25 3.63 25 7.26 25 11 C17.3828125 11.9765625 17.3828125 11.9765625 15 12 C14.34 11.34 13.68 10.68 13 10 C12.67 10.33 12.34 10.66 12 11 C10.33382885 11.04063832 8.66611905 11.042721 7 11 C7 8.69 7 6.38 7 4 C6.01 4.495 6.01 4.495 5 5 C4.34227572 8.02934491 4.34227572 8.02934491 4 11 C2.68 11 1.36 11 0 11 C0 7.37 0 3.74 0 0 Z M17 4 C17.33 5.32 17.66 6.64 18 8 C18.66 7.67 19.32 7.34 20 7 C19.67 6.01 19.34 5.02 19 4 C18.34 4 17.68 4 17 4 Z " fill="#000000" transform="translate(111,17)"/>
<path d="M0 0 C1.32 0 2.64 0 4 0 C4 1.32 4 2.64 4 4 C4.94875 3.95875 5.8975 3.9175 6.875 3.875 C10 4 10 4 12 6 C12.33 5.34 12.66 4.68 13 4 C14.65 4 16.3 4 18 4 C16.45454854 9.47932789 13.84456788 14.11429181 11 19 C9.35 19 7.7 19 6 19 C6.37125 17.9275 6.7425 16.855 7.125 15.75 C8.28758591 12.20775562 8.28758591 12.20775562 7.25 9.625 C6.0783929 7.85741582 6.0783929 7.85741582 4 7 C4 8.32 4 9.64 4 11 C4.66 11 5.32 11 6 11 C6.33 11.99 6.66 12.98 7 14 C4.625 14.625 4.625 14.625 2 15 C-0.34240025 12.65759975 -0.36283032 11.82911717 -0.6875 8.625 C-0.77386719 7.85414062 -0.86023438 7.08328125 -0.94921875 6.2890625 C-1.00027694 3.98751626 -0.66593825 2.19308988 0 0 Z " fill="#000000" transform="translate(93,55)"/>
<path d="M0 0 C28.71 0 57.42 0 87 0 C87 0.66 87 1.32 87 2 C58.29 2 29.58 2 0 2 C0 1.34 0 0.68 0 0 Z " fill="#272727" transform="translate(129,43)"/>
<path d="M0 0 C28.71 0 57.42 0 87 0 C87 0.66 87 1.32 87 2 C58.29 2 29.58 2 0 2 C0 1.34 0 0.68 0 0 Z " fill="#272727" transform="translate(9,43)"/>
<path d="M0 0 C1.65 0 3.3 0 5 0 C4.67 0.99 4.34 1.98 4 3 C3.34 3 2.68 3 2 3 C2 3.66 2 4.32 2 5 C2.62648438 5 3.25296875 5 3.8984375 5 C9.265625 5 14.6328125 5 20 5 C19 8 19 8 17 9 C16.34786708 11.02463255 16.34786708 11.02463255 16 13 C14.39773045 13.22245393 12.79303233 13.42746669 11.1875 13.625 C10.29417969 13.74101563 9.40085937 13.85703125 8.48046875 13.9765625 C6 14 6 14 3 12 C0.84725052 12.30840599 0.84725052 12.30840599 -1 13 C-1 11.35 -1 9.7 -1 8 C-1.66 8 -2.32 8 -3 8 C-3 7.01 -3 6.02 -3 5 C-2.34 5 -1.68 5 -1 5 C-0.67 3.35 -0.34 1.7 0 0 Z M7 8 C7 8.66 7 9.32 7 10 C7.66 10 8.32 10 9 10 C9 9.34 9 8.68 9 8 C8.34 8 7.68 8 7 8 Z " fill="#000000" transform="translate(104,34)"/>
<path d="M0 0 C3.96 0 7.92 0 12 0 C12 1.32 12 2.64 12 4 C10.68 4 9.36 4 8 4 C8 7.96 8 11.92 8 16 C6.68 16 5.36 16 4 16 C4 12.04 4 8.08 4 4 C2.68 4 1.36 4 0 4 C0 2.68 0 1.36 0 0 Z " fill="#000000" transform="translate(165,53)"/>
<path d="M0 0 C1.32 0 2.64 0 4 0 C4 5.94 4 11.88 4 18 C2.68 18 1.36 18 0 18 C0 12.06 0 6.12 0 0 Z " fill="#000000" transform="translate(137,10)"/>
<path d="M0 0 C1.32 0 2.64 0 4 0 C4 5.61 4 11.22 4 17 C2.68 17 1.36 17 0 17 C0 11.39 0 5.78 0 0 Z " fill="#000000" transform="translate(12,11)"/>
<path d="M0 0 C1.32 0 2.64 0 4 0 C4 1.65 4 3.3 4 5 C2.35 4.67 0.7 4.34 -1 4 C-0.67 2.68 -0.34 1.36 0 0 Z " fill="#000000" transform="translate(93,11)"/>
<path d="M0 0 C1.98 0.495 1.98 0.495 4 1 C3.67 2.32 3.34 3.64 3 5 C1.68 4.67 0.36 4.34 -1 4 C-0.67 2.68 -0.34 1.36 0 0 Z " fill="#000000" transform="translate(88,53)"/>
</svg>
