<?xml version="1.0" encoding="UTF-8"?>
<svg xmlns="http://www.w3.org/2000/svg" xmlns:xlink="http://www.w3.org/1999/xlink" version="1.1" id="Ebene_1" x="0px" y="0px" viewBox="0 0 300 25.6" style="enable-background:new 0 0 300 25.6;" xml:space="preserve">
<style type="text/css">
	.st0{fill:#221035;}
</style>
<g>
	<g>
		<polygon class="st0" points="151.9,2.3 137.1,2.3 137.1,5.1 143,5.1 143,20.1 146,20.1 146,5.1 151.9,5.1   "></polygon>
		<g>
			<path class="st0" d="M161.2,17.7c-3.5,0-5.8-2.5-5.8-6.5s2.2-6.5,5.8-6.5c3.5,0,5.8,2.5,5.8,6.5S164.8,17.7,161.2,17.7 M161.2,2     c-5.4,0-8.8,3.8-8.8,9.2c0,5.6,3.6,9.3,8.8,9.3c5.5,0,8.9-3.9,8.9-9.3C170.1,5.6,166.5,2,161.2,2"></path>
		</g>
		<polygon class="st0" points="181.8,16.4 176.2,2.3 172.5,2.3 172.5,20.1 175.5,20.1 175.5,7.6 180.4,20.1 183.1,20.1 188,7.6     188,20.1 191,20.1 191,2.3 187.3,2.3   "></polygon>
		<path class="st0" d="M201.8,17.7c-3.5,0-5.8-2.5-5.8-6.5s2.2-6.5,5.8-6.5c3.5,0,5.8,2.5,5.8,6.5S205.3,17.7,201.8,17.7 M201.8,2    c-5.4,0-8.8,3.8-8.8,9.2c0,5.6,3.6,9.3,8.8,9.3c5.5,0,8.9-3.9,8.9-9.3C210.7,5.6,207,2,201.8,2"></path>
		<path class="st0" d="M221.5,10.7H216V5.1h5.5c1.7,0,2.8,1.1,2.8,2.7C224.4,9.4,223.4,10.7,221.5,10.7 M223.5,11.9    c2.4-0.6,3.9-2.4,3.9-4.6c0-3-2.3-5-5.7-5H213V20h3v-6.7h5.2c0.8,0,1.4,0.4,1.6,1.1l2.1,5.6h3.2l-2.3-6.1    C225.5,12.9,224.7,12.2,223.5,11.9"></path>
		<path class="st0" d="M238.6,10.7h-5.5V5.1h5.5c1.7,0,2.8,1.1,2.8,2.7C241.5,9.4,240.5,10.7,238.6,10.7 M240.6,11.9    c2.4-0.6,3.9-2.4,3.9-4.6c0-3-2.3-5-5.7-5h-8.7V20h3v-6.7h5.2c0.8,0,1.4,0.4,1.6,1.1L242,20h3.2l-2.2-6    C242.6,12.9,241.8,12.2,240.6,11.9"></path>
		<polygon class="st0" points="296.8,2.3 293.1,15.7 289.5,2.3 286.6,2.3 283,15.6 279.3,2.3 276.2,2.3 281.2,20.1 284.5,20.1     288.1,6.8 291.7,20.1 295,20.1 300,2.3   "></polygon>
		
			<rect x="115.3" y="10.2" transform="matrix(0.3987 -0.9171 0.9171 0.3987 65.8727 123.5981)" class="st0" width="23.8" height="2.8"></rect>
		<g>
			<path class="st0" d="M4.1,19.4v4c0,1.1,0.8,1.2,1.8,1.3v0.9H0v-0.9c1.1-0.1,1.8-0.3,1.8-1.3V10.2L0.1,9.4V8.8l3.3-1.1h0.8     L4.1,9.8c1-1.3,2.6-2.1,4.4-2.1c3.5,0,5.4,2.6,5.4,5.7c0,4.2-3,6.9-6.6,6.9C5.9,20.3,4.9,20,4.1,19.4z M11.6,14.4     c0-2.4-0.9-5-3.9-5c-1.4,0-2.7,0.7-3.5,1.5v5.2c0,2.2,1.7,2.9,3.4,2.9C10,19,11.6,17.4,11.6,14.4z"></path>
			<path class="st0" d="M15.3,14.2c0-4,3-6.5,6.6-6.5s6.1,2.5,6.1,6.1c0,4-3,6.5-6.6,6.5S15.3,17.8,15.3,14.2z M25.5,14.6     c0-3-1.6-5.4-4.4-5.4c-2.3,0-3.4,1.8-3.4,4.3c0,3,1.6,5.4,4.4,5.4C24.4,18.9,25.5,17.1,25.5,14.6z"></path>
			<path class="st0" d="M33.1,17.9c0,1.1,0.8,1.2,1.8,1.3v0.9h-6v-0.9c1.1-0.1,1.8-0.3,1.8-1.3V3.8L29,3.2V2.6l3.3-1.1h0.8l-0.1,2     L33.1,17.9L33.1,17.9z"></path>
			<path class="st0" d="M40.4,17.9c0,1.1,0.8,1.2,1.8,1.3v0.9h-6v-0.9c1.1-0.1,1.8-0.3,1.8-1.3v-7.7l-1.7-0.8V8.8l3.3-1.1h0.8     l-0.1,2.4v7.8C40.3,17.9,40.4,17.9,40.4,17.9z M39.2,2.5c0.9,0,1.6,0.7,1.6,1.6s-0.7,1.6-1.6,1.6c-0.9,0-1.6-0.7-1.6-1.6     C37.6,3.2,38.3,2.5,39.2,2.5z"></path>
			<path class="st0" d="M46.9,7.9h3.6v1.3h-3.6v7.1c0,1.7,0.7,2.4,2.1,2.4c0.6,0,1.2-0.1,1.8-0.4l0.3,0.6c-0.6,0.6-1.6,1.4-3.2,1.4     c-1.7,0-3.3-0.9-3.3-3.3V9.2h-1.8V8.4C44,7.7,45,6.8,46.2,5.3h0.7V7.9z"></path>
			<path class="st0" d="M56.1,17.9c0,1.1,0.8,1.2,1.8,1.3v0.9h-6v-0.9c1.1-0.1,1.8-0.3,1.8-1.3v-7.7L52,9.4V8.8l3.3-1.1h0.8L56,10.1     L56.1,17.9C56,17.9,56.1,17.9,56.1,17.9z M54.9,2.5c0.9,0,1.6,0.7,1.6,1.6s-0.7,1.6-1.6,1.6c-0.9,0-1.6-0.7-1.6-1.6     C53.3,3.2,54,2.5,54.9,2.5z"></path>
			<path class="st0" d="M65.4,18.3c1.9,0,3.2-0.9,4-1.8l0.7,0.3c-0.5,1.7-2.1,3.5-5.3,3.5c-4,0-5.9-3-5.9-5.9c0-4.1,2.8-6.7,6.6-6.7     c2.7,0,4.3,1.3,4.3,3c0,0.7-0.4,1.2-0.9,1.5h-1.6v-0.9C67.3,9.8,66.7,9,65,9c-2.3,0-4,1.6-4,4.5C61.1,16.5,62.6,18.3,65.4,18.3z"></path>
			<path class="st0" d="M71.2,19.1L71.1,16h1c0.5,2,1.6,3,3.5,3c1.6,0,2.6-0.7,2.6-2c0-1.1-0.8-1.5-2.1-1.9l-1.6-0.5     c-1.9-0.6-3.1-1.4-3.1-3.5s1.7-3.5,4.2-3.5c1.6,0,2.9,0.4,4,1v2.8h-1c-0.4-1.9-1.4-2.6-3.1-2.6c-1.2,0-2.1,0.6-2.1,1.8     c0,1,0.6,1.4,1.7,1.7l1.8,0.6c2.2,0.6,3.3,1.5,3.3,3.7c0,2.3-1.9,3.7-4.7,3.7C73.6,20.3,72.1,19.8,71.2,19.1z"></path>
			<path class="st0" d="M90.7,17.8c0,1.1,0.6,1.2,2.3,1.4v0.9h-6.4v-0.9c1.1-0.1,1.8-0.3,1.8-1.3V9.2h-1.8V8.4l1.8-0.8V6.9     c0-3.4,2-5.4,5.2-5.4c2.1,0,3.2,0.8,3.2,2.1c0,0.6-0.3,1.1-0.6,1.3h-1.7V4.2c0-1.2-0.6-1.5-1.4-1.5c-1.5,0-2.3,1-2.3,3.4v1.8h3.1     v1.3h-3.1L90.7,17.8L90.7,17.8z"></path>
			<path class="st0" d="M94.6,14.2c0-4,3-6.5,6.6-6.5s6.1,2.5,6.1,6.1c0,4-3,6.5-6.6,6.5S94.6,17.8,94.6,14.2z M104.8,14.6     c0-3-1.6-5.4-4.4-5.4c-2.3,0-3.4,1.8-3.4,4.3c0,3,1.6,5.4,4.4,5.4C103.7,18.9,104.8,17.1,104.8,14.6z"></path>
			<path class="st0" d="M112.7,11.2c1.1-1.9,2.1-3.5,3.8-3.5c0.6,0,0.9,0.1,1.1,0.3v2.1h-0.9c-1.5,0-2.4,0.3-4,2.1v5.5     c0,1.1,0.6,1.2,2.3,1.4V20h-6.4v-0.9c1.1-0.1,1.8-0.3,1.8-1.3v-7.7l-1.7-0.8V8.8l3.3-1.1h0.8L112.7,11.2z"></path>
		</g>
		<g>
			<path class="st0" d="M268.9,5.1c2.3,0,4,1.6,4,3.8c0,1.1-0.4,2.9-2.4,5.1c-0.9,1-2.8,3.3-4.4,3.3c-0.1,0-0.2,0-0.3,0     c-0.3-0.1-0.6-0.3-0.9-0.5c-0.9-0.8-1.5-1.9-2.4-2.7s-2-1.6-3.2-1.9c-0.4-0.1-0.9-0.2-1.3-0.2c-2,0-3.7,1.4-5.4,2.6     c-0.2,0.1-0.4,0.3-0.7,0.3l0,0c-0.3,0-0.5-0.2-0.7-0.4c-1.8-1.7-4.4-7.1,0-7.1c0.9,0,2,0.2,3.3,0.5c2.3,0.6,3.7,0.9,4.9,0.9     c2,0,3.1-0.7,4.4-1.6c0.6-0.4,1.2-0.8,2-1.3C267,5.4,268,5.1,268.9,5.1 M268.9,2c-1.4,0-3,0.4-4.4,1.2c-1,0.5-1.7,1-2.3,1.4     c-1.2,0.8-1.6,1.1-2.7,1.1c-0.9,0-2.1-0.2-4.1-0.8c-1.6-0.4-2.9-0.6-4.1-0.6c-3.5,0-4.7,2.2-5.1,3.1c-1.4,3.6,1.5,7.9,3.1,9.3     c0.3,0.3,1.3,1.2,2.8,1.2c1.3,0,2.1-0.6,2.5-0.9c0.2-0.1,0.4-0.3,0.6-0.4c1.1-0.8,2.2-1.6,3-1.6c0.1,0,0.3,0,0.4,0.1     c0.6,0.2,1.2,0.6,2,1.3c0.2,0.2,0.5,0.6,0.8,1c0.4,0.6,0.9,1.2,1.6,1.8c0.7,0.6,1.4,1,2.2,1.2c0.3,0.1,0.7,0.1,1,0.1     c2.8,0,5-2.5,6.3-4c0.1-0.1,0.2-0.3,0.3-0.4c2.6-2.9,3.2-5.5,3.2-7.1C276,5,272.9,2,268.9,2L268.9,2z"></path>
		</g>
	</g>
</g>
</svg>
