<svg width="111" height="30" viewBox="0 0 111 30" fill="none" xmlns="http://www.w3.org/2000/svg">
<g clip-path="url(#clip0_560_614)">
<path d="M0.602966 25.2918C0.412556 25.2918 0.264444 25.2391 0.158661 25.1338C0.0528775 25.0284 0 24.9125 0 24.786C0 24.6596 0.0528775 24.5436 0.158661 24.4382C0.264444 24.3328 0.412556 24.2802 0.602966 24.2802H10.06C10.2504 24.2802 10.3985 24.3328 10.5043 24.4382C10.6101 24.5436 10.663 24.6596 10.663 24.786C10.663 24.9125 10.6101 25.0284 10.5043 25.1338C10.3985 25.2391 10.2504 25.2918 10.06 25.2918H0.602966ZM8.69539 21.2451C8.50498 21.2451 8.35688 21.1925 8.2511 21.0871C8.16647 20.9817 8.12416 20.8657 8.12416 20.7393C8.12416 20.6128 8.16647 20.4969 8.2511 20.3915C8.35688 20.2862 8.50498 20.2335 8.69539 20.2335H12.1228C12.3132 20.2335 12.4507 20.2862 12.5353 20.3915C12.6411 20.4969 12.694 20.6128 12.694 20.7393C12.694 20.8657 12.6411 20.9817 12.5353 21.0871C12.4507 21.1925 12.3132 21.2451 12.1228 21.2451H8.69539ZM2.63399 17.1984C2.44358 17.1984 2.2955 17.1457 2.18971 17.0404C2.08393 16.935 2.03102 16.8191 2.03102 16.6926C2.03102 16.5662 2.08393 16.4502 2.18971 16.3449C2.2955 16.2395 2.44358 16.1868 2.63399 16.1868H10.06C10.2504 16.1868 10.3985 16.2395 10.5043 16.3449C10.6101 16.4502 10.663 16.5662 10.663 16.6926C10.663 16.8191 10.6101 16.935 10.5043 17.0404C10.3985 17.1457 10.2504 17.1984 10.06 17.1984H2.63399ZM0.571228 13.1518C0.380818 13.1518 0.232721 13.0991 0.126938 12.9937C0.0423112 12.8883 0 12.7724 0 12.6459C0 12.5195 0.0423112 12.4035 0.126938 12.2981C0.232721 12.1928 0.380818 12.1401 0.571228 12.1401H3.99861C4.18902 12.1401 4.32654 12.1928 4.41116 12.2981C4.51695 12.4035 4.56984 12.5195 4.56984 12.6459C4.56984 12.7724 4.51695 12.8883 4.41116 12.9937C4.32654 13.0991 4.18902 13.1518 3.99861 13.1518H0.571228ZM2.63399 9.10506C2.44358 9.10506 2.2955 9.05234 2.18971 8.94696C2.08393 8.84158 2.03102 8.72567 2.03102 8.59921C2.03102 8.47275 2.08393 8.35685 2.18971 8.25146C2.2955 8.14608 2.44358 8.09338 2.63399 8.09338H12.091C12.2814 8.09338 12.4296 8.14608 12.5353 8.25146C12.6411 8.35685 12.694 8.47275 12.694 8.59921C12.694 8.72567 12.6411 8.84158 12.5353 8.94696C12.4296 9.05234 12.2814 9.10506 12.091 9.10506H2.63399Z" fill="white"/>
<path d="M18.8823 25.2918C18.6919 25.2918 18.5438 25.2391 18.438 25.1338C18.3322 25.0284 18.2794 24.9125 18.2794 24.786C18.2794 24.6596 18.3322 24.5436 18.438 24.4382C18.5438 24.3328 18.6919 24.2802 18.8823 24.2802H26.3083C26.4987 24.2802 26.6468 24.3328 26.7526 24.4382C26.8584 24.5436 26.9113 24.6596 26.9113 24.786C26.9113 24.9125 26.8584 25.0284 26.7526 25.1338C26.6468 25.2391 26.4987 25.2918 26.3083 25.2918H18.8823ZM16.8195 21.2451C16.6291 21.2451 16.4811 21.1925 16.3753 21.0871C16.2906 20.9817 16.2483 20.8657 16.2483 20.7393C16.2483 20.6128 16.2906 20.4969 16.3753 20.3915C16.4811 20.2862 16.6291 20.2335 16.8195 20.2335H20.2469C20.4373 20.2335 20.5749 20.2862 20.6595 20.3915C20.7653 20.4969 20.8182 20.6128 20.8182 20.7393C20.8182 20.8657 20.7653 20.9817 20.6595 21.0871C20.5749 21.1925 20.4373 21.2451 20.2469 21.2451H16.8195ZM16.8513 17.1984C16.6609 17.1984 16.5128 17.1457 16.407 17.0404C16.3012 16.935 16.2483 16.8191 16.2483 16.6926C16.2483 16.5662 16.3012 16.4502 16.407 16.3449C16.5128 16.2395 16.6609 16.1868 16.8513 16.1868H28.3394C28.5298 16.1868 28.6779 16.2395 28.7836 16.3449C28.8894 16.4502 28.9423 16.5662 28.9423 16.6926C28.9423 16.8191 28.8894 16.935 28.7836 17.0404C28.6779 17.1457 28.5298 17.1984 28.3394 17.1984H16.8513ZM16.8195 13.1518C16.6291 13.1518 16.4811 13.0991 16.3753 12.9937C16.2906 12.8883 16.2483 12.7724 16.2483 12.6459C16.2483 12.5195 16.2906 12.4035 16.3753 12.2981C16.4811 12.1928 16.6291 12.1401 16.8195 12.1401H20.2469C20.4373 12.1401 20.5749 12.1928 20.6595 12.2981C20.7653 12.4035 20.8182 12.5195 20.8182 12.6459C20.8182 12.7724 20.7653 12.8883 20.6595 12.9937C20.5749 13.0991 20.4373 13.1518 20.2469 13.1518H16.8195ZM24.9437 13.1518C24.7533 13.1518 24.6052 13.0991 24.4994 12.9937C24.4148 12.8883 24.3725 12.7724 24.3725 12.6459C24.3725 12.5195 24.4148 12.4035 24.4994 12.2981C24.6052 12.1928 24.7533 12.1401 24.9437 12.1401H28.3711C28.5615 12.1401 28.699 12.1928 28.7836 12.2981C28.8894 12.4035 28.9423 12.5195 28.9423 12.6459C28.9423 12.7724 28.8894 12.8883 28.7836 12.9937C28.699 13.0991 28.5615 13.1518 28.3711 13.1518H24.9437ZM18.8823 9.10506C18.6919 9.10506 18.5438 9.05234 18.438 8.94696C18.3322 8.84158 18.2794 8.72567 18.2794 8.59921C18.2794 8.47275 18.3322 8.35685 18.438 8.25146C18.5438 8.14608 18.6919 8.09338 18.8823 8.09338H26.3083C26.4987 8.09338 26.6468 8.14608 26.7526 8.25146C26.8584 8.35685 26.9113 8.47275 26.9113 8.59921C26.9113 8.72567 26.8584 8.84158 26.7526 8.94696C26.6468 9.05234 26.4987 9.10506 26.3083 9.10506H18.8823Z" fill="white"/>
<path d="M33.0679 25.2918C32.8775 25.2918 32.7294 25.2391 32.6236 25.1338C32.539 25.0284 32.4967 24.9125 32.4967 24.786C32.4967 24.6596 32.539 24.5436 32.6236 24.4382C32.7294 24.3328 32.8775 24.2802 33.0679 24.2802H36.4953C36.6857 24.2802 36.8232 24.3328 36.9078 24.4382C37.0136 24.5436 37.0665 24.6596 37.0665 24.786C37.0665 24.9125 37.0136 25.0284 36.9078 25.1338C36.8232 25.2391 36.6857 25.2918 36.4953 25.2918H33.0679ZM41.192 25.2918C41.0016 25.2918 40.8535 25.2391 40.7477 25.1338C40.6631 25.0284 40.6208 24.9125 40.6208 24.786C40.6208 24.6596 40.6631 24.5436 40.7477 24.4382C40.8535 24.3328 41.0016 24.2802 41.192 24.2802H44.6194C44.8099 24.2802 44.9474 24.3328 45.032 24.4382C45.1378 24.5436 45.1907 24.6596 45.1907 24.786C45.1907 24.9125 45.1378 25.0284 45.032 25.1338C44.9474 25.2391 44.8099 25.2918 44.6194 25.2918H41.192ZM33.0679 21.2451C32.8775 21.2451 32.7294 21.1925 32.6236 21.0871C32.539 20.9817 32.4967 20.8657 32.4967 20.7393C32.4967 20.6128 32.539 20.4969 32.6236 20.3915C32.7294 20.2862 32.8775 20.2335 33.0679 20.2335H36.4953C36.6857 20.2335 36.8232 20.2862 36.9078 20.3915C37.0136 20.4969 37.0665 20.6128 37.0665 20.7393C37.0665 20.8657 37.0136 20.9817 36.9078 21.0871C36.8232 21.1925 36.6857 21.2451 36.4953 21.2451H33.0679ZM41.192 21.2451C41.0016 21.2451 40.8535 21.1925 40.7477 21.0871C40.6631 20.9817 40.6208 20.8657 40.6208 20.7393C40.6208 20.6128 40.6631 20.4969 40.7477 20.3915C40.8535 20.2862 41.0016 20.2335 41.192 20.2335H44.6194C44.8099 20.2335 44.9474 20.2862 45.032 20.3915C45.1378 20.4969 45.1907 20.6128 45.1907 20.7393C45.1907 20.8657 45.1378 20.9817 45.032 21.0871C44.9474 21.1925 44.8099 21.2451 44.6194 21.2451H41.192ZM33.0679 17.1984C32.8775 17.1984 32.7294 17.1457 32.6236 17.0404C32.539 16.935 32.4967 16.8191 32.4967 16.6926C32.4967 16.5662 32.539 16.4502 32.6236 16.3449C32.7294 16.2395 32.8775 16.1868 33.0679 16.1868H36.4953C36.6857 16.1868 36.8232 16.2395 36.9078 16.3449C37.0136 16.4502 37.0665 16.5662 37.0665 16.6926C37.0665 16.8191 37.0136 16.935 36.9078 17.0404C36.8232 17.1457 36.6857 17.1984 36.4953 17.1984H33.0679ZM41.192 17.1984C41.0016 17.1984 40.8535 17.1457 40.7477 17.0404C40.6631 16.935 40.6208 16.8191 40.6208 16.6926C40.6208 16.5662 40.6631 16.4502 40.7477 16.3449C40.8535 16.2395 41.0016 16.1868 41.192 16.1868H44.6194C44.8099 16.1868 44.9474 16.2395 45.032 16.3449C45.1378 16.4502 45.1907 16.5662 45.1907 16.6926C45.1907 16.8191 45.1378 16.935 45.032 17.0404C44.9474 17.1457 44.8099 17.1984 44.6194 17.1984H41.192ZM33.0679 13.1518C32.8775 13.1518 32.7294 13.0991 32.6236 12.9937C32.539 12.8883 32.4967 12.7724 32.4967 12.6459C32.4967 12.5195 32.539 12.4035 32.6236 12.2981C32.7294 12.1928 32.8775 12.1401 33.0679 12.1401H36.4953C36.6857 12.1401 36.8232 12.1928 36.9078 12.2981C37.0136 12.4035 37.0665 12.5195 37.0665 12.6459C37.0665 12.7724 37.0136 12.8883 36.9078 12.9937C36.8232 13.0991 36.6857 13.1518 36.4953 13.1518H33.0679ZM41.192 13.1518C41.0016 13.1518 40.8535 13.0991 40.7477 12.9937C40.6631 12.8883 40.6208 12.7724 40.6208 12.6459C40.6208 12.5195 40.6631 12.4035 40.7477 12.2981C40.8535 12.1928 41.0016 12.1401 41.192 12.1401H44.6194C44.8099 12.1401 44.9474 12.1928 45.032 12.2981C45.1378 12.4035 45.1907 12.5195 45.1907 12.6459C45.1907 12.7724 45.1378 12.8883 45.032 12.9937C44.9474 13.0991 44.8099 13.1518 44.6194 13.1518H41.192ZM33.0996 9.10506C32.9092 9.10506 32.7611 9.05234 32.6553 8.94696C32.5496 8.84158 32.4967 8.72567 32.4967 8.59921C32.4967 8.47275 32.5496 8.35685 32.6553 8.25146C32.7611 8.14608 32.9092 8.09338 33.0996 8.09338H42.5567C42.7471 8.09338 42.8951 8.14608 43.0009 8.25146C43.1067 8.35685 43.1596 8.47275 43.1596 8.59921C43.1596 8.72567 43.1067 8.84158 43.0009 8.94696C42.8951 9.05234 42.7471 9.10506 42.5567 9.10506H33.0996Z" fill="white"/>
<path d="M49.3479 25.2918C49.1575 25.2918 49.0094 25.2391 48.9037 25.1338C48.7979 25.0284 48.745 24.9125 48.745 24.786C48.745 24.6596 48.7979 24.5436 48.9037 24.4382C49.0094 24.3328 49.1575 24.2802 49.3479 24.2802H58.805C58.9954 24.2802 59.1435 24.3328 59.2493 24.4382C59.3551 24.5436 59.408 24.6596 59.408 24.786C59.408 24.9125 59.3551 25.0284 59.2493 25.1338C59.1435 25.2391 58.9954 25.2918 58.805 25.2918H49.3479ZM57.4404 21.2451C57.2499 21.2451 57.1019 21.1925 56.9961 21.0871C56.9115 20.9817 56.8692 20.8657 56.8692 20.7393C56.8692 20.6128 56.9115 20.4969 56.9961 20.3915C57.1019 20.2862 57.2499 20.2335 57.4404 20.2335H60.8678C61.0582 20.2335 61.1957 20.2862 61.2803 20.3915C61.3861 20.4969 61.439 20.6128 61.439 20.7393C61.439 20.8657 61.3861 20.9817 61.2803 21.0871C61.1957 21.1925 61.0582 21.2451 60.8678 21.2451H57.4404ZM51.379 17.1984C51.1886 17.1984 51.0405 17.1457 50.9347 17.0404C50.8289 16.935 50.776 16.8191 50.776 16.6926C50.776 16.5662 50.8289 16.4502 50.9347 16.3449C51.0405 16.2395 51.1886 16.1868 51.379 16.1868H58.805C58.9954 16.1868 59.1435 16.2395 59.2493 16.3449C59.3551 16.4502 59.408 16.5662 59.408 16.6926C59.408 16.8191 59.3551 16.935 59.2493 17.0404C59.1435 17.1457 58.9954 17.1984 58.805 17.1984H51.379ZM49.3162 13.1518C49.1258 13.1518 48.9777 13.0991 48.8719 12.9937C48.7873 12.8883 48.745 12.7724 48.745 12.6459C48.745 12.5195 48.7873 12.4035 48.8719 12.2981C48.9777 12.1928 49.1258 12.1401 49.3162 12.1401H52.7436C52.934 12.1401 53.0715 12.1928 53.1561 12.2981C53.2619 12.4035 53.3148 12.5195 53.3148 12.6459C53.3148 12.7724 53.2619 12.8883 53.1561 12.9937C53.0715 13.0991 52.934 13.1518 52.7436 13.1518H49.3162ZM51.379 9.10506C51.1886 9.10506 51.0405 9.05234 50.9347 8.94696C50.8289 8.84158 50.776 8.72567 50.776 8.59921C50.776 8.47275 50.8289 8.35685 50.9347 8.25146C51.0405 8.14608 51.1886 8.09338 51.379 8.09338H60.836C61.0264 8.09338 61.1745 8.14608 61.2803 8.25146C61.3861 8.35685 61.439 8.47275 61.439 8.59921C61.439 8.72567 61.3861 8.84158 61.2803 8.94696C61.1745 9.05234 61.0264 9.10506 60.836 9.10506H51.379Z" fill="white"/>
<path d="M67.6273 25.2918C67.4369 25.2918 67.2888 25.2391 67.183 25.1338C67.0772 25.0284 67.0243 24.9125 67.0243 24.786C67.0243 24.6596 67.0772 24.5436 67.183 24.4382C67.2888 24.3328 67.4369 24.2802 67.6273 24.2802H75.0533C75.2437 24.2802 75.3918 24.3328 75.4976 24.4382C75.6034 24.5436 75.6563 24.6596 75.6563 24.786C75.6563 24.9125 75.6034 25.0284 75.4976 25.1338C75.3918 25.2391 75.2437 25.2918 75.0533 25.2918H67.6273ZM69.6266 21.2451C69.4362 21.2451 69.2881 21.1925 69.1823 21.0871C69.0977 20.9817 69.0554 20.8657 69.0554 20.7393C69.0554 20.6128 69.0977 20.4969 69.1823 20.3915C69.2881 20.2862 69.4362 20.2335 69.6266 20.2335H73.054C73.2444 20.2335 73.3819 20.2862 73.4666 20.3915C73.5723 20.4969 73.6252 20.6128 73.6252 20.7393C73.6252 20.8657 73.5723 20.9817 73.4666 21.0871C73.3819 21.1925 73.2444 21.2451 73.054 21.2451H69.6266ZM69.6266 17.1984C69.4362 17.1984 69.2881 17.1457 69.1823 17.0404C69.0977 16.935 69.0554 16.8191 69.0554 16.6926C69.0554 16.5662 69.0977 16.4502 69.1823 16.3449C69.2881 16.2395 69.4362 16.1868 69.6266 16.1868H73.054C73.2444 16.1868 73.3819 16.2395 73.4666 16.3449C73.5723 16.4502 73.6252 16.5662 73.6252 16.6926C73.6252 16.8191 73.5723 16.935 73.4666 17.0404C73.3819 17.1457 73.2444 17.1984 73.054 17.1984H69.6266ZM69.6266 13.1518C69.4362 13.1518 69.2881 13.0991 69.1823 12.9937C69.0977 12.8883 69.0554 12.7724 69.0554 12.6459C69.0554 12.5195 69.0977 12.4035 69.1823 12.2981C69.2881 12.1928 69.4362 12.1401 69.6266 12.1401H73.054C73.2444 12.1401 73.3819 12.1928 73.4666 12.2981C73.5723 12.4035 73.6252 12.5195 73.6252 12.6459C73.6252 12.7724 73.5723 12.8883 73.4666 12.9937C73.3819 13.0991 73.2444 13.1518 73.054 13.1518H69.6266ZM67.5956 9.10506C67.4052 9.10506 67.2571 9.05234 67.1513 8.94696C67.0666 8.84158 67.0243 8.72567 67.0243 8.59921C67.0243 8.47275 67.0666 8.35685 67.1513 8.25146C67.2571 8.14608 67.4052 8.09338 67.5956 8.09338H73.054C73.2444 8.09338 73.3819 8.14608 73.4666 8.25146C73.5723 8.35685 73.6252 8.47275 73.6252 8.59921C73.6252 8.72567 73.5723 8.84158 73.4666 8.94696C73.3819 9.05234 73.2444 9.10506 73.054 9.10506H67.5956ZM69.6266 1.01169C69.4362 1.01169 69.2881 0.95899 69.1823 0.853607C69.0977 0.748224 69.0554 0.632288 69.0554 0.505829C69.0554 0.37937 69.0977 0.263448 69.1823 0.158066C69.2881 0.0526831 69.4362 0 69.6266 0H73.054C73.2444 0 73.3819 0.0526831 73.4666 0.158066C73.5723 0.263448 73.6252 0.37937 73.6252 0.505829C73.6252 0.632288 73.5723 0.748224 73.4666 0.853607C73.3819 0.95899 73.2444 1.01169 73.054 1.01169H69.6266Z" fill="white"/>
<path d="M81.8129 25.2918C81.6224 25.2918 81.4743 25.2391 81.3686 25.1338C81.2839 25.0284 81.2416 24.9125 81.2416 24.786C81.2416 24.6596 81.2839 24.5436 81.3686 24.4382C81.4743 24.3328 81.6224 24.2802 81.8129 24.2802H85.2402C85.4307 24.2802 85.5682 24.3328 85.6528 24.4382C85.7586 24.5436 85.8115 24.6596 85.8115 24.786C85.8115 24.9125 85.7586 25.0284 85.6528 25.1338C85.5682 25.2391 85.4307 25.2918 85.2402 25.2918H81.8129ZM89.937 25.2918C89.7466 25.2918 89.5985 25.2391 89.4928 25.1338C89.4081 25.0284 89.3658 24.9125 89.3658 24.786C89.3658 24.6596 89.4081 24.5436 89.4928 24.4382C89.5985 24.3328 89.7466 24.2802 89.937 24.2802H93.3644C93.5548 24.2802 93.6923 24.3328 93.777 24.4382C93.8827 24.5436 93.9356 24.6596 93.9356 24.786C93.9356 24.9125 93.8827 25.0284 93.777 25.1338C93.6923 25.2391 93.5548 25.2918 93.3644 25.2918H89.937ZM81.8129 21.2451C81.6224 21.2451 81.4743 21.1925 81.3686 21.0871C81.2839 20.9817 81.2416 20.8657 81.2416 20.7393C81.2416 20.6128 81.2839 20.4969 81.3686 20.3915C81.4743 20.2862 81.6224 20.2335 81.8129 20.2335H85.2402C85.4307 20.2335 85.5682 20.2862 85.6528 20.3915C85.7586 20.4969 85.8115 20.6128 85.8115 20.7393C85.8115 20.8657 85.7586 20.9817 85.6528 21.0871C85.5682 21.1925 85.4307 21.2451 85.2402 21.2451H81.8129ZM89.937 21.2451C89.7466 21.2451 89.5985 21.1925 89.4928 21.0871C89.4081 20.9817 89.3658 20.8657 89.3658 20.7393C89.3658 20.6128 89.4081 20.4969 89.4928 20.3915C89.5985 20.2862 89.7466 20.2335 89.937 20.2335H93.3644C93.5548 20.2335 93.6923 20.2862 93.777 20.3915C93.8827 20.4969 93.9356 20.6128 93.9356 20.7393C93.9356 20.8657 93.8827 20.9817 93.777 21.0871C93.6923 21.1925 93.5548 21.2451 93.3644 21.2451H89.937ZM81.8129 17.1984C81.6224 17.1984 81.4743 17.1457 81.3686 17.0404C81.2839 16.935 81.2416 16.8191 81.2416 16.6926C81.2416 16.5662 81.2839 16.4502 81.3686 16.3449C81.4743 16.2395 81.6224 16.1868 81.8129 16.1868H85.2402C85.4307 16.1868 85.5682 16.2395 85.6528 16.3449C85.7586 16.4502 85.8115 16.5662 85.8115 16.6926C85.8115 16.8191 85.7586 16.935 85.6528 17.0404C85.5682 17.1457 85.4307 17.1984 85.2402 17.1984H81.8129ZM89.937 17.1984C89.7466 17.1984 89.5985 17.1457 89.4928 17.0404C89.4081 16.935 89.3658 16.8191 89.3658 16.6926C89.3658 16.5662 89.4081 16.4502 89.4928 16.3449C89.5985 16.2395 89.7466 16.1868 89.937 16.1868H93.3644C93.5548 16.1868 93.6923 16.2395 93.777 16.3449C93.8827 16.4502 93.9356 16.5662 93.9356 16.6926C93.9356 16.8191 93.8827 16.935 93.777 17.0404C93.6923 17.1457 93.5548 17.1984 93.3644 17.1984H89.937ZM81.8129 13.1518C81.6224 13.1518 81.4743 13.0991 81.3686 12.9937C81.2839 12.8883 81.2416 12.7724 81.2416 12.6459C81.2416 12.5195 81.2839 12.4035 81.3686 12.2981C81.4743 12.1928 81.6224 12.1401 81.8129 12.1401H85.2402C85.4307 12.1401 85.5682 12.1928 85.6528 12.2981C85.7586 12.4035 85.8115 12.5195 85.8115 12.6459C85.8115 12.7724 85.7586 12.8883 85.6528 12.9937C85.5682 13.0991 85.4307 13.1518 85.2402 13.1518H81.8129ZM89.937 13.1518C89.7466 13.1518 89.5985 13.0991 89.4928 12.9937C89.4081 12.8883 89.3658 12.7724 89.3658 12.6459C89.3658 12.5195 89.4081 12.4035 89.4928 12.2981C89.5985 12.1928 89.7466 12.1401 89.937 12.1401H93.3644C93.5548 12.1401 93.6923 12.1928 93.777 12.2981C93.8827 12.4035 93.9356 12.5195 93.9356 12.6459C93.9356 12.7724 93.8827 12.8883 93.777 12.9937C93.6923 13.0991 93.5548 13.1518 93.3644 13.1518H89.937ZM81.8446 9.10506C81.6542 9.10506 81.5061 9.05234 81.4003 8.94696C81.2945 8.84158 81.2416 8.72567 81.2416 8.59921C81.2416 8.47275 81.2945 8.35685 81.4003 8.25146C81.5061 8.14608 81.6542 8.09338 81.8446 8.09338H91.3016C91.492 8.09338 91.6401 8.14608 91.7459 8.25146C91.8517 8.35685 91.9046 8.47275 91.9046 8.59921C91.9046 8.72567 91.8517 8.84158 91.7459 8.94696C91.6401 9.05234 91.492 9.10506 91.3016 9.10506H81.8446Z" fill="white"/>
<path d="M98.0929 29.3385C97.9025 29.3385 97.7544 29.2858 97.6486 29.1805C97.5428 29.0751 97.49 28.9592 97.49 28.8327C97.49 28.7062 97.5428 28.5903 97.6486 28.4849C97.7544 28.3795 97.9025 28.3268 98.0929 28.3268H107.55C107.74 28.3268 107.888 28.3795 107.994 28.4849C108.1 28.5903 108.153 28.7062 108.153 28.8327C108.153 28.9592 108.1 29.0751 107.994 29.1805C107.888 29.2858 107.74 29.3385 107.55 29.3385H98.0929ZM96.0301 25.2918C95.8397 25.2918 95.7022 25.2391 95.6176 25.1338C95.5118 25.0284 95.4589 24.9125 95.4589 24.786C95.4589 24.6596 95.5118 24.5436 95.6176 24.4382C95.7022 24.3328 95.8397 24.2802 96.0301 24.2802H99.4575C99.6479 24.2802 99.7855 24.3328 99.8701 24.4382C99.9759 24.5436 100.029 24.6596 100.029 24.786C100.029 24.9125 99.9759 25.0284 99.8701 25.1338C99.7855 25.2391 99.6479 25.2918 99.4575 25.2918H96.0301ZM106.185 25.2918C105.995 25.2918 105.847 25.2391 105.741 25.1338C105.656 25.0284 105.614 24.9125 105.614 24.786C105.614 24.6596 105.656 24.5436 105.741 24.4382C105.847 24.3328 105.995 24.2802 106.185 24.2802H109.613C109.803 24.2802 109.941 24.3328 110.025 24.4382C110.131 24.5436 110.184 24.6596 110.184 24.786C110.184 24.9125 110.131 25.0284 110.025 25.1338C109.941 25.2391 109.803 25.2918 109.613 25.2918H106.185ZM100.124 21.2451C99.9335 21.2451 99.7855 21.1925 99.6797 21.0871C99.5739 20.9817 99.521 20.8657 99.521 20.7393C99.521 20.6128 99.5739 20.4969 99.6797 20.3915C99.7855 20.2862 99.9335 20.2335 100.124 20.2335H107.55C107.74 20.2335 107.888 20.2862 107.994 20.3915C108.1 20.4969 108.153 20.6128 108.153 20.7393C108.153 20.8657 108.1 20.9817 107.994 21.0871C107.888 21.1925 107.74 21.2451 107.55 21.2451H100.124ZM98.0612 17.1984C97.8708 17.1984 97.7227 17.1457 97.6169 17.0404C97.5323 16.935 97.49 16.8191 97.49 16.6926C97.49 16.5662 97.5323 16.4502 97.6169 16.3449C97.7227 16.2395 97.8708 16.1868 98.0612 16.1868H101.489C101.679 16.1868 101.816 16.2395 101.901 16.3449C102.007 16.4502 102.06 16.5662 102.06 16.6926C102.06 16.8191 102.007 16.935 101.901 17.0404C101.816 17.1457 101.679 17.1984 101.489 17.1984H98.0612ZM106.185 17.1984C105.995 17.1984 105.847 17.1457 105.741 17.0404C105.656 16.935 105.614 16.8191 105.614 16.6926C105.614 16.5662 105.656 16.4502 105.741 16.3449C105.847 16.2395 105.995 16.1868 106.185 16.1868H109.613C109.803 16.1868 109.941 16.2395 110.025 16.3449C110.131 16.4502 110.184 16.5662 110.184 16.6926C110.184 16.8191 110.131 16.935 110.025 17.0404C109.941 17.1457 109.803 17.1984 109.613 17.1984H106.185ZM98.0612 13.1518C97.8708 13.1518 97.7227 13.0991 97.6169 12.9937C97.5323 12.8883 97.49 12.7724 97.49 12.6459C97.49 12.5195 97.5323 12.4035 97.6169 12.2981C97.7227 12.1928 97.8708 12.1401 98.0612 12.1401H101.489C101.679 12.1401 101.816 12.1928 101.901 12.2981C102.007 12.4035 102.06 12.5195 102.06 12.6459C102.06 12.7724 102.007 12.8883 101.901 12.9937C101.816 13.0991 101.679 13.1518 101.489 13.1518H98.0612ZM106.185 13.1518C105.995 13.1518 105.847 13.0991 105.741 12.9937C105.656 12.8883 105.614 12.7724 105.614 12.6459C105.614 12.5195 105.656 12.4035 105.741 12.2981C105.847 12.1928 105.995 12.1401 106.185 12.1401H109.613C109.803 12.1401 109.941 12.1928 110.025 12.2981C110.131 12.4035 110.184 12.5195 110.184 12.6459C110.184 12.7724 110.131 12.8883 110.025 12.9937C109.941 13.0991 109.803 13.1518 109.613 13.1518H106.185ZM100.092 9.10506C99.9018 9.10506 99.7537 9.05234 99.6479 8.94696C99.5633 8.84158 99.521 8.72567 99.521 8.59921C99.521 8.47275 99.5633 8.35685 99.6479 8.25146C99.7537 8.14608 99.9018 8.09338 100.092 8.09338H105.551C105.741 8.09338 105.879 8.14608 105.963 8.25146C106.069 8.35685 106.122 8.47275 106.122 8.59921C106.122 8.72567 106.069 8.84158 105.963 8.94696C105.879 9.05234 105.741 9.10506 105.551 9.10506H100.092ZM108.216 9.10506C108.026 9.10506 107.878 9.05234 107.772 8.94696C107.687 8.84158 107.645 8.72567 107.645 8.59921C107.645 8.47275 107.687 8.35685 107.772 8.25146C107.878 8.14608 108.026 8.09338 108.216 8.09338H111.644C111.834 8.09338 111.972 8.14608 112.056 8.25146C112.162 8.35685 112.215 8.47275 112.215 8.59921C112.215 8.72567 112.162 8.84158 112.056 8.94696C111.972 9.05234 111.834 9.10506 111.644 9.10506H108.216Z" fill="white"/>
</g>
<defs>
<clipPath id="clip0_560_614">
<rect width="30" height="111" fill="white" transform="translate(111) rotate(90)"/>
</clipPath>
</defs>
</svg>
