<svg width="98" height="26" viewBox="0 0 98 26" fill="none" xmlns="http://www.w3.org/2000/svg">
<g clip-path="url(#clip0_560_622)">
<path d="M4.05523 26C3.42695 26 2.89389 25.7843 2.456 25.3528C2.03715 24.9214 1.82769 24.4055 1.82769 23.8052C1.82769 23.2049 2.03715 22.689 2.456 22.2576C2.89389 21.8261 3.42695 21.6104 4.05523 21.6104H7.31086C7.93914 21.6104 8.46273 21.8261 8.88158 22.2576C9.31947 22.689 9.5384 23.2049 9.5384 23.8052C9.5384 24.4055 9.31947 24.9214 8.88158 25.3528C8.46273 25.7843 7.93914 26 7.31086 26H4.05523ZM11.3661 26C10.7379 26 10.2048 25.7843 9.76689 25.3528C9.34804 24.9214 9.1386 24.4055 9.1386 23.8052C9.1386 23.2049 9.34804 22.689 9.76689 22.2576C10.2048 21.8261 10.7379 21.6104 11.3661 21.6104H12.794C13.4223 21.6104 13.9459 21.8261 14.3647 22.2576C14.8026 22.689 15.0215 23.2049 15.0215 23.8052C15.0215 24.4055 14.8026 24.9214 14.3647 25.3528C13.9459 25.7843 13.4223 26 12.794 26H11.3661ZM2.22751 22.3983C1.59924 22.3983 1.06615 22.1825 0.628261 21.7511C0.209408 21.3196 0 20.8038 0 20.2035C0 19.6032 0.209408 19.0873 0.628261 18.6558C1.06615 18.2244 1.59924 18.0087 2.22751 18.0087H3.65543C4.28371 18.0087 4.80727 18.2244 5.22612 18.6558C5.66401 19.0873 5.88297 19.6032 5.88297 20.2035C5.88297 20.8038 5.66401 21.3196 5.22612 21.7511C4.80727 22.1825 4.28371 22.3983 3.65543 22.3983H2.22751ZM9.5384 22.3983C8.91012 22.3983 8.37706 22.1825 7.93917 21.7511C7.52032 21.3196 7.31086 20.8038 7.31086 20.2035C7.31086 19.6032 7.52032 19.0873 7.93917 18.6558C8.37706 18.2244 8.91012 18.0087 9.5384 18.0087H10.9663C11.5946 18.0087 12.1181 18.2244 12.537 18.6558C12.9749 19.0873 13.1938 19.6032 13.1938 20.2035C13.1938 20.8038 12.9749 21.3196 12.537 21.7511C12.1181 22.1825 11.5946 22.3983 10.9663 22.3983H9.5384ZM6.31133 18.7965C5.49267 18.7965 4.84537 18.5808 4.3694 18.1494C3.89343 17.7179 3.65543 17.202 3.65543 16.6017C3.65543 16.0014 3.89343 15.4856 4.3694 15.0541C4.84537 14.6227 5.49267 14.4069 6.31133 14.4069H10.538C11.3566 14.4069 12.0039 14.6227 12.4799 15.0541C12.9559 15.4856 13.1938 16.0014 13.1938 16.6017C13.1938 17.202 12.9559 17.7179 12.4799 18.1494C12.0039 18.5808 11.3566 18.7965 10.538 18.7965H6.31133ZM9.5384 15.1948C8.91012 15.1948 8.37706 14.9791 7.93917 14.5476C7.52032 14.1161 7.31086 13.6003 7.31086 13C7.31086 12.3997 7.52032 11.8839 7.93917 11.4524C8.37706 11.0209 8.91012 10.8052 9.5384 10.8052H10.9663C11.5946 10.8052 12.1181 11.0209 12.537 11.4524C12.9749 11.8839 13.1938 12.3997 13.1938 13C13.1938 13.6003 12.9749 14.1161 12.537 14.5476C12.1181 14.9791 11.5946 15.1948 10.9663 15.1948H9.5384ZM4.48362 11.5931C3.66495 11.5931 3.01763 11.3773 2.54166 10.9459C2.06569 10.5144 1.82769 9.99857 1.82769 9.39828C1.82769 8.79799 2.06569 8.2821 2.54166 7.85064C3.01763 7.41919 3.66495 7.20347 4.48362 7.20347H8.71021C9.52888 7.20347 10.1762 7.41919 10.6522 7.85064C11.1281 8.2821 11.3661 8.79799 11.3661 9.39828C11.3661 9.99857 11.1281 10.5144 10.6522 10.9459C10.1762 11.3773 9.52888 11.5931 8.71021 11.5931H4.48362Z" fill="white"/>
<path d="M21.4448 26C20.6262 26 19.9789 25.7843 19.5029 25.3528C19.0269 24.9214 18.7889 24.4055 18.7889 23.8052C18.7889 23.2049 19.0269 22.689 19.5029 22.2576C19.9789 21.8261 20.6262 21.6104 21.4448 21.6104H25.6714C26.4901 21.6104 27.1375 21.8261 27.6134 22.2576C28.0894 22.689 28.3273 23.2049 28.3273 23.8052C28.3273 24.4055 28.0894 24.9214 27.6134 25.3528C27.1375 25.7843 26.4901 26 25.6714 26H21.4448ZM19.1888 22.3983C18.5605 22.3983 18.0274 22.1825 17.5895 21.7511C17.1707 21.3196 16.9612 20.8038 16.9612 20.2035C16.9612 19.6032 17.1707 19.0873 17.5895 18.6558C18.0274 18.2244 18.5605 18.0087 19.1888 18.0087H20.6167C21.2449 18.0087 21.7685 18.2244 22.1874 18.6558C22.6253 19.0873 22.8442 19.6032 22.8442 20.2035C22.8442 20.8038 22.6253 21.3196 22.1874 21.7511C21.7685 22.1825 21.2449 22.3983 20.6167 22.3983H19.1888ZM26.4996 22.3983C25.8713 22.3983 25.3383 22.1825 24.9004 21.7511C24.4815 21.3196 24.2721 20.8038 24.2721 20.2035C24.2721 19.6032 24.4815 19.0873 24.9004 18.6558C25.3383 18.2244 25.8713 18.0087 26.4996 18.0087H27.9275C28.5558 18.0087 29.0794 18.2244 29.4982 18.6558C29.9361 19.0873 30.1551 19.6032 30.1551 20.2035C30.1551 20.8038 29.9361 21.3196 29.4982 21.7511C29.0794 22.1825 28.5558 22.3983 27.9275 22.3983H26.4996ZM19.1888 18.7965C18.5605 18.7965 18.0274 18.5808 17.5895 18.1494C17.1707 17.7179 16.9612 17.202 16.9612 16.6017C16.9612 16.0014 17.1707 15.4856 17.5895 15.0541C18.0274 14.6227 18.5605 14.4069 19.1888 14.4069H20.6167C21.2449 14.4069 21.7685 14.6227 22.1874 15.0541C22.6253 15.4856 22.8442 16.0014 22.8442 16.6017C22.8442 17.202 22.6253 17.7179 22.1874 18.1494C21.7685 18.5808 21.2449 18.7965 20.6167 18.7965H19.1888ZM19.1888 15.1948C18.5605 15.1948 18.0274 14.9791 17.5895 14.5476C17.1707 14.1161 16.9612 13.6003 16.9612 13C16.9612 12.3997 17.1707 11.8839 17.5895 11.4524C18.0274 11.0209 18.5605 10.8052 19.1888 10.8052H20.6167C21.2449 10.8052 21.7685 11.0209 22.1874 11.4524C22.6253 11.8839 22.8442 12.3997 22.8442 13C22.8442 13.6003 22.6253 14.1161 22.1874 14.5476C21.7685 14.9791 21.2449 15.1948 20.6167 15.1948H19.1888ZM26.4996 15.1948C25.8713 15.1948 25.3383 14.9791 24.9004 14.5476C24.4815 14.1161 24.2721 13.6003 24.2721 13C24.2721 12.3997 24.4815 11.8839 24.9004 11.4524C25.3383 11.0209 25.8713 10.8052 26.4996 10.8052H27.9275C28.5558 10.8052 29.0794 11.0209 29.4982 11.4524C29.9361 11.8839 30.1551 12.3997 30.1551 13C30.1551 13.6003 29.9361 14.1161 29.4982 14.5476C29.0794 14.9791 28.5558 15.1948 27.9275 15.1948H26.4996ZM21.4448 11.5931C20.6262 11.5931 19.9789 11.3773 19.5029 10.9459C19.0269 10.5144 18.7889 9.99857 18.7889 9.39828C18.7889 8.79799 19.0269 8.2821 19.5029 7.85064C19.9789 7.41919 20.6262 7.20347 21.4448 7.20347H25.6714C26.4901 7.20347 27.1375 7.41919 27.6134 7.85064C28.0894 8.2821 28.3273 8.79799 28.3273 9.39828C28.3273 9.99857 28.0894 10.5144 27.6134 10.9459C27.1375 11.3773 26.4901 11.5931 25.6714 11.5931H21.4448Z" fill="white"/>
<path d="M41.6332 26C41.0049 26 40.4718 25.7843 40.0339 25.3528C39.6151 24.9214 39.4056 24.4055 39.4056 23.8052C39.4056 23.2049 39.6151 22.689 40.0339 22.2576C40.4718 21.8261 41.0049 21.6104 41.6332 21.6104H43.061C43.6893 21.6104 44.2129 21.8261 44.6317 22.2576C45.0696 22.689 45.2886 23.2049 45.2886 23.8052C45.2886 24.4055 45.0696 24.9214 44.6317 25.3528C44.2129 25.7843 43.6893 26 43.061 26H41.6332ZM39.8054 22.3983C39.1771 22.3983 38.6441 22.1825 38.2062 21.7511C37.7873 21.3196 37.5779 20.8038 37.5779 20.2035C37.5779 19.6032 37.7873 19.0873 38.2062 18.6558C38.6441 18.2244 39.1771 18.0087 39.8054 18.0087H41.2333C41.8616 18.0087 42.3852 18.2244 42.804 18.6558C43.2419 19.0873 43.4609 19.6032 43.4609 20.2035C43.4609 20.8038 43.2419 21.3196 42.804 21.7511C42.3852 22.1825 41.8616 22.3983 41.2333 22.3983H39.8054ZM44.7745 22.3983C44.2985 22.3983 43.8893 22.1825 43.5466 21.7511C43.2229 21.3196 43.061 20.8038 43.061 20.2035C43.061 19.6032 43.2229 19.0873 43.5466 18.6558C43.8893 18.2244 44.2985 18.0087 44.7745 18.0087H45.4028C45.8788 18.0087 46.2786 18.2244 46.6023 18.6558C46.945 19.0873 47.1163 19.6032 47.1163 20.2035C47.1163 20.8038 46.945 21.3196 46.6023 21.7511C46.2786 22.1825 45.8788 22.3983 45.4028 22.3983H44.7745ZM39.8054 18.7965C39.1771 18.7965 38.6441 18.5808 38.2062 18.1494C37.7873 17.7179 37.5779 17.202 37.5779 16.6017C37.5779 16.0014 37.7873 15.4856 38.2062 15.0541C38.6441 14.6227 39.1771 14.4069 39.8054 14.4069H41.2333C41.8616 14.4069 42.3852 14.6227 42.804 15.0541C43.2419 15.4856 43.4609 16.0014 43.4609 16.6017C43.4609 17.202 43.2419 17.7179 42.804 18.1494C42.3852 18.5808 41.8616 18.7965 41.2333 18.7965H39.8054ZM39.8054 15.1948C39.1771 15.1948 38.6441 14.9791 38.2062 14.5476C37.7873 14.1161 37.5779 13.6003 37.5779 13C37.5779 12.3997 37.7873 11.8839 38.2062 11.4524C38.6441 11.0209 39.1771 10.8052 39.8054 10.8052H41.2333C41.8616 10.8052 42.3852 11.0209 42.804 11.4524C43.2419 11.8839 43.4609 12.3997 43.4609 13C43.4609 13.6003 43.2419 14.1161 42.804 14.5476C42.3852 14.9791 41.8616 15.1948 41.2333 15.1948H39.8054ZM38.4061 11.5931C37.5874 11.5931 36.9401 11.3773 36.4641 10.9459C35.9882 10.5144 35.7502 9.99857 35.7502 9.39828C35.7502 8.79799 35.9882 8.2821 36.4641 7.85064C36.9401 7.41919 37.5874 7.20347 38.4061 7.20347H44.4604C45.2791 7.20347 45.9264 7.41919 46.4024 7.85064C46.8783 8.2821 47.1163 8.79799 47.1163 9.39828C47.1163 9.99857 46.8783 10.5144 46.4024 10.9459C45.9264 11.3773 45.2791 11.5931 44.4604 11.5931H38.4061ZM39.8054 7.99134C39.1771 7.99134 38.6441 7.77563 38.2062 7.34417C37.7873 6.91271 37.5779 6.39682 37.5779 5.79654C37.5779 5.19625 37.7873 4.68039 38.2062 4.24893C38.6441 3.81747 39.1771 3.60176 39.8054 3.60176H41.2333C41.8616 3.60176 42.3852 3.81747 42.804 4.24893C43.2419 4.68039 43.4609 5.19625 43.4609 5.79654C43.4609 6.39682 43.2419 6.91271 42.804 7.34417C42.3852 7.77563 41.8616 7.99134 41.2333 7.99134H39.8054ZM41.1191 4.38963C40.6431 4.38963 40.2338 4.17387 39.8911 3.74241C39.5674 3.31096 39.4056 2.7951 39.4056 2.19481C39.4056 1.59452 39.5674 1.07867 39.8911 0.647215C40.2338 0.215757 40.6431 0 41.1191 0H41.7474C42.2233 0 42.6232 0.215757 42.9468 0.647215C43.2895 1.07867 43.4609 1.59452 43.4609 2.19481C43.4609 2.7951 43.2895 3.31096 42.9468 3.74241C42.6232 4.17387 42.2233 4.38963 41.7474 4.38963H41.1191Z" fill="white"/>
<path d="M55.3673 26C54.5486 26 53.9013 25.7843 53.4253 25.3528C52.9494 24.9214 52.7114 24.4055 52.7114 23.8052C52.7114 23.2049 52.9494 22.689 53.4253 22.2576C53.9013 21.8261 54.5486 21.6104 55.3673 21.6104H59.5939C60.4126 21.6104 61.0599 21.8261 61.5358 22.2576C62.0118 22.689 62.2498 23.2049 62.2498 23.8052C62.2498 24.4055 62.0118 24.9214 61.5358 25.3528C61.0599 25.7843 60.4126 26 59.5939 26H55.3673ZM56.7667 22.3983C56.1384 22.3983 55.6053 22.1825 55.1674 21.7511C54.7485 21.3196 54.5391 20.8038 54.5391 20.2035C54.5391 19.6032 54.7485 19.0873 55.1674 18.6558C55.6053 18.2244 56.1384 18.0087 56.7667 18.0087H58.1946C58.8229 18.0087 59.3464 18.2244 59.7652 18.6558C60.2031 19.0873 60.4221 19.6032 60.4221 20.2035C60.4221 20.8038 60.2031 21.3196 59.7652 21.7511C59.3464 22.1825 58.8229 22.3983 58.1946 22.3983H56.7667ZM56.7667 18.7965C56.1384 18.7965 55.6053 18.5808 55.1674 18.1494C54.7485 17.7179 54.5391 17.202 54.5391 16.6017C54.5391 16.0014 54.7485 15.4856 55.1674 15.0541C55.6053 14.6227 56.1384 14.4069 56.7667 14.4069H58.1946C58.8229 14.4069 59.3464 14.6227 59.7652 15.0541C60.2031 15.4856 60.4221 16.0014 60.4221 16.6017C60.4221 17.202 60.2031 17.7179 59.7652 18.1494C59.3464 18.5808 58.8229 18.7965 58.1946 18.7965H56.7667ZM56.7667 15.1948C56.1384 15.1948 55.6053 14.9791 55.1674 14.5476C54.7485 14.1161 54.5391 13.6003 54.5391 13C54.5391 12.3997 54.7485 11.8839 55.1674 11.4524C55.6053 11.0209 56.1384 10.8052 56.7667 10.8052H58.1946C58.8229 10.8052 59.3464 11.0209 59.7652 11.4524C60.2031 11.8839 60.4221 12.3997 60.4221 13C60.4221 13.6003 60.2031 14.1161 59.7652 14.5476C59.3464 14.9791 58.8229 15.1948 58.1946 15.1948H56.7667ZM54.939 11.5931C54.3107 11.5931 53.7776 11.3773 53.3397 10.9459C52.9208 10.5144 52.7114 9.99857 52.7114 9.39828C52.7114 8.79799 52.9208 8.2821 53.3397 7.85064C53.7776 7.41919 54.3107 7.20347 54.939 7.20347H58.1946C58.8229 7.20347 59.3464 7.41919 59.7652 7.85064C60.2031 8.2821 60.4221 8.79799 60.4221 9.39828C60.4221 9.99857 60.2031 10.5144 59.7652 10.9459C59.3464 11.3773 58.8229 11.5931 58.1946 11.5931H54.939ZM56.7667 4.38963C56.1384 4.38963 55.6053 4.17387 55.1674 3.74241C54.7485 3.31096 54.5391 2.7951 54.5391 2.19481C54.5391 1.59452 54.7485 1.07867 55.1674 0.647215C55.6053 0.215757 56.1384 0 56.7667 0H58.1946C58.8229 0 59.3464 0.215757 59.7652 0.647215C60.2031 1.07867 60.4221 1.59452 60.4221 2.19481C60.4221 2.7951 60.2031 3.31096 59.7652 3.74241C59.3464 4.17387 58.8229 4.38963 58.1946 4.38963H56.7667Z" fill="white"/>
<path d="M72.3285 26C71.5099 26 70.8625 25.7843 70.3866 25.3528C69.9106 24.9214 69.6726 24.4055 69.6726 23.8052C69.6726 23.2049 69.9106 22.689 70.3866 22.2576C70.8625 21.8261 71.5099 21.6104 72.3285 21.6104H76.5551C77.3738 21.6104 78.0211 21.8261 78.4971 22.2576C78.9731 22.689 79.2111 23.2049 79.2111 23.8052C79.2111 24.4055 78.9731 24.9214 78.4971 25.3528C78.0211 25.7843 77.3738 26 76.5551 26H72.3285ZM70.0724 22.3983C69.4442 22.3983 68.9111 22.1825 68.4732 21.7511C68.0543 21.3196 67.8449 20.8038 67.8449 20.2035C67.8449 19.6032 68.0543 19.0873 68.4732 18.6558C68.9111 18.2244 69.4442 18.0087 70.0724 18.0087H71.5003C72.1286 18.0087 72.6522 18.2244 73.071 18.6558C73.5089 19.0873 73.7279 19.6032 73.7279 20.2035C73.7279 20.8038 73.5089 21.3196 73.071 21.7511C72.6522 22.1825 72.1286 22.3983 71.5003 22.3983H70.0724ZM77.3833 22.3983C76.755 22.3983 76.2219 22.1825 75.784 21.7511C75.3652 21.3196 75.1558 20.8038 75.1558 20.2035C75.1558 19.6032 75.3652 19.0873 75.784 18.6558C76.2219 18.2244 76.755 18.0087 77.3833 18.0087H78.8112C79.4395 18.0087 79.963 18.2244 80.3819 18.6558C80.8198 19.0873 81.0387 19.6032 81.0387 20.2035C81.0387 20.8038 80.8198 21.3196 80.3819 21.7511C79.963 22.1825 79.4395 22.3983 78.8112 22.3983H77.3833ZM70.0724 18.7965C69.4442 18.7965 68.9111 18.5808 68.4732 18.1494C68.0543 17.7179 67.8449 17.202 67.8449 16.6017C67.8449 16.0014 68.0543 15.4856 68.4732 15.0541C68.9111 14.6227 69.4442 14.4069 70.0724 14.4069H71.5003C72.1286 14.4069 72.6522 14.6227 73.071 15.0541C73.5089 15.4856 73.7279 16.0014 73.7279 16.6017C73.7279 17.202 73.5089 17.7179 73.071 18.1494C72.6522 18.5808 72.1286 18.7965 71.5003 18.7965H70.0724ZM77.3833 18.7965C76.755 18.7965 76.2219 18.5808 75.784 18.1494C75.3652 17.7179 75.1558 17.202 75.1558 16.6017C75.1558 16.0014 75.3652 15.4856 75.784 15.0541C76.2219 14.6227 76.755 14.4069 77.3833 14.4069H78.8112C79.4395 14.4069 79.963 14.6227 80.3819 15.0541C80.8198 15.4856 81.0387 16.0014 81.0387 16.6017C81.0387 17.202 80.8198 17.7179 80.3819 18.1494C79.963 18.5808 79.4395 18.7965 78.8112 18.7965H77.3833ZM70.0724 15.1948C69.4442 15.1948 68.9111 14.9791 68.4732 14.5476C68.0543 14.1161 67.8449 13.6003 67.8449 13C67.8449 12.3997 68.0543 11.8839 68.4732 11.4524C68.9111 11.0209 69.4442 10.8052 70.0724 10.8052H71.5003C72.1286 10.8052 72.6522 11.0209 73.071 11.4524C73.5089 11.8839 73.7279 12.3997 73.7279 13C73.7279 13.6003 73.5089 14.1161 73.071 14.5476C72.6522 14.9791 72.1286 15.1948 71.5003 15.1948H70.0724ZM77.3833 15.1948C76.755 15.1948 76.2219 14.9791 75.784 14.5476C75.3652 14.1161 75.1558 13.6003 75.1558 13C75.1558 12.3997 75.3652 11.8839 75.784 11.4524C76.2219 11.0209 76.755 10.8052 77.3833 10.8052H78.8112C79.4395 10.8052 79.963 11.0209 80.3819 11.4524C80.8198 11.8839 81.0387 12.3997 81.0387 13C81.0387 13.6003 80.8198 14.1161 80.3819 14.5476C79.963 14.9791 79.4395 15.1948 78.8112 15.1948H77.3833ZM72.3285 11.5931C71.5099 11.5931 70.8625 11.3773 70.3866 10.9459C69.9106 10.5144 69.6726 9.99857 69.6726 9.39828C69.6726 8.79799 69.9106 8.2821 70.3866 7.85064C70.8625 7.41919 71.5099 7.20347 72.3285 7.20347H76.5551C77.3738 7.20347 78.0211 7.41919 78.4971 7.85064C78.9731 8.2821 79.2111 8.79799 79.2111 9.39828C79.2111 9.99857 78.9731 10.5144 78.4971 10.9459C78.0211 11.3773 77.3738 11.5931 76.5551 11.5931H72.3285Z" fill="white"/>
<path d="M87.0337 26C86.4054 26 85.8723 25.7843 85.4344 25.3528C85.0156 24.9214 84.8061 24.4055 84.8061 23.8052C84.8061 23.2049 85.0156 22.689 85.4344 22.2576C85.8723 21.8261 86.4054 21.6104 87.0337 21.6104H88.4616C89.0898 21.6104 89.6134 21.8261 90.0323 22.2576C90.4702 22.689 90.6891 23.2049 90.6891 23.8052C90.6891 24.4055 90.4702 24.9214 90.0323 25.3528C89.6134 25.7843 89.0898 26 88.4616 26H87.0337ZM94.3445 26C93.7163 26 93.1832 25.7843 92.7453 25.3528C92.3264 24.9214 92.117 24.4055 92.117 23.8052C92.117 23.2049 92.3264 22.689 92.7453 22.2576C93.1832 21.8261 93.7163 21.6104 94.3445 21.6104H95.7725C96.4007 21.6104 96.9243 21.8261 97.3431 22.2576C97.781 22.689 98 23.2049 98 23.8052C98 24.4055 97.781 24.9214 97.3431 25.3528C96.9243 25.7843 96.4007 26 95.7725 26H94.3445ZM87.0337 22.3983C86.4054 22.3983 85.8723 22.1825 85.4344 21.7511C85.0156 21.3196 84.8061 20.8038 84.8061 20.2035C84.8061 19.6032 85.0156 19.0873 85.4344 18.6558C85.8723 18.2244 86.4054 18.0087 87.0337 18.0087H88.4616C89.0898 18.0087 89.6134 18.2244 90.0323 18.6558C90.4702 19.0873 90.6891 19.6032 90.6891 20.2035C90.6891 20.8038 90.4702 21.3196 90.0323 21.7511C89.6134 22.1825 89.0898 22.3983 88.4616 22.3983H87.0337ZM94.3445 22.3983C93.7163 22.3983 93.1832 22.1825 92.7453 21.7511C92.3264 21.3196 92.117 20.8038 92.117 20.2035C92.117 19.6032 92.3264 19.0873 92.7453 18.6558C93.1832 18.2244 93.7163 18.0087 94.3445 18.0087H95.7725C96.4007 18.0087 96.9243 18.2244 97.3431 18.6558C97.781 19.0873 98 19.6032 98 20.2035C98 20.8038 97.781 21.3196 97.3431 21.7511C96.9243 22.1825 96.4007 22.3983 95.7725 22.3983H94.3445ZM87.0337 18.7965C86.4054 18.7965 85.8723 18.5808 85.4344 18.1494C85.0156 17.7179 84.8061 17.202 84.8061 16.6017C84.8061 16.0014 85.0156 15.4856 85.4344 15.0541C85.8723 14.6227 86.4054 14.4069 87.0337 14.4069H88.4616C89.0898 14.4069 89.6134 14.6227 90.0323 15.0541C90.4702 15.4856 90.6891 16.0014 90.6891 16.6017C90.6891 17.202 90.4702 17.7179 90.0323 18.1494C89.6134 18.5808 89.0898 18.7965 88.4616 18.7965H87.0337ZM94.3445 18.7965C93.7163 18.7965 93.1832 18.5808 92.7453 18.1494C92.3264 17.7179 92.117 17.202 92.117 16.6017C92.117 16.0014 92.3264 15.4856 92.7453 15.0541C93.1832 14.6227 93.7163 14.4069 94.3445 14.4069H95.7725C96.4007 14.4069 96.9243 14.6227 97.3431 15.0541C97.781 15.4856 98 16.0014 98 16.6017C98 17.202 97.781 17.7179 97.3431 18.1494C96.9243 18.5808 96.4007 18.7965 95.7725 18.7965H94.3445ZM87.0337 15.1948C86.4054 15.1948 85.8723 14.9791 85.4344 14.5476C85.0156 14.1161 84.8061 13.6003 84.8061 13C84.8061 12.3997 85.0156 11.8839 85.4344 11.4524C85.8723 11.0209 86.4054 10.8052 87.0337 10.8052H88.4616C89.0898 10.8052 89.6134 11.0209 90.0323 11.4524C90.4702 11.8839 90.6891 12.3997 90.6891 13C90.6891 13.6003 90.4702 14.1161 90.0323 14.5476C89.6134 14.9791 89.0898 15.1948 88.4616 15.1948H87.0337ZM94.3445 15.1948C93.7163 15.1948 93.1832 14.9791 92.7453 14.5476C92.3264 14.1161 92.117 13.6003 92.117 13C92.117 12.3997 92.3264 11.8839 92.7453 11.4524C93.1832 11.0209 93.7163 10.8052 94.3445 10.8052H95.7725C96.4007 10.8052 96.9243 11.0209 97.3431 11.4524C97.781 11.8839 98 12.3997 98 13C98 13.6003 97.781 14.1161 97.3431 14.5476C96.9243 14.9791 96.4007 15.1948 95.7725 15.1948H94.3445ZM87.462 11.5931C86.6434 11.5931 85.9961 11.3773 85.5201 10.9459C85.0441 10.5144 84.8061 9.99857 84.8061 9.39828C84.8061 8.79799 85.0441 8.2821 85.5201 7.85064C85.9961 7.41919 86.6434 7.20347 87.462 7.20347H93.5164C94.335 7.20347 94.9824 7.41919 95.4583 7.85064C95.9343 8.2821 96.1723 8.79799 96.1723 9.39828C96.1723 9.99857 95.9343 10.5144 95.4583 10.9459C94.9824 11.3773 94.335 11.5931 93.5164 11.5931H87.462Z" fill="white"/>
</g>
<defs>
<clipPath id="clip0_560_622">
<rect width="26" height="98" fill="white" transform="translate(98) rotate(90)"/>
</clipPath>
</defs>
</svg>
