<svg width="146" height="57" viewBox="0 0 146 57" fill="none" xmlns="http://www.w3.org/2000/svg">
<g clip-path="url(#clip0_560_622)">
<path d="M28.0552 39C27.427 39 26.8939 38.7843 26.456 38.3528C26.0372 37.9214 25.8277 37.4055 25.8277 36.8052C25.8277 36.2049 26.0372 35.689 26.456 35.2576C26.8939 34.8261 27.427 34.6104 28.0552 34.6104H31.3109C31.9391 34.6104 32.4627 34.8261 32.8816 35.2576C33.3195 35.689 33.5384 36.2049 33.5384 36.8052C33.5384 37.4055 33.3195 37.9214 32.8816 38.3528C32.4627 38.7843 31.9391 39 31.3109 39H28.0552ZM35.3661 39C34.7379 39 34.2048 38.7843 33.7669 38.3528C33.348 37.9214 33.1386 37.4055 33.1386 36.8052C33.1386 36.2049 33.348 35.689 33.7669 35.2576C34.2048 34.8261 34.7379 34.6104 35.3661 34.6104H36.794C37.4223 34.6104 37.9459 34.8261 38.3647 35.2576C38.8026 35.689 39.0215 36.2049 39.0215 36.8052C39.0215 37.4055 38.8026 37.9214 38.3647 38.3528C37.9459 38.7843 37.4223 39 36.794 39H35.3661ZM26.2275 35.3983C25.5992 35.3983 25.0662 35.1825 24.6283 34.7511C24.2094 34.3196 24 33.8038 24 33.2035C24 32.6032 24.2094 32.0873 24.6283 31.6558C25.0662 31.2244 25.5992 31.0087 26.2275 31.0087H27.6554C28.2837 31.0087 28.8073 31.2244 29.2261 31.6558C29.664 32.0873 29.883 32.6032 29.883 33.2035C29.883 33.8038 29.664 34.3196 29.2261 34.7511C28.8073 35.1825 28.2837 35.3983 27.6554 35.3983H26.2275ZM33.5384 35.3983C32.9101 35.3983 32.3771 35.1825 31.9392 34.7511C31.5203 34.3196 31.3109 33.8038 31.3109 33.2035C31.3109 32.6032 31.5203 32.0873 31.9392 31.6558C32.3771 31.2244 32.9101 31.0087 33.5384 31.0087H34.9663C35.5946 31.0087 36.1181 31.2244 36.537 31.6558C36.9749 32.0873 37.1938 32.6032 37.1938 33.2035C37.1938 33.8038 36.9749 34.3196 36.537 34.7511C36.1181 35.1825 35.5946 35.3983 34.9663 35.3983H33.5384ZM30.3113 31.7965C29.4927 31.7965 28.8454 31.5808 28.3694 31.1494C27.8934 30.7179 27.6554 30.202 27.6554 29.6017C27.6554 29.0014 27.8934 28.4856 28.3694 28.0541C28.8454 27.6227 29.4927 27.4069 30.3113 27.4069H34.538C35.3566 27.4069 36.0039 27.6227 36.4799 28.0541C36.9559 28.4856 37.1938 29.0014 37.1938 29.6017C37.1938 30.202 36.9559 30.7179 36.4799 31.1494C36.0039 31.5808 35.3566 31.7965 34.538 31.7965H30.3113ZM33.5384 28.1948C32.9101 28.1948 32.3771 27.9791 31.9392 27.5476C31.5203 27.1161 31.3109 26.6003 31.3109 26C31.3109 25.3997 31.5203 24.8839 31.9392 24.4524C32.3771 24.0209 32.9101 23.8052 33.5384 23.8052H34.9663C35.5946 23.8052 36.1181 24.0209 36.537 24.4524C36.9749 24.8839 37.1938 25.3997 37.1938 26C37.1938 26.6003 36.9749 27.1161 36.537 27.5476C36.1181 27.9791 35.5946 28.1948 34.9663 28.1948H33.5384ZM28.4836 24.5931C27.665 24.5931 27.0176 24.3773 26.5417 23.9459C26.0657 23.5144 25.8277 22.9986 25.8277 22.3983C25.8277 21.798 26.0657 21.2821 26.5417 20.8506C27.0176 20.4192 27.665 20.2035 28.4836 20.2035H32.7102C33.5289 20.2035 34.1762 20.4192 34.6522 20.8506C35.1281 21.2821 35.3661 21.798 35.3661 22.3983C35.3661 22.9986 35.1281 23.5144 34.6522 23.9459C34.1762 24.3773 33.5289 24.5931 32.7102 24.5931H28.4836Z" fill="white"/>
<path d="M45.4448 39C44.6262 39 43.9789 38.7843 43.5029 38.3528C43.0269 37.9214 42.7889 37.4055 42.7889 36.8052C42.7889 36.2049 43.0269 35.689 43.5029 35.2576C43.9789 34.8261 44.6262 34.6104 45.4448 34.6104H49.6714C50.4901 34.6104 51.1375 34.8261 51.6134 35.2576C52.0894 35.689 52.3273 36.2049 52.3273 36.8052C52.3273 37.4055 52.0894 37.9214 51.6134 38.3528C51.1375 38.7843 50.4901 39 49.6714 39H45.4448ZM43.1888 35.3983C42.5605 35.3983 42.0274 35.1825 41.5895 34.7511C41.1707 34.3196 40.9612 33.8038 40.9612 33.2035C40.9612 32.6032 41.1707 32.0873 41.5895 31.6558C42.0274 31.2244 42.5605 31.0087 43.1888 31.0087H44.6167C45.2449 31.0087 45.7685 31.2244 46.1874 31.6558C46.6253 32.0873 46.8442 32.6032 46.8442 33.2035C46.8442 33.8038 46.6253 34.3196 46.1874 34.7511C45.7685 35.1825 45.2449 35.3983 44.6167 35.3983H43.1888ZM50.4996 35.3983C49.8713 35.3983 49.3383 35.1825 48.9004 34.7511C48.4815 34.3196 48.2721 33.8038 48.2721 33.2035C48.2721 32.6032 48.4815 32.0873 48.9004 31.6558C49.3383 31.2244 49.8713 31.0087 50.4996 31.0087H51.9275C52.5558 31.0087 53.0794 31.2244 53.4982 31.6558C53.9361 32.0873 54.1551 32.6032 54.1551 33.2035C54.1551 33.8038 53.9361 34.3196 53.4982 34.7511C53.0794 35.1825 52.5558 35.3983 51.9275 35.3983H50.4996ZM43.1888 31.7965C42.5605 31.7965 42.0274 31.5808 41.5895 31.1494C41.1707 30.7179 40.9612 30.202 40.9612 29.6017C40.9612 29.0014 41.1707 28.4856 41.5895 28.0541C42.0274 27.6227 42.5605 27.4069 43.1888 27.4069H44.6167C45.2449 27.4069 45.7685 27.6227 46.1874 28.0541C46.6253 28.4856 46.8442 29.0014 46.8442 29.6017C46.8442 30.202 46.6253 30.7179 46.1874 31.1494C45.7685 31.5808 45.2449 31.7965 44.6167 31.7965H43.1888ZM43.1888 28.1948C42.5605 28.1948 42.0274 27.9791 41.5895 27.5476C41.1707 27.1161 40.9612 26.6003 40.9612 26C40.9612 25.3997 41.1707 24.8839 41.5895 24.4524C42.0274 24.0209 42.5605 23.8052 43.1888 23.8052H44.6167C45.2449 23.8052 45.7685 24.0209 46.1874 24.4524C46.6253 24.8839 46.8442 25.3997 46.8442 26C46.8442 26.6003 46.6253 27.1161 46.1874 27.5476C45.7685 27.9791 45.2449 28.1948 44.6167 28.1948H43.1888ZM50.4996 28.1948C49.8713 28.1948 49.3383 27.9791 48.9004 27.5476C48.4815 27.1161 48.2721 26.6003 48.2721 26C48.2721 25.3997 48.4815 24.8839 48.9004 24.4524C49.3383 24.0209 49.8713 23.8052 50.4996 23.8052H51.9275C52.5558 23.8052 53.0794 24.0209 53.4982 24.4524C53.9361 24.8839 54.1551 25.3997 54.1551 26C54.1551 26.6003 53.9361 27.1161 53.4982 27.5476C53.0794 27.9791 52.5558 28.1948 51.9275 28.1948H50.4996ZM45.4448 24.5931C44.6262 24.5931 43.9789 24.3773 43.5029 23.9459C43.0269 23.5144 42.7889 22.9986 42.7889 22.3983C42.7889 21.798 43.0269 21.2821 43.5029 20.8506C43.9789 20.4192 44.6262 20.2035 45.4448 20.2035H49.6714C50.4901 20.2035 51.1375 20.4192 51.6134 20.8506C52.0894 21.2821 52.3273 21.798 52.3273 22.3983C52.3273 22.9986 52.0894 23.5144 51.6134 23.9459C51.1375 24.3773 50.4901 24.5931 49.6714 24.5931H45.4448Z" fill="white"/>
<path d="M65.6332 39C65.0049 39 64.4718 38.7843 64.0339 38.3528C63.6151 37.9214 63.4056 37.4055 63.4056 36.8052C63.4056 36.2049 63.6151 35.689 64.0339 35.2576C64.4718 34.8261 65.0049 34.6104 65.6332 34.6104H67.061C67.6893 34.6104 68.2129 34.8261 68.6317 35.2576C69.0696 35.689 69.2886 36.2049 69.2886 36.8052C69.2886 37.4055 69.0696 37.9214 68.6317 38.3528C68.2129 38.7843 67.6893 39 67.061 39H65.6332ZM63.8054 35.3983C63.1771 35.3983 62.6441 35.1825 62.2062 34.7511C61.7873 34.3196 61.5779 33.8038 61.5779 33.2035C61.5779 32.6032 61.7873 32.0873 62.2062 31.6558C62.6441 31.2244 63.1771 31.0087 63.8054 31.0087H65.2333C65.8616 31.0087 66.3852 31.2244 66.804 31.6558C67.2419 32.0873 67.4609 32.6032 67.4609 33.2035C67.4609 33.8038 67.2419 34.3196 66.804 34.7511C66.3852 35.1825 65.8616 35.3983 65.2333 35.3983H63.8054ZM68.7745 35.3983C68.2985 35.3983 67.8893 35.1825 67.5466 34.7511C67.2229 34.3196 67.061 33.8038 67.061 33.2035C67.061 32.6032 67.2229 32.0873 67.5466 31.6558C67.8893 31.2244 68.2985 31.0087 68.7745 31.0087H69.4028C69.8788 31.0087 70.2786 31.2244 70.6023 31.6558C70.945 32.0873 71.1163 32.6032 71.1163 33.2035C71.1163 33.8038 70.945 34.3196 70.6023 34.7511C70.2786 35.1825 69.8788 35.3983 69.4028 35.3983H68.7745ZM63.8054 31.7965C63.1771 31.7965 62.6441 31.5808 62.2062 31.1494C61.7873 30.7179 61.5779 30.202 61.5779 29.6017C61.5779 29.0014 61.7873 28.4856 62.2062 28.0541C62.6441 27.6227 63.1771 27.4069 63.8054 27.4069H65.2333C65.8616 27.4069 66.3852 27.6227 66.804 28.0541C67.2419 28.4856 67.4609 29.0014 67.4609 29.6017C67.4609 30.202 67.2419 30.7179 66.804 31.1494C66.3852 31.5808 65.8616 31.7965 65.2333 31.7965H63.8054ZM63.8054 28.1948C63.1771 28.1948 62.6441 27.9791 62.2062 27.5476C61.7873 27.1161 61.5779 26.6003 61.5779 26C61.5779 25.3997 61.7873 24.8839 62.2062 24.4524C62.6441 24.0209 63.1771 23.8052 63.8054 23.8052H65.2333C65.8616 23.8052 66.3852 24.0209 66.804 24.4524C67.2419 24.8839 67.4609 25.3997 67.4609 26C67.4609 26.6003 67.2419 27.1161 66.804 27.5476C66.3852 27.9791 65.8616 28.1948 65.2333 28.1948H63.8054ZM62.4061 24.5931C61.5874 24.5931 60.9401 24.3773 60.4641 23.9459C59.9882 23.5144 59.7502 22.9986 59.7502 22.3983C59.7502 21.798 59.9882 21.2821 60.4641 20.8506C60.9401 20.4192 61.5874 20.2035 62.4061 20.2035H68.4604C69.2791 20.2035 69.9264 20.4192 70.4024 20.8506C70.8783 21.2821 71.1163 21.798 71.1163 22.3983C71.1163 22.9986 70.8783 23.5144 70.4024 23.9459C69.9264 24.3773 69.2791 24.5931 68.4604 24.5931H62.4061ZM63.8054 20.9913C63.1771 20.9913 62.6441 20.7756 62.2062 20.3442C61.7873 19.9127 61.5779 19.3968 61.5779 18.7965C61.5779 18.1962 61.7873 17.6804 62.2062 17.2489C62.6441 16.8175 63.1771 16.6018 63.8054 16.6018H65.2333C65.8616 16.6018 66.3852 16.8175 66.804 17.2489C67.2419 17.6804 67.4609 18.1962 67.4609 18.7965C67.4609 19.3968 67.2419 19.9127 66.804 20.3442C66.3852 20.7756 65.8616 20.9913 65.2333 20.9913H63.8054ZM65.1191 17.3896C64.6431 17.3896 64.2338 17.1739 63.8911 16.7424C63.5674 16.311 63.4056 15.7951 63.4056 15.1948C63.4056 14.5945 63.5674 14.0787 63.8911 13.6472C64.2338 13.2158 64.6431 13 65.1191 13H65.7474C66.2233 13 66.6232 13.2158 66.9468 13.6472C67.2895 14.0787 67.4609 14.5945 67.4609 15.1948C67.4609 15.7951 67.2895 16.311 66.9468 16.7424C66.6232 17.1739 66.2233 17.3896 65.7474 17.3896H65.1191Z" fill="white"/>
<path d="M79.3673 39C78.5486 39 77.9013 38.7843 77.4253 38.3528C76.9494 37.9214 76.7114 37.4055 76.7114 36.8052C76.7114 36.2049 76.9494 35.689 77.4253 35.2576C77.9013 34.8261 78.5486 34.6104 79.3673 34.6104H83.5939C84.4126 34.6104 85.0599 34.8261 85.5358 35.2576C86.0118 35.689 86.2498 36.2049 86.2498 36.8052C86.2498 37.4055 86.0118 37.9214 85.5358 38.3528C85.0599 38.7843 84.4126 39 83.5939 39H79.3673ZM80.7667 35.3983C80.1384 35.3983 79.6053 35.1825 79.1674 34.7511C78.7485 34.3196 78.5391 33.8038 78.5391 33.2035C78.5391 32.6032 78.7485 32.0873 79.1674 31.6558C79.6053 31.2244 80.1384 31.0087 80.7667 31.0087H82.1946C82.8229 31.0087 83.3464 31.2244 83.7652 31.6558C84.2031 32.0873 84.4221 32.6032 84.4221 33.2035C84.4221 33.8038 84.2031 34.3196 83.7652 34.7511C83.3464 35.1825 82.8229 35.3983 82.1946 35.3983H80.7667ZM80.7667 31.7965C80.1384 31.7965 79.6053 31.5808 79.1674 31.1494C78.7485 30.7179 78.5391 30.202 78.5391 29.6017C78.5391 29.0014 78.7485 28.4856 79.1674 28.0541C79.6053 27.6227 80.1384 27.4069 80.7667 27.4069H82.1946C82.8229 27.4069 83.3464 27.6227 83.7652 28.0541C84.2031 28.4856 84.4221 29.0014 84.4221 29.6017C84.4221 30.202 84.2031 30.7179 83.7652 31.1494C83.3464 31.5808 82.8229 31.7965 82.1946 31.7965H80.7667ZM80.7667 28.1948C80.1384 28.1948 79.6053 27.9791 79.1674 27.5476C78.7485 27.1161 78.5391 26.6003 78.5391 26C78.5391 25.3997 78.7485 24.8839 79.1674 24.4524C79.6053 24.0209 80.1384 23.8052 80.7667 23.8052H82.1946C82.8229 23.8052 83.3464 24.0209 83.7652 24.4524C84.2031 24.8839 84.4221 25.3997 84.4221 26C84.4221 26.6003 84.2031 27.1161 83.7652 27.5476C83.3464 27.9791 82.8229 28.1948 82.1946 28.1948H80.7667ZM78.939 24.5931C78.3107 24.5931 77.7776 24.3773 77.3397 23.9459C76.9208 23.5144 76.7114 22.9986 76.7114 22.3983C76.7114 21.798 76.9208 21.2821 77.3397 20.8506C77.7776 20.4192 78.3107 20.2035 78.939 20.2035H82.1946C82.8229 20.2035 83.3464 20.4192 83.7652 20.8506C84.2031 21.2821 84.4221 21.798 84.4221 22.3983C84.4221 22.9986 84.2031 23.5144 83.7652 23.9459C83.3464 24.3773 82.8229 24.5931 82.1946 24.5931H78.939ZM80.7667 17.3896C80.1384 17.3896 79.6053 17.1739 79.1674 16.7424C78.7485 16.311 78.5391 15.7951 78.5391 15.1948C78.5391 14.5945 78.7485 14.0787 79.1674 13.6472C79.6053 13.2158 80.1384 13 80.7667 13H82.1946C82.8229 13 83.3464 13.2158 83.7652 13.6472C84.2031 14.0787 84.4221 14.5945 84.4221 15.1948C84.4221 15.7951 84.2031 16.311 83.7652 16.7424C83.3464 17.1739 82.8229 17.3896 82.1946 17.3896H80.7667Z" fill="white"/>
<path d="M96.3285 39C95.5099 39 94.8625 38.7843 94.3866 38.3528C93.9106 37.9214 93.6726 37.4055 93.6726 36.8052C93.6726 36.2049 93.9106 35.689 94.3866 35.2576C94.8625 34.8261 95.5099 34.6104 96.3285 34.6104H100.555C101.374 34.6104 102.021 34.8261 102.497 35.2576C102.973 35.689 103.211 36.2049 103.211 36.8052C103.211 37.4055 102.973 37.9214 102.497 38.3528C102.021 38.7843 101.374 39 100.555 39H96.3285ZM94.0724 35.3983C93.4442 35.3983 92.9111 35.1825 92.4732 34.7511C92.0543 34.3196 91.8449 33.8038 91.8449 33.2035C91.8449 32.6032 92.0543 32.0873 92.4732 31.6558C92.9111 31.2244 93.4442 31.0087 94.0724 31.0087H95.5003C96.1286 31.0087 96.6522 31.2244 97.071 31.6558C97.5089 32.0873 97.7279 32.6032 97.7279 33.2035C97.7279 33.8038 97.5089 34.3196 97.071 34.7511C96.6522 35.1825 96.1286 35.3983 95.5003 35.3983H94.0724ZM101.383 35.3983C100.755 35.3983 100.222 35.1825 99.784 34.7511C99.3652 34.3196 99.1558 33.8038 99.1558 33.2035C99.1558 32.6032 99.3652 32.0873 99.784 31.6558C100.222 31.2244 100.755 31.0087 101.383 31.0087H102.811C103.44 31.0087 103.963 31.2244 104.382 31.6558C104.82 32.0873 105.039 32.6032 105.039 33.2035C105.039 33.8038 104.82 34.3196 104.382 34.7511C103.963 35.1825 103.44 35.3983 102.811 35.3983H101.383ZM94.0724 31.7965C93.4442 31.7965 92.9111 31.5808 92.4732 31.1494C92.0543 30.7179 91.8449 30.202 91.8449 29.6017C91.8449 29.0014 92.0543 28.4856 92.4732 28.0541C92.9111 27.6227 93.4442 27.4069 94.0724 27.4069H95.5003C96.1286 27.4069 96.6522 27.6227 97.071 28.0541C97.5089 28.4856 97.7279 29.0014 97.7279 29.6017C97.7279 30.202 97.5089 30.7179 97.071 31.1494C96.6522 31.5808 96.1286 31.7965 95.5003 31.7965H94.0724ZM101.383 31.7965C100.755 31.7965 100.222 31.5808 99.784 31.1494C99.3652 30.7179 99.1558 30.202 99.1558 29.6017C99.1558 29.0014 99.3652 28.4856 99.784 28.0541C100.222 27.6227 100.755 27.4069 101.383 27.4069H102.811C103.44 27.4069 103.963 27.6227 104.382 28.0541C104.82 28.4856 105.039 29.0014 105.039 29.6017C105.039 30.202 104.82 30.7179 104.382 31.1494C103.963 31.5808 103.44 31.7965 102.811 31.7965H101.383ZM94.0724 28.1948C93.4442 28.1948 92.9111 27.9791 92.4732 27.5476C92.0543 27.1161 91.8449 26.6003 91.8449 26C91.8449 25.3997 92.0543 24.8839 92.4732 24.4524C92.9111 24.0209 93.4442 23.8052 94.0724 23.8052H95.5003C96.1286 23.8052 96.6522 24.0209 97.071 24.4524C97.5089 24.8839 97.7279 25.3997 97.7279 26C97.7279 26.6003 97.5089 27.1161 97.071 27.5476C96.6522 27.9791 96.1286 28.1948 95.5003 28.1948H94.0724ZM101.383 28.1948C100.755 28.1948 100.222 27.9791 99.784 27.5476C99.3652 27.1161 99.1558 26.6003 99.1558 26C99.1558 25.3997 99.3652 24.8839 99.784 24.4524C100.222 24.0209 100.755 23.8052 101.383 23.8052H102.811C103.44 23.8052 103.963 24.0209 104.382 24.4524C104.82 24.8839 105.039 25.3997 105.039 26C105.039 26.6003 104.82 27.1161 104.382 27.5476C103.963 27.9791 103.44 28.1948 102.811 28.1948H101.383ZM96.3285 24.5931C95.5099 24.5931 94.8625 24.3773 94.3866 23.9459C93.9106 23.5144 93.6726 22.9986 93.6726 22.3983C93.6726 21.798 93.9106 21.2821 94.3866 20.8506C94.8625 20.4192 95.5099 20.2035 96.3285 20.2035H100.555C101.374 20.2035 102.021 20.4192 102.497 20.8506C102.973 21.2821 103.211 21.798 103.211 22.3983C103.211 22.9986 102.973 23.5144 102.497 23.9459C102.021 24.3773 101.374 24.5931 100.555 24.5931H96.3285Z" fill="white"/>
<path d="M111.034 39C110.405 39 109.872 38.7843 109.434 38.3528C109.016 37.9214 108.806 37.4055 108.806 36.8052C108.806 36.2049 109.016 35.689 109.434 35.2576C109.872 34.8261 110.405 34.6104 111.034 34.6104H112.462C113.09 34.6104 113.613 34.8261 114.032 35.2576C114.47 35.689 114.689 36.2049 114.689 36.8052C114.689 37.4055 114.47 37.9214 114.032 38.3528C113.613 38.7843 113.09 39 112.462 39H111.034ZM118.345 39C117.716 39 117.183 38.7843 116.745 38.3528C116.326 37.9214 116.117 37.4055 116.117 36.8052C116.117 36.2049 116.326 35.689 116.745 35.2576C117.183 34.8261 117.716 34.6104 118.345 34.6104H119.772C120.401 34.6104 120.924 34.8261 121.343 35.2576C121.781 35.689 122 36.2049 122 36.8052C122 37.4055 121.781 37.9214 121.343 38.3528C120.924 38.7843 120.401 39 119.772 39H118.345ZM111.034 35.3983C110.405 35.3983 109.872 35.1825 109.434 34.7511C109.016 34.3196 108.806 33.8038 108.806 33.2035C108.806 32.6032 109.016 32.0873 109.434 31.6558C109.872 31.2244 110.405 31.0087 111.034 31.0087H112.462C113.09 31.0087 113.613 31.2244 114.032 31.6558C114.47 32.0873 114.689 32.6032 114.689 33.2035C114.689 33.8038 114.47 34.3196 114.032 34.7511C113.613 35.1825 113.09 35.3983 112.462 35.3983H111.034ZM118.345 35.3983C117.716 35.3983 117.183 35.1825 116.745 34.7511C116.326 34.3196 116.117 33.8038 116.117 33.2035C116.117 32.6032 116.326 32.0873 116.745 31.6558C117.183 31.2244 117.716 31.0087 118.345 31.0087H119.772C120.401 31.0087 120.924 31.2244 121.343 31.6558C121.781 32.0873 122 32.6032 122 33.2035C122 33.8038 121.781 34.3196 121.343 34.7511C120.924 35.1825 120.401 35.3983 119.772 35.3983H118.345ZM111.034 31.7965C110.405 31.7965 109.872 31.5808 109.434 31.1494C109.016 30.7179 108.806 30.202 108.806 29.6017C108.806 29.0014 109.016 28.4856 109.434 28.0541C109.872 27.6227 110.405 27.4069 111.034 27.4069H112.462C113.09 27.4069 113.613 27.6227 114.032 28.0541C114.47 28.4856 114.689 29.0014 114.689 29.6017C114.689 30.202 114.47 30.7179 114.032 31.1494C113.613 31.5808 113.09 31.7965 112.462 31.7965H111.034ZM118.345 31.7965C117.716 31.7965 117.183 31.5808 116.745 31.1494C116.326 30.7179 116.117 30.202 116.117 29.6017C116.117 29.0014 116.326 28.4856 116.745 28.0541C117.183 27.6227 117.716 27.4069 118.345 27.4069H119.772C120.401 27.4069 120.924 27.6227 121.343 28.0541C121.781 28.4856 122 29.0014 122 29.6017C122 30.202 121.781 30.7179 121.343 31.1494C120.924 31.5808 120.401 31.7965 119.772 31.7965H118.345ZM111.034 28.1948C110.405 28.1948 109.872 27.9791 109.434 27.5476C109.016 27.1161 108.806 26.6003 108.806 26C108.806 25.3997 109.016 24.8839 109.434 24.4524C109.872 24.0209 110.405 23.8052 111.034 23.8052H112.462C113.09 23.8052 113.613 24.0209 114.032 24.4524C114.47 24.8839 114.689 25.3997 114.689 26C114.689 26.6003 114.47 27.1161 114.032 27.5476C113.613 27.9791 113.09 28.1948 112.462 28.1948H111.034ZM118.345 28.1948C117.716 28.1948 117.183 27.9791 116.745 27.5476C116.326 27.1161 116.117 26.6003 116.117 26C116.117 25.3997 116.326 24.8839 116.745 24.4524C117.183 24.0209 117.716 23.8052 118.345 23.8052H119.772C120.401 23.8052 120.924 24.0209 121.343 24.4524C121.781 24.8839 122 25.3997 122 26C122 26.6003 121.781 27.1161 121.343 27.5476C120.924 27.9791 120.401 28.1948 119.772 28.1948H118.345ZM111.462 24.5931C110.643 24.5931 109.996 24.3773 109.52 23.9459C109.044 23.5144 108.806 22.9986 108.806 22.3983C108.806 21.798 109.044 21.2821 109.52 20.8506C109.996 20.4192 110.643 20.2035 111.462 20.2035H117.516C118.335 20.2035 118.982 20.4192 119.458 20.8506C119.934 21.2821 120.172 21.798 120.172 22.3983C120.172 22.9986 119.934 23.5144 119.458 23.9459C118.982 24.3773 118.335 24.5931 117.516 24.5931H111.462Z" fill="white"/>
</g>
<defs>
<clipPath id="clip0_560_622">
<rect width="57" height="146" fill="white" transform="translate(146) rotate(90)"/>
</clipPath>
</defs>
</svg>
