<?xml version="1.0" encoding="UTF-8"?>
<svg version="1.1" xmlns="http://www.w3.org/2000/svg" width="281" height="281">
<path d="M0 0 C10.89 0 21.78 0 33 0 C33 21.12 33 42.24 33 64 C43.56 64 54.12 64 65 64 C65 53.44 65 42.88 65 32 C75.56 32 86.12 32 97 32 C97 21.44 97 10.88 97 0 C107.89 0 118.78 0 130 0 C130 10.89 130 21.78 130 33 C119.44 33 108.88 33 98 33 C98 43.56 98 54.12 98 65 C87.11 65 76.22 65 65 65 C65 75.56 65 86.12 65 97 C75.89 97 86.78 97 98 97 C98 107.56 98 118.12 98 129 C108.56 129 119.12 129 130 129 C130 139.89 130 150.78 130 162 C119.11 162 108.22 162 97 162 C97 151.44 97 140.88 97 130 C86.44 130 75.88 130 65 130 C65 119.44 65 108.88 65 98 C54.44 98 43.88 98 33 98 C33 119.12 33 140.24 33 162 C22.11 162 11.22 162 0 162 C0 108.54 0 55.08 0 0 Z " fill="#FFFFFF" transform="translate(75,59)"/>
</svg>
