<svg width="146" height="57" viewBox="0 0 146 57" fill="none" xmlns="http://www.w3.org/2000/svg">
<g clip-path="url(#clip0_560_614)">
<path d="M16.603 39.2918C16.4126 39.2918 16.2644 39.2391 16.1587 39.1338C16.0529 39.0284 16 38.9125 16 38.786C16 38.6596 16.0529 38.5436 16.1587 38.4382C16.2644 38.3328 16.4126 38.2802 16.603 38.2802H26.06C26.2504 38.2802 26.3985 38.3328 26.5043 38.4382C26.6101 38.5436 26.663 38.6596 26.663 38.786C26.663 38.9125 26.6101 39.0284 26.5043 39.1338C26.3985 39.2391 26.2504 39.2918 26.06 39.2918H16.603ZM24.6954 35.2451C24.505 35.2451 24.3569 35.1925 24.2511 35.0871C24.1665 34.9817 24.1242 34.8657 24.1242 34.7393C24.1242 34.6128 24.1665 34.4969 24.2511 34.3915C24.3569 34.2862 24.505 34.2335 24.6954 34.2335H28.1228C28.3132 34.2335 28.4507 34.2862 28.5353 34.3915C28.6411 34.4969 28.694 34.6128 28.694 34.7393C28.694 34.8657 28.6411 34.9817 28.5353 35.0871C28.4507 35.1925 28.3132 35.2451 28.1228 35.2451H24.6954ZM18.634 31.1984C18.4436 31.1984 18.2955 31.1457 18.1897 31.0404C18.0839 30.935 18.031 30.8191 18.031 30.6926C18.031 30.5662 18.0839 30.4502 18.1897 30.3449C18.2955 30.2395 18.4436 30.1868 18.634 30.1868H26.06C26.2504 30.1868 26.3985 30.2395 26.5043 30.3449C26.6101 30.4502 26.663 30.5662 26.663 30.6926C26.663 30.8191 26.6101 30.935 26.5043 31.0404C26.3985 31.1457 26.2504 31.1984 26.06 31.1984H18.634ZM16.5712 27.1518C16.3808 27.1518 16.2327 27.0991 16.1269 26.9937C16.0423 26.8883 16 26.7724 16 26.6459C16 26.5195 16.0423 26.4035 16.1269 26.2981C16.2327 26.1928 16.3808 26.1401 16.5712 26.1401H19.9986C20.189 26.1401 20.3265 26.1928 20.4112 26.2981C20.5169 26.4035 20.5698 26.5195 20.5698 26.6459C20.5698 26.7724 20.5169 26.8883 20.4112 26.9937C20.3265 27.0991 20.189 27.1518 19.9986 27.1518H16.5712ZM18.634 23.1051C18.4436 23.1051 18.2955 23.0523 18.1897 22.947C18.0839 22.8416 18.031 22.7257 18.031 22.5992C18.031 22.4728 18.0839 22.3568 18.1897 22.2515C18.2955 22.1461 18.4436 22.0934 18.634 22.0934H28.091C28.2814 22.0934 28.4296 22.1461 28.5353 22.2515C28.6411 22.3568 28.694 22.4728 28.694 22.5992C28.694 22.7257 28.6411 22.8416 28.5353 22.947C28.4296 23.0523 28.2814 23.1051 28.091 23.1051H18.634Z" fill="white"/>
<path d="M34.8823 39.2918C34.6919 39.2918 34.5438 39.2391 34.438 39.1338C34.3322 39.0284 34.2794 38.9125 34.2794 38.786C34.2794 38.6596 34.3322 38.5436 34.438 38.4382C34.5438 38.3328 34.6919 38.2802 34.8823 38.2802H42.3083C42.4987 38.2802 42.6468 38.3328 42.7526 38.4382C42.8584 38.5436 42.9113 38.6596 42.9113 38.786C42.9113 38.9125 42.8584 39.0284 42.7526 39.1338C42.6468 39.2391 42.4987 39.2918 42.3083 39.2918H34.8823ZM32.8195 35.2451C32.6291 35.2451 32.4811 35.1925 32.3753 35.0871C32.2906 34.9817 32.2483 34.8657 32.2483 34.7393C32.2483 34.6128 32.2906 34.4969 32.3753 34.3915C32.4811 34.2862 32.6291 34.2335 32.8195 34.2335H36.2469C36.4373 34.2335 36.5749 34.2862 36.6595 34.3915C36.7653 34.4969 36.8182 34.6128 36.8182 34.7393C36.8182 34.8657 36.7653 34.9817 36.6595 35.0871C36.5749 35.1925 36.4373 35.2451 36.2469 35.2451H32.8195ZM32.8513 31.1984C32.6609 31.1984 32.5128 31.1457 32.407 31.0404C32.3012 30.935 32.2483 30.8191 32.2483 30.6926C32.2483 30.5662 32.3012 30.4502 32.407 30.3449C32.5128 30.2395 32.6609 30.1868 32.8513 30.1868H44.3394C44.5298 30.1868 44.6779 30.2395 44.7836 30.3449C44.8894 30.4502 44.9423 30.5662 44.9423 30.6926C44.9423 30.8191 44.8894 30.935 44.7836 31.0404C44.6779 31.1457 44.5298 31.1984 44.3394 31.1984H32.8513ZM32.8195 27.1518C32.6291 27.1518 32.4811 27.0991 32.3753 26.9937C32.2906 26.8883 32.2483 26.7724 32.2483 26.6459C32.2483 26.5195 32.2906 26.4035 32.3753 26.2981C32.4811 26.1928 32.6291 26.1401 32.8195 26.1401H36.2469C36.4373 26.1401 36.5749 26.1928 36.6595 26.2981C36.7653 26.4035 36.8182 26.5195 36.8182 26.6459C36.8182 26.7724 36.7653 26.8883 36.6595 26.9937C36.5749 27.0991 36.4373 27.1518 36.2469 27.1518H32.8195ZM40.9437 27.1518C40.7533 27.1518 40.6052 27.0991 40.4994 26.9937C40.4148 26.8883 40.3725 26.7724 40.3725 26.6459C40.3725 26.5195 40.4148 26.4035 40.4994 26.2981C40.6052 26.1928 40.7533 26.1401 40.9437 26.1401H44.3711C44.5615 26.1401 44.699 26.1928 44.7836 26.2981C44.8894 26.4035 44.9423 26.5195 44.9423 26.6459C44.9423 26.7724 44.8894 26.8883 44.7836 26.9937C44.699 27.0991 44.5615 27.1518 44.3711 27.1518H40.9437ZM34.8823 23.1051C34.6919 23.1051 34.5438 23.0523 34.438 22.947C34.3322 22.8416 34.2794 22.7257 34.2794 22.5992C34.2794 22.4728 34.3322 22.3568 34.438 22.2515C34.5438 22.1461 34.6919 22.0934 34.8823 22.0934H42.3083C42.4987 22.0934 42.6468 22.1461 42.7526 22.2515C42.8584 22.3568 42.9113 22.4728 42.9113 22.5992C42.9113 22.7257 42.8584 22.8416 42.7526 22.947C42.6468 23.0523 42.4987 23.1051 42.3083 23.1051H34.8823Z" fill="white"/>
<path d="M49.0679 39.2918C48.8775 39.2918 48.7294 39.2391 48.6236 39.1338C48.539 39.0284 48.4967 38.9125 48.4967 38.786C48.4967 38.6596 48.539 38.5436 48.6236 38.4382C48.7294 38.3328 48.8775 38.2802 49.0679 38.2802H52.4953C52.6857 38.2802 52.8232 38.3328 52.9078 38.4382C53.0136 38.5436 53.0665 38.6596 53.0665 38.786C53.0665 38.9125 53.0136 39.0284 52.9078 39.1338C52.8232 39.2391 52.6857 39.2918 52.4953 39.2918H49.0679ZM57.192 39.2918C57.0016 39.2918 56.8535 39.2391 56.7477 39.1338C56.6631 39.0284 56.6208 38.9125 56.6208 38.786C56.6208 38.6596 56.6631 38.5436 56.7477 38.4382C56.8535 38.3328 57.0016 38.2802 57.192 38.2802H60.6194C60.8099 38.2802 60.9474 38.3328 61.032 38.4382C61.1378 38.5436 61.1907 38.6596 61.1907 38.786C61.1907 38.9125 61.1378 39.0284 61.032 39.1338C60.9474 39.2391 60.8099 39.2918 60.6194 39.2918H57.192ZM49.0679 35.2451C48.8775 35.2451 48.7294 35.1925 48.6236 35.0871C48.539 34.9817 48.4967 34.8657 48.4967 34.7393C48.4967 34.6128 48.539 34.4969 48.6236 34.3915C48.7294 34.2862 48.8775 34.2335 49.0679 34.2335H52.4953C52.6857 34.2335 52.8232 34.2862 52.9078 34.3915C53.0136 34.4969 53.0665 34.6128 53.0665 34.7393C53.0665 34.8657 53.0136 34.9817 52.9078 35.0871C52.8232 35.1925 52.6857 35.2451 52.4953 35.2451H49.0679ZM57.192 35.2451C57.0016 35.2451 56.8535 35.1925 56.7477 35.0871C56.6631 34.9817 56.6208 34.8657 56.6208 34.7393C56.6208 34.6128 56.6631 34.4969 56.7477 34.3915C56.8535 34.2862 57.0016 34.2335 57.192 34.2335H60.6194C60.8099 34.2335 60.9474 34.2862 61.032 34.3915C61.1378 34.4969 61.1907 34.6128 61.1907 34.7393C61.1907 34.8657 61.1378 34.9817 61.032 35.0871C60.9474 35.1925 60.8099 35.2451 60.6194 35.2451H57.192ZM49.0679 31.1984C48.8775 31.1984 48.7294 31.1457 48.6236 31.0404C48.539 30.935 48.4967 30.8191 48.4967 30.6926C48.4967 30.5662 48.539 30.4502 48.6236 30.3449C48.7294 30.2395 48.8775 30.1868 49.0679 30.1868H52.4953C52.6857 30.1868 52.8232 30.2395 52.9078 30.3449C53.0136 30.4502 53.0665 30.5662 53.0665 30.6926C53.0665 30.8191 53.0136 30.935 52.9078 31.0404C52.8232 31.1457 52.6857 31.1984 52.4953 31.1984H49.0679ZM57.192 31.1984C57.0016 31.1984 56.8535 31.1457 56.7477 31.0404C56.6631 30.935 56.6208 30.8191 56.6208 30.6926C56.6208 30.5662 56.6631 30.4502 56.7477 30.3449C56.8535 30.2395 57.0016 30.1868 57.192 30.1868H60.6194C60.8099 30.1868 60.9474 30.2395 61.032 30.3449C61.1378 30.4502 61.1907 30.5662 61.1907 30.6926C61.1907 30.8191 61.1378 30.935 61.032 31.0404C60.9474 31.1457 60.8099 31.1984 60.6194 31.1984H57.192ZM49.0679 27.1518C48.8775 27.1518 48.7294 27.0991 48.6236 26.9937C48.539 26.8883 48.4967 26.7724 48.4967 26.6459C48.4967 26.5195 48.539 26.4035 48.6236 26.2981C48.7294 26.1928 48.8775 26.1401 49.0679 26.1401H52.4953C52.6857 26.1401 52.8232 26.1928 52.9078 26.2981C53.0136 26.4035 53.0665 26.5195 53.0665 26.6459C53.0665 26.7724 53.0136 26.8883 52.9078 26.9937C52.8232 27.0991 52.6857 27.1518 52.4953 27.1518H49.0679ZM57.192 27.1518C57.0016 27.1518 56.8535 27.0991 56.7477 26.9937C56.6631 26.8883 56.6208 26.7724 56.6208 26.6459C56.6208 26.5195 56.6631 26.4035 56.7477 26.2981C56.8535 26.1928 57.0016 26.1401 57.192 26.1401H60.6194C60.8099 26.1401 60.9474 26.1928 61.032 26.2981C61.1378 26.4035 61.1907 26.5195 61.1907 26.6459C61.1907 26.7724 61.1378 26.8883 61.032 26.9937C60.9474 27.0991 60.8099 27.1518 60.6194 27.1518H57.192ZM49.0996 23.1051C48.9092 23.1051 48.7611 23.0523 48.6553 22.947C48.5496 22.8416 48.4967 22.7257 48.4967 22.5992C48.4967 22.4728 48.5496 22.3568 48.6553 22.2515C48.7611 22.1461 48.9092 22.0934 49.0996 22.0934H58.5567C58.7471 22.0934 58.8951 22.1461 59.0009 22.2515C59.1067 22.3568 59.1596 22.4728 59.1596 22.5992C59.1596 22.7257 59.1067 22.8416 59.0009 22.947C58.8951 23.0523 58.7471 23.1051 58.5567 23.1051H49.0996Z" fill="white"/>
<path d="M65.3479 39.2918C65.1575 39.2918 65.0094 39.2391 64.9037 39.1338C64.7979 39.0284 64.745 38.9125 64.745 38.786C64.745 38.6596 64.7979 38.5436 64.9037 38.4382C65.0094 38.3328 65.1575 38.2802 65.3479 38.2802H74.805C74.9954 38.2802 75.1435 38.3328 75.2493 38.4382C75.3551 38.5436 75.408 38.6596 75.408 38.786C75.408 38.9125 75.3551 39.0284 75.2493 39.1338C75.1435 39.2391 74.9954 39.2918 74.805 39.2918H65.3479ZM73.4404 35.2451C73.2499 35.2451 73.1019 35.1925 72.9961 35.0871C72.9115 34.9817 72.8692 34.8657 72.8692 34.7393C72.8692 34.6128 72.9115 34.4969 72.9961 34.3915C73.1019 34.2862 73.2499 34.2335 73.4404 34.2335H76.8678C77.0582 34.2335 77.1957 34.2862 77.2803 34.3915C77.3861 34.4969 77.439 34.6128 77.439 34.7393C77.439 34.8657 77.3861 34.9817 77.2803 35.0871C77.1957 35.1925 77.0582 35.2451 76.8678 35.2451H73.4404ZM67.379 31.1984C67.1886 31.1984 67.0405 31.1457 66.9347 31.0404C66.8289 30.935 66.776 30.8191 66.776 30.6926C66.776 30.5662 66.8289 30.4502 66.9347 30.3449C67.0405 30.2395 67.1886 30.1868 67.379 30.1868H74.805C74.9954 30.1868 75.1435 30.2395 75.2493 30.3449C75.3551 30.4502 75.408 30.5662 75.408 30.6926C75.408 30.8191 75.3551 30.935 75.2493 31.0404C75.1435 31.1457 74.9954 31.1984 74.805 31.1984H67.379ZM65.3162 27.1518C65.1258 27.1518 64.9777 27.0991 64.8719 26.9937C64.7873 26.8883 64.745 26.7724 64.745 26.6459C64.745 26.5195 64.7873 26.4035 64.8719 26.2981C64.9777 26.1928 65.1258 26.1401 65.3162 26.1401H68.7436C68.934 26.1401 69.0715 26.1928 69.1561 26.2981C69.2619 26.4035 69.3148 26.5195 69.3148 26.6459C69.3148 26.7724 69.2619 26.8883 69.1561 26.9937C69.0715 27.0991 68.934 27.1518 68.7436 27.1518H65.3162ZM67.379 23.1051C67.1886 23.1051 67.0405 23.0523 66.9347 22.947C66.8289 22.8416 66.776 22.7257 66.776 22.5992C66.776 22.4728 66.8289 22.3568 66.9347 22.2515C67.0405 22.1461 67.1886 22.0934 67.379 22.0934H76.836C77.0264 22.0934 77.1745 22.1461 77.2803 22.2515C77.3861 22.3568 77.439 22.4728 77.439 22.5992C77.439 22.7257 77.3861 22.8416 77.2803 22.947C77.1745 23.0523 77.0264 23.1051 76.836 23.1051H67.379Z" fill="white"/>
<path d="M83.6273 39.2918C83.4369 39.2918 83.2888 39.2391 83.183 39.1338C83.0772 39.0284 83.0243 38.9125 83.0243 38.786C83.0243 38.6596 83.0772 38.5436 83.183 38.4382C83.2888 38.3328 83.4369 38.2802 83.6273 38.2802H91.0533C91.2437 38.2802 91.3918 38.3328 91.4976 38.4382C91.6034 38.5436 91.6563 38.6596 91.6563 38.786C91.6563 38.9125 91.6034 39.0284 91.4976 39.1338C91.3918 39.2391 91.2437 39.2918 91.0533 39.2918H83.6273ZM85.6266 35.2451C85.4362 35.2451 85.2881 35.1925 85.1823 35.0871C85.0977 34.9817 85.0554 34.8657 85.0554 34.7393C85.0554 34.6128 85.0977 34.4969 85.1823 34.3915C85.2881 34.2862 85.4362 34.2335 85.6266 34.2335H89.054C89.2444 34.2335 89.3819 34.2862 89.4666 34.3915C89.5723 34.4969 89.6252 34.6128 89.6252 34.7393C89.6252 34.8657 89.5723 34.9817 89.4666 35.0871C89.3819 35.1925 89.2444 35.2451 89.054 35.2451H85.6266ZM85.6266 31.1984C85.4362 31.1984 85.2881 31.1457 85.1823 31.0404C85.0977 30.935 85.0554 30.8191 85.0554 30.6926C85.0554 30.5662 85.0977 30.4502 85.1823 30.3449C85.2881 30.2395 85.4362 30.1868 85.6266 30.1868H89.054C89.2444 30.1868 89.3819 30.2395 89.4666 30.3449C89.5723 30.4502 89.6252 30.5662 89.6252 30.6926C89.6252 30.8191 89.5723 30.935 89.4666 31.0404C89.3819 31.1457 89.2444 31.1984 89.054 31.1984H85.6266ZM85.6266 27.1518C85.4362 27.1518 85.2881 27.0991 85.1823 26.9937C85.0977 26.8883 85.0554 26.7724 85.0554 26.6459C85.0554 26.5195 85.0977 26.4035 85.1823 26.2981C85.2881 26.1928 85.4362 26.1401 85.6266 26.1401H89.054C89.2444 26.1401 89.3819 26.1928 89.4666 26.2981C89.5723 26.4035 89.6252 26.5195 89.6252 26.6459C89.6252 26.7724 89.5723 26.8883 89.4666 26.9937C89.3819 27.0991 89.2444 27.1518 89.054 27.1518H85.6266ZM83.5956 23.1051C83.4052 23.1051 83.2571 23.0523 83.1513 22.947C83.0666 22.8416 83.0243 22.7257 83.0243 22.5992C83.0243 22.4728 83.0666 22.3568 83.1513 22.2515C83.2571 22.1461 83.4052 22.0934 83.5956 22.0934H89.054C89.2444 22.0934 89.3819 22.1461 89.4666 22.2515C89.5723 22.3568 89.6252 22.4728 89.6252 22.5992C89.6252 22.7257 89.5723 22.8416 89.4666 22.947C89.3819 23.0523 89.2444 23.1051 89.054 23.1051H83.5956ZM85.6266 15.0117C85.4362 15.0117 85.2881 14.959 85.1823 14.8536C85.0977 14.7482 85.0554 14.6323 85.0554 14.5058C85.0554 14.3794 85.0977 14.2634 85.1823 14.1581C85.2881 14.0527 85.4362 14 85.6266 14H89.054C89.2444 14 89.3819 14.0527 89.4666 14.1581C89.5723 14.2634 89.6252 14.3794 89.6252 14.5058C89.6252 14.6323 89.5723 14.7482 89.4666 14.8536C89.3819 14.959 89.2444 15.0117 89.054 15.0117H85.6266Z" fill="white"/>
<path d="M97.8129 39.2918C97.6224 39.2918 97.4743 39.2391 97.3686 39.1338C97.2839 39.0284 97.2416 38.9125 97.2416 38.786C97.2416 38.6596 97.2839 38.5436 97.3686 38.4382C97.4743 38.3328 97.6224 38.2802 97.8129 38.2802H101.24C101.431 38.2802 101.568 38.3328 101.653 38.4382C101.759 38.5436 101.811 38.6596 101.811 38.786C101.811 38.9125 101.759 39.0284 101.653 39.1338C101.568 39.2391 101.431 39.2918 101.24 39.2918H97.8129ZM105.937 39.2918C105.747 39.2918 105.599 39.2391 105.493 39.1338C105.408 39.0284 105.366 38.9125 105.366 38.786C105.366 38.6596 105.408 38.5436 105.493 38.4382C105.599 38.3328 105.747 38.2802 105.937 38.2802H109.364C109.555 38.2802 109.692 38.3328 109.777 38.4382C109.883 38.5436 109.936 38.6596 109.936 38.786C109.936 38.9125 109.883 39.0284 109.777 39.1338C109.692 39.2391 109.555 39.2918 109.364 39.2918H105.937ZM97.8129 35.2451C97.6224 35.2451 97.4743 35.1925 97.3686 35.0871C97.2839 34.9817 97.2416 34.8657 97.2416 34.7393C97.2416 34.6128 97.2839 34.4969 97.3686 34.3915C97.4743 34.2862 97.6224 34.2335 97.8129 34.2335H101.24C101.431 34.2335 101.568 34.2862 101.653 34.3915C101.759 34.4969 101.811 34.6128 101.811 34.7393C101.811 34.8657 101.759 34.9817 101.653 35.0871C101.568 35.1925 101.431 35.2451 101.24 35.2451H97.8129ZM105.937 35.2451C105.747 35.2451 105.599 35.1925 105.493 35.0871C105.408 34.9817 105.366 34.8657 105.366 34.7393C105.366 34.6128 105.408 34.4969 105.493 34.3915C105.599 34.2862 105.747 34.2335 105.937 34.2335H109.364C109.555 34.2335 109.692 34.2862 109.777 34.3915C109.883 34.4969 109.936 34.6128 109.936 34.7393C109.936 34.8657 109.883 34.9817 109.777 35.0871C109.692 35.1925 109.555 35.2451 109.364 35.2451H105.937ZM97.8129 31.1984C97.6224 31.1984 97.4743 31.1457 97.3686 31.0404C97.2839 30.935 97.2416 30.8191 97.2416 30.6926C97.2416 30.5662 97.2839 30.4502 97.3686 30.3449C97.4743 30.2395 97.6224 30.1868 97.8129 30.1868H101.24C101.431 30.1868 101.568 30.2395 101.653 30.3449C101.759 30.4502 101.811 30.5662 101.811 30.6926C101.811 30.8191 101.759 30.935 101.653 31.0404C101.568 31.1457 101.431 31.1984 101.24 31.1984H97.8129ZM105.937 31.1984C105.747 31.1984 105.599 31.1457 105.493 31.0404C105.408 30.935 105.366 30.8191 105.366 30.6926C105.366 30.5662 105.408 30.4502 105.493 30.3449C105.599 30.2395 105.747 30.1868 105.937 30.1868H109.364C109.555 30.1868 109.692 30.2395 109.777 30.3449C109.883 30.4502 109.936 30.5662 109.936 30.6926C109.936 30.8191 109.883 30.935 109.777 31.0404C109.692 31.1457 109.555 31.1984 109.364 31.1984H105.937ZM97.8129 27.1518C97.6224 27.1518 97.4743 27.0991 97.3686 26.9937C97.2839 26.8883 97.2416 26.7724 97.2416 26.6459C97.2416 26.5195 97.2839 26.4035 97.3686 26.2981C97.4743 26.1928 97.6224 26.1401 97.8129 26.1401H101.24C101.431 26.1401 101.568 26.1928 101.653 26.2981C101.759 26.4035 101.811 26.5195 101.811 26.6459C101.811 26.7724 101.759 26.8883 101.653 26.9937C101.568 27.0991 101.431 27.1518 101.24 27.1518H97.8129ZM105.937 27.1518C105.747 27.1518 105.599 27.0991 105.493 26.9937C105.408 26.8883 105.366 26.7724 105.366 26.6459C105.366 26.5195 105.408 26.4035 105.493 26.2981C105.599 26.1928 105.747 26.1401 105.937 26.1401H109.364C109.555 26.1401 109.692 26.1928 109.777 26.2981C109.883 26.4035 109.936 26.5195 109.936 26.6459C109.936 26.7724 109.883 26.8883 109.777 26.9937C109.692 27.0991 109.555 27.1518 109.364 27.1518H105.937ZM97.8446 23.1051C97.6542 23.1051 97.5061 23.0523 97.4003 22.947C97.2945 22.8416 97.2416 22.7257 97.2416 22.5992C97.2416 22.4728 97.2945 22.3568 97.4003 22.2515C97.5061 22.1461 97.6542 22.0934 97.8446 22.0934H107.302C107.492 22.0934 107.64 22.1461 107.746 22.2515C107.852 22.3568 107.905 22.4728 107.905 22.5992C107.905 22.7257 107.852 22.8416 107.746 22.947C107.64 23.0523 107.492 23.1051 107.302 23.1051H97.8446Z" fill="white"/>
<path d="M114.093 43.3385C113.903 43.3385 113.754 43.2858 113.649 43.1805C113.543 43.0751 113.49 42.9592 113.49 42.8327C113.49 42.7062 113.543 42.5903 113.649 42.4849C113.754 42.3795 113.903 42.3268 114.093 42.3268H123.55C123.74 42.3268 123.888 42.3795 123.994 42.4849C124.1 42.5903 124.153 42.7062 124.153 42.8327C124.153 42.9592 124.1 43.0751 123.994 43.1805C123.888 43.2858 123.74 43.3385 123.55 43.3385H114.093ZM112.03 39.2918C111.84 39.2918 111.702 39.2391 111.618 39.1338C111.512 39.0284 111.459 38.9125 111.459 38.786C111.459 38.6596 111.512 38.5436 111.618 38.4382C111.702 38.3328 111.84 38.2802 112.03 38.2802H115.458C115.648 38.2802 115.785 38.3328 115.87 38.4382C115.976 38.5436 116.029 38.6596 116.029 38.786C116.029 38.9125 115.976 39.0284 115.87 39.1338C115.785 39.2391 115.648 39.2918 115.458 39.2918H112.03ZM122.185 39.2918C121.995 39.2918 121.847 39.2391 121.741 39.1338C121.656 39.0284 121.614 38.9125 121.614 38.786C121.614 38.6596 121.656 38.5436 121.741 38.4382C121.847 38.3328 121.995 38.2802 122.185 38.2802H125.613C125.803 38.2802 125.941 38.3328 126.025 38.4382C126.131 38.5436 126.184 38.6596 126.184 38.786C126.184 38.9125 126.131 39.0284 126.025 39.1338C125.941 39.2391 125.803 39.2918 125.613 39.2918H122.185ZM116.124 35.2451C115.934 35.2451 115.785 35.1925 115.68 35.0871C115.574 34.9817 115.521 34.8657 115.521 34.7393C115.521 34.6128 115.574 34.4969 115.68 34.3915C115.785 34.2862 115.934 34.2335 116.124 34.2335H123.55C123.74 34.2335 123.888 34.2862 123.994 34.3915C124.1 34.4969 124.153 34.6128 124.153 34.7393C124.153 34.8657 124.1 34.9817 123.994 35.0871C123.888 35.1925 123.74 35.2451 123.55 35.2451H116.124ZM114.061 31.1984C113.871 31.1984 113.723 31.1457 113.617 31.0404C113.532 30.935 113.49 30.8191 113.49 30.6926C113.49 30.5662 113.532 30.4502 113.617 30.3449C113.723 30.2395 113.871 30.1868 114.061 30.1868H117.489C117.679 30.1868 117.816 30.2395 117.901 30.3449C118.007 30.4502 118.06 30.5662 118.06 30.6926C118.06 30.8191 118.007 30.935 117.901 31.0404C117.816 31.1457 117.679 31.1984 117.489 31.1984H114.061ZM122.185 31.1984C121.995 31.1984 121.847 31.1457 121.741 31.0404C121.656 30.935 121.614 30.8191 121.614 30.6926C121.614 30.5662 121.656 30.4502 121.741 30.3449C121.847 30.2395 121.995 30.1868 122.185 30.1868H125.613C125.803 30.1868 125.941 30.2395 126.025 30.3449C126.131 30.4502 126.184 30.5662 126.184 30.6926C126.184 30.8191 126.131 30.935 126.025 31.0404C125.941 31.1457 125.803 31.1984 125.613 31.1984H122.185ZM114.061 27.1518C113.871 27.1518 113.723 27.0991 113.617 26.9937C113.532 26.8883 113.49 26.7724 113.49 26.6459C113.49 26.5195 113.532 26.4035 113.617 26.2981C113.723 26.1928 113.871 26.1401 114.061 26.1401H117.489C117.679 26.1401 117.816 26.1928 117.901 26.2981C118.007 26.4035 118.06 26.5195 118.06 26.6459C118.06 26.7724 118.007 26.8883 117.901 26.9937C117.816 27.0991 117.679 27.1518 117.489 27.1518H114.061ZM122.185 27.1518C121.995 27.1518 121.847 27.0991 121.741 26.9937C121.656 26.8883 121.614 26.7724 121.614 26.6459C121.614 26.5195 121.656 26.4035 121.741 26.2981C121.847 26.1928 121.995 26.1401 122.185 26.1401H125.613C125.803 26.1401 125.941 26.1928 126.025 26.2981C126.131 26.4035 126.184 26.5195 126.184 26.6459C126.184 26.7724 126.131 26.8883 126.025 26.9937C125.941 27.0991 125.803 27.1518 125.613 27.1518H122.185ZM116.092 23.1051C115.902 23.1051 115.754 23.0523 115.648 22.947C115.563 22.8416 115.521 22.7257 115.521 22.5992C115.521 22.4728 115.563 22.3568 115.648 22.2515C115.754 22.1461 115.902 22.0934 116.092 22.0934H121.551C121.741 22.0934 121.879 22.1461 121.963 22.2515C122.069 22.3568 122.122 22.4728 122.122 22.5992C122.122 22.7257 122.069 22.8416 121.963 22.947C121.879 23.0523 121.741 23.1051 121.551 23.1051H116.092ZM124.216 23.1051C124.026 23.1051 123.878 23.0523 123.772 22.947C123.687 22.8416 123.645 22.7257 123.645 22.5992C123.645 22.4728 123.687 22.3568 123.772 22.2515C123.878 22.1461 124.026 22.0934 124.216 22.0934H127.644C127.834 22.0934 127.972 22.1461 128.056 22.2515C128.162 22.3568 128.215 22.4728 128.215 22.5992C128.215 22.7257 128.162 22.8416 128.056 22.947C127.972 23.0523 127.834 23.1051 127.644 23.1051H124.216Z" fill="white"/>
</g>
<defs>
<clipPath id="clip0_560_614">
<rect width="57" height="146" fill="white" transform="translate(146) rotate(90)"/>
</clipPath>
</defs>
</svg>
