<svg xmlns="http://www.w3.org/2000/svg" width="480" height="360" viewBox="0 0 480 360">
<defs>
<pattern id="dg" width="6" height="6" patternUnits="userSpaceOnUse"><rect width="6" height="6" fill="#000"/><rect x="2" y="2" width="2" height="2" fill="#cfcfcf"/></pattern>
<pattern id="dh" width="4" height="4" patternUnits="userSpaceOnUse"><rect width="4" height="4" fill="#000"/><rect x="1" y="1" width="2" height="2" fill="#e9e9e9"/></pattern>
</defs>
<rect width="480" height="360" fill="#000"/>
<line x1="30" y1="330" x2="450" y2="330" stroke="#8a8a8a"/><line x1="30" y1="30" x2="30" y2="330" stroke="#8a8a8a"/><rect x="204" y="150" width="7" height="7" fill="url(#dh)"/><rect x="366" y="91" width="6" height="6" fill="url(#dh)"/><rect x="48" y="302" width="11" height="11" fill="url(#dh)"/><rect x="219" y="211" width="9" height="9" fill="url(#dh)"/><rect x="244" y="131" width="4" height="4" fill="url(#dh)"/><rect x="290" y="112" width="7" height="7" fill="url(#dh)"/><rect x="125" y="244" width="5" height="5" fill="url(#dh)"/><rect x="314" y="89" width="9" height="9" fill="url(#dh)"/><rect x="224" y="138" width="8" height="8" fill="url(#dh)"/><rect x="423" y="41" width="4" height="4" fill="url(#dh)"/><rect x="276" y="109" width="9" height="9" fill="url(#dh)"/><rect x="350" y="83" width="9" height="9" fill="url(#dh)"/><rect x="412" y="54" width="9" height="9" fill="url(#dh)"/><rect x="229" y="203" width="4" height="4" fill="url(#dh)"/><rect x="367" y="90" width="5" height="5" fill="url(#dh)"/><rect x="193" y="207" width="7" height="7" fill="url(#dh)"/><rect x="274" y="113" width="5" height="5" fill="url(#dh)"/><rect x="376" y="81" width="4" height="4" fill="url(#dh)"/><rect x="266" y="111" width="6" height="6" fill="url(#dh)"/><rect x="111" y="253" width="6" height="6" fill="url(#dh)"/><rect x="77" y="288" width="9" height="9" fill="url(#dh)"/><rect x="330" y="88" width="8" height="8" fill="url(#dh)"/><rect x="239" y="143" width="9" height="9" fill="url(#dh)"/><rect x="369" y="105" width="5" height="5" fill="url(#dh)"/><rect x="87" y="282" width="9" height="9" fill="url(#dh)"/><rect x="359" y="108" width="7" height="7" fill="url(#dh)"/><rect x="153" y="202" width="4" height="4" fill="url(#dh)"/><rect x="434" y="86" width="9" height="9" fill="url(#dh)"/><rect x="171" y="199" width="4" height="4" fill="url(#dh)"/><rect x="328" y="154" width="6" height="6" fill="url(#dh)"/><rect x="274" y="170" width="4" height="4" fill="url(#dh)"/><rect x="174" y="209" width="8" height="8" fill="url(#dh)"/><rect x="196" y="232" width="6" height="6" fill="url(#dh)"/><rect x="105" y="239" width="10" height="10" fill="url(#dh)"/><rect x="69" y="281" width="6" height="6" fill="url(#dh)"/><rect x="254" y="139" width="6" height="6" fill="url(#dh)"/><rect x="428" y="84" width="6" height="6" fill="url(#dh)"/><rect x="356" y="116" width="8" height="8" fill="url(#dh)"/><rect x="205" y="198" width="8" height="8" fill="url(#dh)"/><rect x="142" y="198" width="10" height="10" fill="url(#dh)"/><path d="M40 310 C 180 260, 300 170, 450 80" fill="none" stroke="#cfcfcf" stroke-width="1.5" stroke-dasharray="4 3"/>
</svg>