<svg xmlns="http://www.w3.org/2000/svg" width="480" height="360" viewBox="0 0 480 360">
<defs>
<pattern id="dg" width="6" height="6" patternUnits="userSpaceOnUse"><rect width="6" height="6" fill="#000"/><rect x="2" y="2" width="2" height="2" fill="#cfcfcf"/></pattern>
<pattern id="dh" width="4" height="4" patternUnits="userSpaceOnUse"><rect width="4" height="4" fill="#000"/><rect x="1" y="1" width="2" height="2" fill="#e9e9e9"/></pattern>
</defs>
<rect width="480" height="360" fill="#000"/>
<circle cx="240.0" cy="180.0" r="28" fill="none" stroke="#8a8a8a" stroke-width="1" stroke-dasharray="2 3"/><circle cx="240.0" cy="180.0" r="60" fill="none" stroke="#8a8a8a" stroke-width="1" stroke-dasharray="3 4"/><circle cx="240.0" cy="180.0" r="92" fill="none" stroke="#8a8a8a" stroke-width="1" stroke-dasharray="4 5"/><circle cx="240.0" cy="180.0" r="124" fill="none" stroke="#8a8a8a" stroke-width="1" stroke-dasharray="5 6"/><circle cx="240.0" cy="180.0" r="156" fill="none" stroke="#8a8a8a" stroke-width="1" stroke-dasharray="6 7"/><circle cx="358" cy="180" r="9" fill="url(#dh)"/><line x1="240.0" y1="180.0" x2="358" y2="180" stroke="#6a6a6a" stroke-width="0.7"/><circle cx="291" cy="194" r="5" fill="url(#dh)"/><circle cx="295" cy="212" r="5" fill="url(#dh)"/><circle cx="297" cy="237" r="7" fill="url(#dh)"/><circle cx="317" cy="314" r="7" fill="url(#dh)"/><line x1="240.0" y1="180.0" x2="317" y2="314" stroke="#6a6a6a" stroke-width="0.7"/><circle cx="264" cy="271" r="6" fill="url(#dh)"/><circle cx="240" cy="251" r="9" fill="url(#dh)"/><line x1="240.0" y1="180.0" x2="240" y2="251" stroke="#6a6a6a" stroke-width="0.7"/><circle cx="205" cy="309" r="3" fill="url(#dh)"/><line x1="240.0" y1="180.0" x2="205" y2="309" stroke="#6a6a6a" stroke-width="0.7"/><circle cx="194" cy="260" r="7" fill="url(#dh)"/><circle cx="156" cy="264" r="8" fill="url(#dh)"/><line x1="240.0" y1="180.0" x2="156" y2="264" stroke="#6a6a6a" stroke-width="0.7"/><circle cx="118" cy="250" r="3" fill="url(#dh)"/><line x1="240.0" y1="180.0" x2="118" y2="250" stroke="#6a6a6a" stroke-width="0.7"/><circle cx="154" cy="203" r="9" fill="url(#dh)"/><line x1="240.0" y1="180.0" x2="154" y2="203" stroke="#6a6a6a" stroke-width="0.7"/><circle cx="106" cy="180" r="7" fill="url(#dh)"/><circle cx="158" cy="158" r="8" fill="url(#dh)"/><circle cx="143" cy="124" r="8" fill="url(#dh)"/><line x1="240.0" y1="180.0" x2="143" y2="124" stroke="#6a6a6a" stroke-width="0.7"/><circle cx="137" cy="77" r="8" fill="url(#dh)"/><circle cx="182" cy="79" r="6" fill="url(#dh)"/><circle cx="221" cy="109" r="4" fill="url(#dh)"/><circle cx="240" cy="113" r="6" fill="url(#dh)"/><circle cx="278" cy="39" r="6" fill="url(#dh)"/><line x1="240.0" y1="180.0" x2="278" y2="39" stroke="#6a6a6a" stroke-width="0.7"/><circle cx="301" cy="74" r="8" fill="url(#dh)"/><circle cx="271" cy="149" r="8" fill="url(#dh)"/><line x1="240.0" y1="180.0" x2="271" y2="149" stroke="#6a6a6a" stroke-width="0.7"/><circle cx="312" cy="139" r="9" fill="url(#dh)"/><line x1="240.0" y1="180.0" x2="312" y2="139" stroke="#6a6a6a" stroke-width="0.7"/><circle cx="286" cy="168" r="6" fill="url(#dh)"/>
</svg>