<svg xmlns="http://www.w3.org/2000/svg" width="480" height="360" viewBox="0 0 480 360">
<defs>
<pattern id="dg" width="6" height="6" patternUnits="userSpaceOnUse"><rect width="6" height="6" fill="#000"/><rect x="2" y="2" width="2" height="2" fill="#cfcfcf"/></pattern>
<pattern id="dh" width="4" height="4" patternUnits="userSpaceOnUse"><rect width="4" height="4" fill="#000"/><rect x="1" y="1" width="2" height="2" fill="#d6d6d6"/></pattern>
</defs>
<rect width="480" height="360" fill="#000"/>
<path d="M0.8 4.7 L55.7 2.4 L47.3 44.4 L1.3 41.4 Z" fill="none" stroke="#a8a8a8" stroke-width="0.9" opacity="0.85"/><line x1="1.1" y1="23.1" x2="51.5" y2="23.4" stroke="#a8a8a8" stroke-width="0.7" opacity="0.7"/><path d="M0.8 44.7 L47.5 47.7 L48.5 71.7 L3.2 71.2 Z" fill="none" stroke="#a8a8a8" stroke-width="0.9" opacity="0.85"/><path d="M2.8 73.5 L49.0 74.1 L52.1 108.2 L-3.1 109.9 Z" fill="none" stroke="#a8a8a8" stroke-width="0.9" opacity="0.85"/><path d="M-2.1 113.1 L51.4 111.4 L50.9 149.3 L5.2 150.7 Z" fill="none" stroke="#a8a8a8" stroke-width="0.9" opacity="0.85"/><line x1="1.6" y1="131.9" x2="51.1" y2="130.4" stroke="#a8a8a8" stroke-width="0.7" opacity="0.7"/><path d="M4.9 153.5 L51.7 152.1 L56.4 172.9 L2.3 175.8 Z" fill="none" stroke="#a8a8a8" stroke-width="0.9" opacity="0.85"/><path d="M2.7 178.2 L55.7 175.3 L53.1 210.0 L-2.6 207.9 Z" fill="none" stroke="#a8a8a8" stroke-width="0.9" opacity="0.85"/><path d="M-3.4 210.4 L53.3 212.5 L47.4 233.9 L-2.6 236.7 Z" fill="none" stroke="#a8a8a8" stroke-width="0.9" opacity="0.85"/><path d="M-1.8 239.4 L47.0 236.7 L49.2 275.1 L6.5 269.3 Z" fill="url(#dg)" stroke="#a8a8a8" stroke-width="0.9" opacity="0.85"/><path d="M6.1 271.7 L50.1 277.8 L54.0 295.5 L2.2 295.8 Z" fill="none" stroke="#a8a8a8" stroke-width="0.9" opacity="0.85"/><path d="M3.4 299.1 L52.8 298.8 L50.3 339.4 L6.2 340.4 Z" fill="none" stroke="#a8a8a8" stroke-width="0.9" opacity="0.85"/><path d="M5.2 344.7 L51.6 343.6 L56.3 393.4 L7.5 394.0 Z" fill="none" stroke="#a8a8a8" stroke-width="0.9" opacity="0.85"/><path d="M60.8 1.8 L117.4 2.2 L115.6 49.0 L52.0 45.2 Z" fill="none" stroke="#a8a8a8" stroke-width="0.9" opacity="0.85"/><path d="M53.5 48.2 L113.8 51.7 L114.7 67.6 L54.5 71.4 Z" fill="url(#dh)" stroke="#a8a8a8" stroke-width="0.9" opacity="0.85"/><path d="M58.1 112.4 L112.6 116.3 L109.3 150.8 L57.6 148.6 Z" fill="none" stroke="#a8a8a8" stroke-width="0.9" opacity="0.85"/><line x1="57.9" y1="130.5" x2="110.9" y2="133.6" stroke="#a8a8a8" stroke-width="0.7" opacity="0.7"/><path d="M56.2 152.3 L110.8 154.6 L112.8 177.7 L60.9 172.8 Z" fill="url(#dh)" stroke="#a8a8a8" stroke-width="0.9" opacity="0.85"/><path d="M61.4 175.8 L112.3 180.6 L110.0 211.6 L58.8 209.9 Z" fill="none" stroke="#a8a8a8" stroke-width="0.9" opacity="0.85"/><path d="M58.3 212.7 L110.1 214.4 L113.5 228.5 L52.5 233.6 Z" fill="url(#dh)" stroke="#a8a8a8" stroke-width="0.9" opacity="0.85"/><path d="M53.8 237.4 L112.0 232.5 L109.3 272.7 L55.9 274.1 Z" fill="none" stroke="#a8a8a8" stroke-width="0.9" opacity="0.85"/><line x1="54.8" y1="255.8" x2="110.7" y2="252.6" stroke="#a8a8a8" stroke-width="0.7" opacity="0.7"/><path d="M53.7 277.9 L111.5 276.3 L109.5 298.2 L57.6 295.7 Z" fill="none" stroke="#a8a8a8" stroke-width="0.9" opacity="0.85"/><line x1="55.6" y1="286.8" x2="110.5" y2="287.2" stroke="#a8a8a8" stroke-width="0.7" opacity="0.7"/><path d="M57.8 297.8 L109.5 300.3 L117.5 340.0 L55.2 340.4 Z" fill="none" stroke="#a8a8a8" stroke-width="0.9" opacity="0.85"/><path d="M56.8 344.6 L116.2 344.2 L113.4 387.3 L61.2 392.0 Z" fill="url(#dh)" stroke="#a8a8a8" stroke-width="0.9" opacity="0.85"/><path d="M120.3 2.3 L138.5 -0.7 L137.3 47.0 L118.5 48.8 Z" fill="url(#dg)" stroke="#a8a8a8" stroke-width="0.9" opacity="0.85"/><path d="M119.0 51.8 L136.9 50.2 L138.8 71.4 L119.8 67.6 Z" fill="none" stroke="#a8a8a8" stroke-width="0.9" opacity="0.85"/><path d="M118.5 116.3 L140.9 111.3 L139.4 150.8 L115.2 150.9 Z" fill="url(#dh)" stroke="#a8a8a8" stroke-width="0.9" opacity="0.85"/><path d="M114.7 154.9 L139.7 154.9 L140.4 175.1 L116.7 177.6 Z" fill="url(#dh)" stroke="#a8a8a8" stroke-width="0.9" opacity="0.85"/><path d="M116.9 180.9 L139.9 178.5 L135.6 206.6 L114.6 211.1 Z" fill="url(#dh)" stroke="#a8a8a8" stroke-width="0.9" opacity="0.85"/><line x1="115.7" y1="196.0" x2="137.7" y2="192.6" stroke="#a8a8a8" stroke-width="0.7" opacity="0.7"/><path d="M113.8 214.2 L135.9 209.5 L131.4 233.3 L117.2 228.5 Z" fill="none" stroke="#a8a8a8" stroke-width="0.9" opacity="0.85"/><path d="M114.8 277.1 L135.3 280.2 L135.9 296.7 L112.9 297.6 Z" fill="none" stroke="#a8a8a8" stroke-width="0.9" opacity="0.85"/><path d="M113.3 301.9 L136.1 301.0 L137.2 341.8 L120.8 338.7 Z" fill="none" stroke="#a8a8a8" stroke-width="0.9" opacity="0.85"/><path d="M120.7 343.7 L138.0 347.1 L139.8 390.6 L117.8 387.8 Z" fill="url(#dg)" stroke="#a8a8a8" stroke-width="0.9" opacity="0.85"/><line x1="119.2" y1="365.8" x2="138.9" y2="368.8" stroke="#a8a8a8" stroke-width="0.7" opacity="0.7"/><path d="M140.8 -0.6 L176.3 5.2 L180.7 42.7 L139.7 46.8 Z" fill="url(#dg)" stroke="#a8a8a8" stroke-width="0.9" opacity="0.85"/><line x1="140.2" y1="23.1" x2="178.5" y2="24.0" stroke="#a8a8a8" stroke-width="0.7" opacity="0.7"/><path d="M140.9 50.2 L179.3 46.3 L173.0 67.6 L142.8 70.9 Z" fill="none" stroke="#a8a8a8" stroke-width="0.9" opacity="0.85"/><line x1="141.8" y1="60.5" x2="176.2" y2="56.9" stroke="#a8a8a8" stroke-width="0.7" opacity="0.7"/><path d="M141.3 73.8 L174.3 70.2 L178.2 104.1 L143.8 106.9 Z" fill="none" stroke="#a8a8a8" stroke-width="0.9" opacity="0.85"/><line x1="142.6" y1="90.4" x2="176.3" y2="87.2" stroke="#a8a8a8" stroke-width="0.7" opacity="0.7"/><path d="M144.5 110.4 L177.3 107.8 L171.7 151.8 L143.0 151.2 Z" fill="url(#dg)" stroke="#a8a8a8" stroke-width="0.9" opacity="0.85"/><line x1="143.7" y1="130.8" x2="174.5" y2="129.8" stroke="#a8a8a8" stroke-width="0.7" opacity="0.7"/><path d="M143.2 155.3 L171.1 155.9 L171.7 176.9 L143.9 174.8 Z" fill="url(#dh)" stroke="#a8a8a8" stroke-width="0.9" opacity="0.85"/><line x1="143.6" y1="165.0" x2="171.4" y2="166.4" stroke="#a8a8a8" stroke-width="0.7" opacity="0.7"/><path d="M142.9 177.3 L172.7 179.6 L174.5 208.5 L138.2 207.4 Z" fill="url(#dh)" stroke="#a8a8a8" stroke-width="0.9" opacity="0.85"/><path d="M138.7 209.7 L173.9 210.8 L177.4 232.3 L134.4 233.0 Z" fill="url(#dg)" stroke="#a8a8a8" stroke-width="0.9" opacity="0.85"/><path d="M134.3 236.1 L177.7 235.4 L179.5 269.7 L138.6 276.9 Z" fill="none" stroke="#a8a8a8" stroke-width="0.9" opacity="0.85"/><path d="M138.3 279.6 L180.2 272.1 L181.1 295.8 L139.0 297.1 Z" fill="url(#dh)" stroke="#a8a8a8" stroke-width="0.9" opacity="0.85"/><line x1="138.6" y1="288.3" x2="180.7" y2="284.0" stroke="#a8a8a8" stroke-width="0.7" opacity="0.7"/><path d="M139.2 299.6 L181.0 298.3 L180.5 344.3 L140.4 343.4 Z" fill="url(#dh)" stroke="#a8a8a8" stroke-width="0.9" opacity="0.85"/><path d="M140.1 346.6 L180.7 347.6 L177.5 396.3 L142.1 391.6 Z" fill="none" stroke="#a8a8a8" stroke-width="0.9" opacity="0.85"/><path d="M179.7 5.4 L222.5 4.8 L226.4 48.6 L184.2 42.8 Z" fill="none" stroke="#a8a8a8" stroke-width="0.9" opacity="0.85"/><path d="M184.3 45.5 L226.1 51.2 L223.0 69.3 L177.6 68.1 Z" fill="url(#dg)" stroke="#a8a8a8" stroke-width="0.9" opacity="0.85"/><line x1="181.0" y1="56.8" x2="224.6" y2="60.3" stroke="#a8a8a8" stroke-width="0.7" opacity="0.7"/><path d="M178.6 71.4 L222.0 72.5 L224.8 106.0 L182.3 103.0 Z" fill="none" stroke="#a8a8a8" stroke-width="0.9" opacity="0.85"/><path d="M182.0 108.0 L224.9 111.0 L220.0 146.8 L176.4 151.4 Z" fill="none" stroke="#a8a8a8" stroke-width="0.9" opacity="0.85"/><path d="M176.1 155.6 L219.7 151.0 L221.3 177.9 L176.7 177.1 Z" fill="none" stroke="#a8a8a8" stroke-width="0.9" opacity="0.85"/><path d="M176.7 180.5 L221.2 181.4 L216.2 208.5 L178.5 207.8 Z" fill="url(#dh)" stroke="#a8a8a8" stroke-width="0.9" opacity="0.85"/><path d="M178.9 211.1 L216.1 211.8 L221.3 228.9 L182.3 231.8 Z" fill="url(#dh)" stroke="#a8a8a8" stroke-width="0.9" opacity="0.85"/><path d="M181.6 235.1 L222.7 232.0 L223.1 273.1 L183.4 269.6 Z" fill="url(#dg)" stroke="#a8a8a8" stroke-width="0.9" opacity="0.85"/><path d="M184.4 273.0 L222.2 276.4 L221.1 296.4 L185.3 295.0 Z" fill="url(#dg)" stroke="#a8a8a8" stroke-width="0.9" opacity="0.85"/><path d="M185.4 299.8 L221.2 301.1 L223.6 344.6 L184.8 343.1 Z" fill="url(#dg)" stroke="#a8a8a8" stroke-width="0.9" opacity="0.85"/><path d="M184.4 349.2 L223.6 350.8 L216.9 395.1 L181.3 395.0 Z" fill="none" stroke="#a8a8a8" stroke-width="0.9" opacity="0.85"/><path d="M226.0 4.9 L267.5 0.9 L264.8 48.8 L229.9 48.5 Z" fill="none" stroke="#a8a8a8" stroke-width="0.9" opacity="0.85"/><path d="M229.9 51.4 L264.7 51.7 L266.3 69.3 L226.7 69.5 Z" fill="none" stroke="#a8a8a8" stroke-width="0.9" opacity="0.85"/><path d="M226.7 71.9 L266.3 71.8 L265.9 109.8 L229.7 107.0 Z" fill="url(#dg)" stroke="#a8a8a8" stroke-width="0.9" opacity="0.85"/><path d="M225.5 150.8 L265.5 152.7 L269.3 171.2 L227.1 177.5 Z" fill="url(#dg)" stroke="#a8a8a8" stroke-width="0.9" opacity="0.85"/><path d="M226.4 180.9 L270.0 174.4 L266.2 212.4 L221.2 208.9 Z" fill="url(#dg)" stroke="#a8a8a8" stroke-width="0.9" opacity="0.85"/><path d="M220.8 211.5 L266.4 215.0 L267.7 236.3 L226.3 229.5 Z" fill="url(#dg)" stroke="#a8a8a8" stroke-width="0.9" opacity="0.85"/><path d="M226.8 232.5 L267.5 239.1 L267.8 272.2 L227.2 273.0 Z" fill="url(#dh)" stroke="#a8a8a8" stroke-width="0.9" opacity="0.85"/><path d="M227.0 276.1 L267.7 275.2 L261.9 294.9 L225.8 296.9 Z" fill="url(#dg)" stroke="#a8a8a8" stroke-width="0.9" opacity="0.85"/><line x1="226.4" y1="286.5" x2="264.8" y2="285.1" stroke="#a8a8a8" stroke-width="0.7" opacity="0.7"/><path d="M225.9 300.5 L261.6 298.6 L261.2 341.4 L228.4 345.1 Z" fill="url(#dg)" stroke="#a8a8a8" stroke-width="0.9" opacity="0.85"/><path d="M227.6 349.5 L261.9 345.7 L263.4 395.2 L220.6 396.4 Z" fill="none" stroke="#a8a8a8" stroke-width="0.9" opacity="0.85"/><path d="M270.4 2.3 L286.9 6.9 L282.7 45.4 L267.8 47.4 Z" fill="none" stroke="#a8a8a8" stroke-width="0.9" opacity="0.85"/><path d="M267.2 51.6 L283.1 49.5 L290.8 70.9 L268.8 69.4 Z" fill="none" stroke="#a8a8a8" stroke-width="0.9" opacity="0.85"/><line x1="268.0" y1="60.5" x2="287.0" y2="60.2" stroke="#a8a8a8" stroke-width="0.7" opacity="0.7"/><path d="M269.1 72.2 L290.4 73.7 L284.2 105.7 L268.7 109.3 Z" fill="none" stroke="#a8a8a8" stroke-width="0.9" opacity="0.85"/><path d="M268.6 113.9 L283.9 110.3 L283.9 151.5 L269.0 148.9 Z" fill="url(#dh)" stroke="#a8a8a8" stroke-width="0.9" opacity="0.85"/><path d="M269.0 152.3 L284.5 155.0 L292.0 179.1 L273.0 171.7 Z" fill="url(#dg)" stroke="#a8a8a8" stroke-width="0.9" opacity="0.85"/><path d="M273.2 174.4 L291.9 181.7 L287.3 212.6 L269.4 212.5 Z" fill="url(#dh)" stroke="#a8a8a8" stroke-width="0.9" opacity="0.85"/><path d="M269.3 215.3 L287.1 215.4 L289.0 237.7 L270.6 236.4 Z" fill="none" stroke="#a8a8a8" stroke-width="0.9" opacity="0.85"/><path d="M270.6 239.0 L289.2 240.3 L290.6 270.4 L270.9 272.5 Z" fill="url(#dh)" stroke="#a8a8a8" stroke-width="0.9" opacity="0.85"/><path d="M271.1 275.7 L289.9 273.6 L288.1 301.2 L265.6 294.6 Z" fill="none" stroke="#a8a8a8" stroke-width="0.9" opacity="0.85"/><line x1="268.3" y1="285.2" x2="289.0" y2="287.4" stroke="#a8a8a8" stroke-width="0.7" opacity="0.7"/><path d="M264.7 298.1 L288.4 304.9 L289.9 345.1 L264.3 342.1 Z" fill="url(#dg)" stroke="#a8a8a8" stroke-width="0.9" opacity="0.85"/><path d="M264.1 345.5 L290.3 348.6 L290.4 395.8 L265.6 395.3 Z" fill="url(#dg)" stroke="#a8a8a8" stroke-width="0.9" opacity="0.85"/><path d="M290.1 6.5 L315.6 4.9 L314.3 44.4 L285.7 45.8 Z" fill="url(#dh)" stroke="#a8a8a8" stroke-width="0.9" opacity="0.85"/><path d="M285.7 49.9 L314.0 48.6 L307.1 67.4 L292.9 70.1 Z" fill="url(#dg)" stroke="#a8a8a8" stroke-width="0.9" opacity="0.85"/><line x1="289.3" y1="60.0" x2="310.5" y2="58.0" stroke="#a8a8a8" stroke-width="0.7" opacity="0.7"/><path d="M292.5 73.2 L307.5 70.3 L314.9 108.2 L286.2 106.1 Z" fill="none" stroke="#a8a8a8" stroke-width="0.9" opacity="0.85"/><path d="M286.5 155.4 L307.8 152.8 L309.0 175.6 L293.8 178.7 Z" fill="url(#dg)" stroke="#a8a8a8" stroke-width="0.9" opacity="0.85"/><line x1="290.1" y1="167.1" x2="308.4" y2="164.2" stroke="#a8a8a8" stroke-width="0.7" opacity="0.7"/><path d="M294.2 182.5 L309.0 179.5 L311.7 211.6 L289.7 211.8 Z" fill="none" stroke="#a8a8a8" stroke-width="0.9" opacity="0.85"/><line x1="292.0" y1="197.2" x2="310.4" y2="195.5" stroke="#a8a8a8" stroke-width="0.7" opacity="0.7"/><path d="M289.1 215.4 L312.1 215.2 L308.7 236.6 L291.0 237.7 Z" fill="none" stroke="#a8a8a8" stroke-width="0.9" opacity="0.85"/><line x1="290.1" y1="226.6" x2="310.4" y2="225.9" stroke="#a8a8a8" stroke-width="0.7" opacity="0.7"/><path d="M291.1 240.4 L308.8 239.3 L312.5 269.7 L292.4 270.2 Z" fill="none" stroke="#a8a8a8" stroke-width="0.9" opacity="0.85"/><path d="M292.7 273.5 L312.3 273.0 L311.9 302.0 L290.9 301.6 Z" fill="url(#dh)" stroke="#a8a8a8" stroke-width="0.9" opacity="0.85"/><line x1="291.8" y1="287.5" x2="312.1" y2="287.5" stroke="#a8a8a8" stroke-width="0.7" opacity="0.7"/><path d="M290.4 305.0 L312.2 305.4 L309.5 339.8 L291.9 345.3 Z" fill="none" stroke="#a8a8a8" stroke-width="0.9" opacity="0.85"/><path d="M292.0 349.3 L309.3 343.9 L309.3 390.9 L292.1 394.7 Z" fill="url(#dh)" stroke="#a8a8a8" stroke-width="0.9" opacity="0.85"/><path d="M320.2 4.4 L362.2 -0.5 L368.6 46.9 L318.8 44.6 Z" fill="none" stroke="#a8a8a8" stroke-width="0.9" opacity="0.85"/><path d="M318.8 48.4 L368.6 50.7 L369.7 72.5 L311.7 67.7 Z" fill="none" stroke="#a8a8a8" stroke-width="0.9" opacity="0.85"/><line x1="315.3" y1="58.1" x2="369.2" y2="61.6" stroke="#a8a8a8" stroke-width="0.7" opacity="0.7"/><path d="M312.6 71.6 L368.8 76.3 L365.7 109.0 L319.6 107.4 Z" fill="none" stroke="#a8a8a8" stroke-width="0.9" opacity="0.85"/><path d="M319.7 112.9 L365.6 114.6 L367.9 152.3 L313.4 148.5 Z" fill="none" stroke="#a8a8a8" stroke-width="0.9" opacity="0.85"/><line x1="316.5" y1="130.7" x2="366.7" y2="133.5" stroke="#a8a8a8" stroke-width="0.7" opacity="0.7"/><path d="M311.6 152.4 L369.3 156.4 L365.5 174.2 L312.9 175.7 Z" fill="none" stroke="#a8a8a8" stroke-width="0.9" opacity="0.85"/><path d="M313.9 178.9 L364.3 177.4 L361.5 204.9 L316.7 211.3 Z" fill="none" stroke="#a8a8a8" stroke-width="0.9" opacity="0.85"/><path d="M316.3 215.1 L362.2 208.5 L368.9 235.9 L312.9 236.3 Z" fill="none" stroke="#a8a8a8" stroke-width="0.9" opacity="0.85"/><path d="M313.1 239.7 L368.8 239.4 L365.2 273.5 L316.7 269.4 Z" fill="url(#dg)" stroke="#a8a8a8" stroke-width="0.9" opacity="0.85"/><path d="M317.2 273.4 L364.5 277.4 L363.2 298.8 L316.9 301.6 Z" fill="url(#dg)" stroke="#a8a8a8" stroke-width="0.9" opacity="0.85"/><path d="M315.4 305.3 L364.3 302.3 L362.3 337.6 L312.7 339.3 Z" fill="none" stroke="#a8a8a8" stroke-width="0.9" opacity="0.85"/><line x1="314.1" y1="322.3" x2="363.3" y2="320.0" stroke="#a8a8a8" stroke-width="0.7" opacity="0.7"/><path d="M312.8 343.6 L362.1 341.8 L363.1 394.7 L312.7 390.8 Z" fill="none" stroke="#a8a8a8" stroke-width="0.9" opacity="0.85"/><path d="M366.5 -1.5 L417.5 2.4 L415.0 47.8 L373.2 47.8 Z" fill="url(#dg)" stroke="#a8a8a8" stroke-width="0.9" opacity="0.85"/><path d="M373.4 50.4 L415.0 50.4 L414.8 70.5 L374.6 73.1 Z" fill="none" stroke="#a8a8a8" stroke-width="0.9" opacity="0.85"/><path d="M375.3 75.7 L414.3 73.3 L419.6 105.1 L372.0 109.7 Z" fill="none" stroke="#a8a8a8" stroke-width="0.9" opacity="0.85"/><line x1="373.6" y1="92.7" x2="416.9" y2="89.2" stroke="#a8a8a8" stroke-width="0.7" opacity="0.7"/><path d="M371.5 113.4 L420.1 108.7 L414.8 149.0 L374.0 153.5 Z" fill="none" stroke="#a8a8a8" stroke-width="0.9" opacity="0.85"/><path d="M375.1 156.9 L413.5 152.6 L416.7 176.8 L371.6 173.7 Z" fill="none" stroke="#a8a8a8" stroke-width="0.9" opacity="0.85"/><path d="M371.4 177.3 L416.7 180.4 L416.5 203.7 L368.6 204.6 Z" fill="url(#dh)" stroke="#a8a8a8" stroke-width="0.9" opacity="0.85"/><path d="M366.6 207.5 L418.5 206.5 L418.8 230.3 L373.7 236.3 Z" fill="none" stroke="#a8a8a8" stroke-width="0.9" opacity="0.85"/><path d="M374.5 239.0 L418.1 233.2 L419.1 276.9 L370.8 274.0 Z" fill="none" stroke="#a8a8a8" stroke-width="0.9" opacity="0.85"/><line x1="372.6" y1="256.5" x2="418.6" y2="255.0" stroke="#a8a8a8" stroke-width="0.7" opacity="0.7"/><path d="M370.1 276.7 L419.4 279.6 L414.6 296.3 L368.7 299.6 Z" fill="none" stroke="#a8a8a8" stroke-width="0.9" opacity="0.85"/><path d="M368.7 302.1 L414.4 298.7 L417.9 342.8 L366.7 337.7 Z" fill="none" stroke="#a8a8a8" stroke-width="0.9" opacity="0.85"/><path d="M366.5 341.2 L418.3 346.3 L421.7 391.8 L367.6 395.5 Z" fill="none" stroke="#a8a8a8" stroke-width="0.9" opacity="0.85"/><path d="M420.4 3.7 L435.1 1.2 L439.2 47.1 L418.0 46.5 Z" fill="url(#dg)" stroke="#a8a8a8" stroke-width="0.9" opacity="0.85"/><path d="M417.3 72.4 L439.7 74.7 L440.7 106.7 L422.9 105.6 Z" fill="url(#dh)" stroke="#a8a8a8" stroke-width="0.9" opacity="0.85"/><path d="M423.4 109.2 L440.2 110.2 L442.7 147.5 L418.2 148.2 Z" fill="none" stroke="#a8a8a8" stroke-width="0.9" opacity="0.85"/><line x1="420.8" y1="128.7" x2="441.5" y2="128.9" stroke="#a8a8a8" stroke-width="0.7" opacity="0.7"/><path d="M418.6 152.6 L442.5 151.9 L443.3 178.6 L421.8 176.8 Z" fill="url(#dh)" stroke="#a8a8a8" stroke-width="0.9" opacity="0.85"/><path d="M421.7 180.5 L443.8 182.3 L443.8 212.0 L421.5 204.4 Z" fill="none" stroke="#a8a8a8" stroke-width="0.9" opacity="0.85"/><path d="M420.9 206.7 L444.3 214.6 L442.8 231.2 L421.2 230.2 Z" fill="none" stroke="#a8a8a8" stroke-width="0.9" opacity="0.85"/><path d="M421.2 232.6 L442.7 233.6 L438.6 272.5 L422.2 277.1 Z" fill="none" stroke="#a8a8a8" stroke-width="0.9" opacity="0.85"/><path d="M422.5 280.0 L437.9 275.6 L438.3 295.0 L417.9 295.5 Z" fill="url(#dh)" stroke="#a8a8a8" stroke-width="0.9" opacity="0.85"/><path d="M418.0 299.8 L438.4 299.2 L441.2 338.2 L421.4 341.5 Z" fill="none" stroke="#a8a8a8" stroke-width="0.9" opacity="0.85"/><path d="M421.0 346.6 L442.0 343.1 L437.9 392.8 L424.4 391.6 Z" fill="url(#dh)" stroke="#a8a8a8" stroke-width="0.9" opacity="0.85"/><path d="M437.3 -0.5 L469.7 2.7 L474.8 43.6 L441.7 48.5 Z" fill="none" stroke="#a8a8a8" stroke-width="0.9" opacity="0.85"/><line x1="439.5" y1="24.0" x2="472.2" y2="23.2" stroke="#a8a8a8" stroke-width="0.7" opacity="0.7"/><path d="M443.0 51.6 L473.8 47.0 L474.5 72.8 L442.7 72.0 Z" fill="url(#dh)" stroke="#a8a8a8" stroke-width="0.9" opacity="0.85"/><path d="M442.1 75.5 L474.9 76.3 L468.8 106.9 L443.0 106.1 Z" fill="url(#dh)" stroke="#a8a8a8" stroke-width="0.9" opacity="0.85"/><line x1="442.5" y1="90.8" x2="471.9" y2="91.6" stroke="#a8a8a8" stroke-width="0.7" opacity="0.7"/><path d="M443.0 110.2 L468.9 110.9 L473.3 153.8 L445.6 147.9 Z" fill="none" stroke="#a8a8a8" stroke-width="0.9" opacity="0.85"/><path d="M445.2 150.9 L474.2 157.1 L473.7 174.0 L446.1 179.8 Z" fill="none" stroke="#a8a8a8" stroke-width="0.9" opacity="0.85"/><path d="M447.1 182.5 L472.5 177.2 L470.5 204.1 L447.1 211.4 Z" fill="url(#dh)" stroke="#a8a8a8" stroke-width="0.9" opacity="0.85"/><path d="M446.4 214.8 L471.1 207.1 L472.8 232.8 L444.9 231.1 Z" fill="url(#dh)" stroke="#a8a8a8" stroke-width="0.9" opacity="0.85"/><path d="M445.6 234.8 L472.1 236.4 L475.0 271.5 L441.7 271.3 Z" fill="url(#dh)" stroke="#a8a8a8" stroke-width="0.9" opacity="0.85"/><path d="M440.3 274.8 L476.2 275.0 L468.1 300.9 L440.7 295.6 Z" fill="none" stroke="#a8a8a8" stroke-width="0.9" opacity="0.85"/><path d="M442.0 299.5 L467.3 304.3 L474.2 338.4 L444.8 338.1 Z" fill="url(#dg)" stroke="#a8a8a8" stroke-width="0.9" opacity="0.85"/><path d="M444.1 342.9 L475.6 343.2 L476.3 392.8 L439.9 392.9 Z" fill="url(#dh)" stroke="#a8a8a8" stroke-width="0.9" opacity="0.85"/><path d="M471.9 3.2 L498.0 6.0 L497.6 45.2 L476.9 43.3 Z" fill="none" stroke="#a8a8a8" stroke-width="0.9" opacity="0.85"/><path d="M476.8 46.0 L497.6 48.0 L489.6 66.7 L477.6 73.3 Z" fill="url(#dg)" stroke="#a8a8a8" stroke-width="0.9" opacity="0.85"/><path d="M477.5 76.0 L489.4 69.5 L495.7 110.5 L471.4 107.1 Z" fill="none" stroke="#a8a8a8" stroke-width="0.9" opacity="0.85"/><path d="M472.1 111.9 L495.3 115.2 L495.6 151.0 L476.4 153.3 Z" fill="url(#dg)" stroke="#a8a8a8" stroke-width="0.9" opacity="0.85"/><line x1="474.3" y1="132.6" x2="495.4" y2="133.1" stroke="#a8a8a8" stroke-width="0.7" opacity="0.7"/><path d="M475.9 157.1 L496.4 154.7 L495.8 173.0 L475.4 173.9 Z" fill="none" stroke="#a8a8a8" stroke-width="0.9" opacity="0.85"/><path d="M475.4 235.6 L498.6 231.9 L499.2 270.9 L478.5 272.1 Z" fill="none" stroke="#a8a8a8" stroke-width="0.9" opacity="0.85"/><path d="M469.9 303.2 L491.5 298.8 L497.2 347.2 L477.4 340.0 Z" fill="none" stroke="#a8a8a8" stroke-width="0.9" opacity="0.85"/><path d="M477.7 343.5 L497.2 350.6 L492.9 394.3 L478.3 392.8 Z" fill="url(#dg)" stroke="#a8a8a8" stroke-width="0.9" opacity="0.85"/>
</svg>